STARTFONT 2.3
FONT -FontForge-Source Code Pro-Book-R-Normal--11-110-72-72-M-70-ISO10646-1
SIZE 11 72 72  2
FONTBOUNDINGBOX 11 18 -2 -5
COMMENT "Generated by fontforge, http://fontforge.sourceforge.net"
COMMENT "Copyright 2010, 2012 Adobe Systems Incorporated (http://www.adobe.com/), with Reserved Font Name `Source'."
STARTPROPERTIES 41
FOUNDRY "FontForge"
FAMILY_NAME "Source Code Pro"
WEIGHT_NAME "Book"
SLANT "R"
SETWIDTH_NAME "Normal"
ADD_STYLE_NAME ""
PIXEL_SIZE 11
POINT_SIZE 110
RESOLUTION_X 72
RESOLUTION_Y 72
SPACING "M"
AVERAGE_WIDTH 70
CHARSET_REGISTRY "ISO10646"
CHARSET_ENCODING "1"
FONTNAME_REGISTRY ""
CHARSET_COLLECTIONS "ASCII ISOLatin1Encoding ISO8859-2 ISO8859-5 ISO8859-7 ISO8859-9 ISO8859-4 ISO10646-1"
BITS_PER_PIXEL 2
FONT_NAME "SourceCodePro-Regular"
FACE_NAME "Source Code Pro"
COPYRIGHT "Copyright 2010, 2012 Adobe Systems Incorporated (http://www.adobe.com/), with Reserved Font Name `Source'."
FONT_VERSION "2.030;PS 1.000;hotconv 16.6.51;makeotf.lib2.5.65220"
FONT_ASCENT 8
FONT_DESCENT 3
UNDERLINE_POSITION -1
UNDERLINE_THICKNESS 1
X_HEIGHT 4
CAP_HEIGHT 6
RAW_ASCENT 750
RAW_DESCENT 250
NORM_SPACE 7
RELATIVE_WEIGHT 40
RELATIVE_SETWIDTH 50
SUPERSCRIPT_X 0
SUPERSCRIPT_Y 3
SUPERSCRIPT_SIZE 6
SUBSCRIPT_X 0
SUBSCRIPT_Y 0
SUBSCRIPT_SIZE 6
FIGURE_WIDTH 7
AVG_LOWERCASE_WIDTH 70
AVG_UPPERCASE_WIDTH 70
ENDPROPERTIES
CHARS 1564
STARTCHAR space
ENCODING 32
SWIDTH 600 0
DWIDTH 7 0
BBX 1 1 0 0
BITMAP
00
ENDCHAR
STARTCHAR exclam
ENCODING 33
SWIDTH 600 0
DWIDTH 7 0
BBX 2 7 2 0
BITMAP
20
20
20
20
00
70
70
ENDCHAR
STARTCHAR quotedbl
ENCODING 34
SWIDTH 600 0
DWIDTH 7 0
BBX 4 4 1 4
BITMAP
A3
A3
63
52
ENDCHAR
STARTCHAR numbersign
ENCODING 35
SWIDTH 600 0
DWIDTH 7 0
BBX 5 7 1 0
BITMAP
2200
2200
B640
2200
EA40
5500
5500
ENDCHAR
STARTCHAR dollar
ENCODING 36
SWIDTH 600 0
DWIDTH 7 0
BBX 5 10 1 -2
BITMAP
0800
7E00
9100
A000
1E00
0240
9180
6E00
0800
0800
ENDCHAR
STARTCHAR percent
ENCODING 37
SWIDTH 600 0
DWIDTH 7 0
BBX 7 8 0 0
BITMAP
7800
9520
9950
7840
01E0
0624
2224
51E0
ENDCHAR
STARTCHAR ampersand
ENCODING 38
SWIDTH 600 0
DWIDTH 7 0
BBX 7 7 0 0
BITMAP
1E00
2640
1A00
2D20
6620
61D0
2E64
ENDCHAR
STARTCHAR quotesingle
ENCODING 39
SWIDTH 600 0
DWIDTH 7 0
BBX 2 4 2 4
BITMAP
70
70
20
20
ENDCHAR
STARTCHAR parenleft
ENCODING 40
SWIDTH 600 0
DWIDTH 7 0
BBX 3 10 2 -2
BITMAP
08
24
60
90
80
80
90
60
24
08
ENDCHAR
STARTCHAR parenright
ENCODING 41
SWIDTH 600 0
DWIDTH 7 0
BBX 4 10 1 -2
BITMAP
50
24
08
08
09
09
08
08
24
50
ENDCHAR
STARTCHAR asterisk
ENCODING 42
SWIDTH 600 0
DWIDTH 7 0
BBX 5 6 1 1
BITMAP
0400
0800
9A40
2D00
2900
5200
ENDCHAR
STARTCHAR plus
ENCODING 43
SWIDTH 600 0
DWIDTH 7 0
BBX 5 5 1 1
BITMAP
0800
0800
FF80
0800
0800
ENDCHAR
STARTCHAR comma
ENCODING 44
SWIDTH 600 0
DWIDTH 7 0
BBX 3 5 2 -3
BITMAP
70
74
24
60
40
ENDCHAR
STARTCHAR hyphen
ENCODING 45
SWIDTH 600 0
DWIDTH 7 0
BBX 5 1 1 3
BITMAP
FF80
ENDCHAR
STARTCHAR period
ENCODING 46
SWIDTH 600 0
DWIDTH 7 0
BBX 2 2 2 0
BITMAP
70
70
ENDCHAR
STARTCHAR slash
ENCODING 47
SWIDTH 600 0
DWIDTH 7 0
BBX 5 10 1 -2
BITMAP
0140
0200
0600
0900
0800
1800
2400
2000
5000
8000
ENDCHAR
STARTCHAR zero
ENCODING 48
SWIDTH 600 0
DWIDTH 7 0
BBX 6 7 0 0
BITMAP
1B80
2490
2120
6620
2020
2490
1B80
ENDCHAR
STARTCHAR one
ENCODING 49
SWIDTH 600 0
DWIDTH 7 0
BBX 5 7 1 0
BITMAP
6C00
0C00
0C00
0C00
0C00
0C00
FF80
ENDCHAR
STARTCHAR two
ENCODING 50
SWIDTH 600 0
DWIDTH 7 0
BBX 6 7 0 0
BITMAP
1F80
2090
0090
0180
0600
1800
7FE0
ENDCHAR
STARTCHAR three
ENCODING 51
SWIDTH 600 0
DWIDTH 7 0
BBX 5 7 1 0
BITMAP
7E00
4240
0240
2D00
0240
8280
7E00
ENDCHAR
STARTCHAR four
ENCODING 52
SWIDTH 600 0
DWIDTH 7 0
BBX 6 7 0 0
BITMAP
01C0
06C0
18C0
20C0
BFF0
00C0
00C0
ENDCHAR
STARTCHAR five
ENCODING 53
SWIDTH 600 0
DWIDTH 7 0
BBX 5 7 1 0
BITMAP
BF40
8000
AE00
5280
0180
4240
BE00
ENDCHAR
STARTCHAR six
ENCODING 54
SWIDTH 600 0
DWIDTH 7 0
BBX 5 7 1 0
BITMAP
2F40
A140
C000
EF40
D180
9180
2E00
ENDCHAR
STARTCHAR seven
ENCODING 55
SWIDTH 600 0
DWIDTH 7 0
BBX 6 7 0 0
BITMAP
7FF0
0090
0180
0200
0200
0600
0500
ENDCHAR
STARTCHAR eight
ENCODING 56
SWIDTH 600 0
DWIDTH 7 0
BBX 5 7 1 0
BITMAP
7E00
9240
5240
7F00
C540
8180
7E40
ENDCHAR
STARTCHAR nine
ENCODING 57
SWIDTH 600 0
DWIDTH 7 0
BBX 6 7 0 0
BITMAP
1F80
2090
6060
2FA0
0060
1090
2F40
ENDCHAR
STARTCHAR colon
ENCODING 58
SWIDTH 600 0
DWIDTH 7 0
BBX 2 6 2 0
BITMAP
70
70
00
00
70
70
ENDCHAR
STARTCHAR semicolon
ENCODING 59
SWIDTH 600 0
DWIDTH 7 0
BBX 3 9 2 -3
BITMAP
70
70
00
00
70
74
24
60
40
ENDCHAR
STARTCHAR less
ENCODING 60
SWIDTH 600 0
DWIDTH 7 0
BBX 5 7 1 0
BITMAP
0140
0A00
6400
9000
6400
0A00
0140
ENDCHAR
STARTCHAR equal
ENCODING 61
SWIDTH 600 0
DWIDTH 7 0
BBX 5 3 1 2
BITMAP
FF80
0000
FF80
ENDCHAR
STARTCHAR greater
ENCODING 62
SWIDTH 600 0
DWIDTH 7 0
BBX 5 7 1 0
BITMAP
8000
6400
0A00
0240
0A00
6400
8000
ENDCHAR
STARTCHAR question
ENCODING 63
SWIDTH 600 0
DWIDTH 7 0
BBX 5 8 1 0
BITMAP
7E00
5240
0200
0900
1800
0000
1800
1800
ENDCHAR
STARTCHAR at
ENCODING 64
SWIDTH 600 0
DWIDTH 7 0
BBX 6 9 0 -2
BITMAP
0BD0
2420
61B0
5660
5530
57A0
2000
2410
0B90
ENDCHAR
STARTCHAR A
ENCODING 65
SWIDTH 600 0
DWIDTH 7 0
BBX 6 7 0 0
BITMAP
0700
0A40
0880
1480
2FD0
2060
5030
ENDCHAR
STARTCHAR B
ENCODING 66
SWIDTH 600 0
DWIDTH 7 0
BBX 5 7 1 0
BITMAP
FE00
C280
C240
FE00
C1C0
C1C0
FE40
ENDCHAR
STARTCHAR C
ENCODING 67
SWIDTH 600 0
DWIDTH 7 0
BBX 6 7 0 0
BITMAP
0BD0
2810
3000
6000
3000
2820
0BD0
ENDCHAR
STARTCHAR D
ENCODING 68
SWIDTH 600 0
DWIDTH 7 0
BBX 5 7 1 0
BITMAP
FE00
C280
C0C0
C0C0
C0C0
C280
FE00
ENDCHAR
STARTCHAR E
ENCODING 69
SWIDTH 600 0
DWIDTH 7 0
BBX 5 7 1 0
BITMAP
BF80
9000
9000
BF40
9000
9000
BF80
ENDCHAR
STARTCHAR F
ENCODING 70
SWIDTH 600 0
DWIDTH 7 0
BBX 5 7 1 0
BITMAP
BFC0
9000
9000
BF40
9000
9000
9000
ENDCHAR
STARTCHAR G
ENCODING 71
SWIDTH 600 0
DWIDTH 7 0
BBX 6 7 0 0
BITMAP
0BD0
3450
6000
61F0
6030
3430
0BD0
ENDCHAR
STARTCHAR H
ENCODING 72
SWIDTH 600 0
DWIDTH 7 0
BBX 5 7 1 0
BITMAP
8180
8180
8180
FF80
8180
8180
8180
ENDCHAR
STARTCHAR I
ENCODING 73
SWIDTH 600 0
DWIDTH 7 0
BBX 5 7 1 0
BITMAP
FF80
0800
0800
0800
0800
0800
FF80
ENDCHAR
STARTCHAR J
ENCODING 74
SWIDTH 600 0
DWIDTH 7 0
BBX 5 7 1 0
BITMAP
BF40
0140
0140
0140
0240
8240
7E00
ENDCHAR
STARTCHAR K
ENCODING 75
SWIDTH 600 0
DWIDTH 7 0
BBX 5 7 1 0
BITMAP
C180
C600
CC00
E900
D300
C240
C0C0
ENDCHAR
STARTCHAR L
ENCODING 76
SWIDTH 600 0
DWIDTH 7 0
BBX 5 7 1 0
BITMAP
9000
9000
9000
9000
9000
9000
BFC0
ENDCHAR
STARTCHAR M
ENCODING 77
SWIDTH 600 0
DWIDTH 7 0
BBX 6 7 0 0
BITMAP
7060
74A0
69A0
6A60
6720
6020
6020
ENDCHAR
STARTCHAR N
ENCODING 78
SWIDTH 600 0
DWIDTH 7 0
BBX 5 7 1 0
BITMAP
D180
E180
A580
9980
8980
8280
8280
ENDCHAR
STARTCHAR O
ENCODING 79
SWIDTH 600 0
DWIDTH 7 0
BBX 6 7 0 0
BITMAP
1B80
34A0
6030
5030
6030
34A0
1B80
ENDCHAR
STARTCHAR P
ENCODING 80
SWIDTH 600 0
DWIDTH 7 0
BBX 5 7 1 0
BITMAP
FE40
C1C0
C1C0
FE40
C000
C000
C000
ENDCHAR
STARTCHAR Q
ENCODING 81
SWIDTH 600 0
DWIDTH 7 0
BBX 6 9 0 -2
BITMAP
1B80
34A0
6030
6030
6030
34A0
1F80
0340
01F0
ENDCHAR
STARTCHAR R
ENCODING 82
SWIDTH 600 0
DWIDTH 7 0
BBX 5 7 1 0
BITMAP
FE40
C180
C180
FE40
C600
C240
C180
ENDCHAR
STARTCHAR S
ENCODING 83
SWIDTH 600 0
DWIDTH 7 0
BBX 5 7 1 0
BITMAP
6E00
D140
A000
1E00
0180
9180
7E40
ENDCHAR
STARTCHAR T
ENCODING 84
SWIDTH 600 0
DWIDTH 7 0
BBX 6 7 0 0
BITMAP
BFF0
0200
0200
0200
0200
0200
0200
ENDCHAR
STARTCHAR U
ENCODING 85
SWIDTH 600 0
DWIDTH 7 0
BBX 5 7 1 0
BITMAP
8080
8080
8080
8080
C180
D280
7E00
ENDCHAR
STARTCHAR V
ENCODING 86
SWIDTH 600 0
DWIDTH 7 0
BBX 6 7 0 0
BITMAP
6030
3060
2490
18C0
0980
0A40
0700
ENDCHAR
STARTCHAR W
ENCODING 87
SWIDTH 600 0
DWIDTH 7 0
BBX 7 7 0 0
BITMAP
9024
9024
9720
6A70
69A0
28A0
34A0
ENDCHAR
STARTCHAR X
ENCODING 88
SWIDTH 600 0
DWIDTH 7 0
BBX 5 7 1 0
BITMAP
C180
6200
2900
1C00
2500
9200
8180
ENDCHAR
STARTCHAR Y
ENCODING 89
SWIDTH 600 0
DWIDTH 7 0
BBX 6 7 0 0
BITMAP
6020
2490
1880
0A40
0600
0200
0200
ENDCHAR
STARTCHAR Z
ENCODING 90
SWIDTH 600 0
DWIDTH 7 0
BBX 6 7 0 0
BITMAP
3FF0
0090
0180
0600
0800
2400
7FF0
ENDCHAR
STARTCHAR bracketleft
ENCODING 91
SWIDTH 600 0
DWIDTH 7 0
BBX 4 10 2 -2
BITMAP
BE
90
90
90
90
90
90
90
90
BE
ENDCHAR
STARTCHAR backslash
ENCODING 92
SWIDTH 600 0
DWIDTH 7 0
BBX 5 10 1 -2
BITMAP
8000
5000
2000
2000
1800
0800
0900
0600
0200
0140
ENDCHAR
STARTCHAR bracketright
ENCODING 93
SWIDTH 600 0
DWIDTH 7 0
BBX 3 10 1 -2
BITMAP
FC
08
08
08
08
08
08
08
08
FC
ENDCHAR
STARTCHAR asciicircum
ENCODING 94
SWIDTH 600 0
DWIDTH 7 0
BBX 4 4 1 3
BITMAP
1C
25
22
92
ENDCHAR
STARTCHAR underscore
ENCODING 95
SWIDTH 600 0
DWIDTH 7 0
BBX 6 1 0 -2
BITMAP
7FF0
ENDCHAR
STARTCHAR grave
ENCODING 96
SWIDTH 600 0
DWIDTH 7 0
BBX 2 2 2 6
BITMAP
80
60
ENDCHAR
STARTCHAR a
ENCODING 97
SWIDTH 600 0
DWIDTH 7 0
BBX 5 5 1 0
BITMAP
6E00
5280
6F80
D180
BE80
ENDCHAR
STARTCHAR b
ENCODING 98
SWIDTH 600 0
DWIDTH 7 0
BBX 5 8 1 0
BITMAP
C000
C000
C000
EE40
D180
C0C0
D180
EE00
ENDCHAR
STARTCHAR c
ENCODING 99
SWIDTH 600 0
DWIDTH 7 0
BBX 5 5 1 0
BITMAP
2F40
D040
C000
D040
6F40
ENDCHAR
STARTCHAR d
ENCODING 100
SWIDTH 600 0
DWIDTH 7 0
BBX 6 8 0 0
BITMAP
0060
0060
0060
1FA0
34A0
6060
30A0
1FA0
ENDCHAR
STARTCHAR e
ENCODING 101
SWIDTH 600 0
DWIDTH 7 0
BBX 6 5 0 0
BITMAP
1B80
3460
7FF0
2410
1B90
ENDCHAR
STARTCHAR f
ENCODING 102
SWIDTH 600 0
DWIDTH 7 0
BBX 6 8 1 0
BITMAP
0BD0
1800
1800
BF80
1800
1800
1800
1800
ENDCHAR
STARTCHAR g
ENCODING 103
SWIDTH 600 0
DWIDTH 7 0
BBX 6 7 1 -2
BITMAP
7FD0
D200
BB00
9400
BF80
80C0
BE40
ENDCHAR
STARTCHAR h
ENCODING 104
SWIDTH 600 0
DWIDTH 7 0
BBX 5 8 1 0
BITMAP
C000
C000
C000
DF40
D180
C080
C080
C080
ENDCHAR
STARTCHAR i
ENCODING 105
SWIDTH 600 0
DWIDTH 7 0
BBX 4 8 1 0
BITMAP
09
00
00
FD
09
09
09
09
ENDCHAR
STARTCHAR j
ENCODING 106
SWIDTH 600 0
DWIDTH 7 0
BBX 5 10 0 -2
BITMAP
0240
0000
0000
3F40
0240
0240
0240
0240
0240
7E00
ENDCHAR
STARTCHAR k
ENCODING 107
SWIDTH 600 0
DWIDTH 7 0
BBX 5 8 1 0
BITMAP
8000
8000
8000
8240
8900
A900
9240
8080
ENDCHAR
STARTCHAR l
ENCODING 108
SWIDTH 600 0
DWIDTH 7 0
BBX 6 8 0 0
BITMAP
7E00
0600
0600
0600
0600
0600
0600
02E0
ENDCHAR
STARTCHAR m
ENCODING 109
SWIDTH 600 0
DWIDTH 7 0
BBX 6 5 0 0
BITMAP
6EE0
6730
6220
6220
6220
ENDCHAR
STARTCHAR n
ENCODING 110
SWIDTH 600 0
DWIDTH 7 0
BBX 5 5 1 0
BITMAP
9F40
D180
C080
C080
C080
ENDCHAR
STARTCHAR o
ENCODING 111
SWIDTH 600 0
DWIDTH 7 0
BBX 6 5 0 0
BITMAP
1F80
3460
6030
3460
1F80
ENDCHAR
STARTCHAR p
ENCODING 112
SWIDTH 600 0
DWIDTH 7 0
BBX 5 7 1 -2
BITMAP
EE40
D180
C0C0
D180
EE00
C000
C000
ENDCHAR
STARTCHAR q
ENCODING 113
SWIDTH 600 0
DWIDTH 7 0
BBX 6 7 0 -2
BITMAP
1FA0
34A0
6060
30A0
1FA0
0060
0060
ENDCHAR
STARTCHAR r
ENCODING 114
SWIDTH 600 0
DWIDTH 7 0
BBX 5 5 1 0
BITMAP
5B80
7400
6000
6000
6000
ENDCHAR
STARTCHAR s
ENCODING 115
SWIDTH 600 0
DWIDTH 7 0
BBX 5 5 1 0
BITMAP
7E00
9100
2A40
8180
7E40
ENDCHAR
STARTCHAR t
ENCODING 116
SWIDTH 600 0
DWIDTH 7 0
BBX 6 7 0 0
BITMAP
0900
0900
7FE0
0900
0900
0900
07E0
ENDCHAR
STARTCHAR u
ENCODING 117
SWIDTH 600 0
DWIDTH 7 0
BBX 5 5 1 0
BITMAP
8180
8180
8180
C280
BD80
ENDCHAR
STARTCHAR v
ENCODING 118
SWIDTH 600 0
DWIDTH 7 0
BBX 6 5 0 0
BITMAP
6020
2050
1880
0940
0700
ENDCHAR
STARTCHAR w
ENCODING 119
SWIDTH 600 0
DWIDTH 7 0
BBX 7 5 0 0
BITMAP
8214
9724
6960
29A0
38D0
ENDCHAR
STARTCHAR x
ENCODING 120
SWIDTH 600 0
DWIDTH 7 0
BBX 5 5 1 0
BITMAP
9240
2600
1C00
6600
8240
ENDCHAR
STARTCHAR y
ENCODING 121
SWIDTH 600 0
DWIDTH 7 0
BBX 6 7 0 -2
BITMAP
6020
2450
1880
0980
0700
0600
3800
ENDCHAR
STARTCHAR z
ENCODING 122
SWIDTH 600 0
DWIDTH 7 0
BBX 6 5 0 0
BITMAP
2FE0
0180
0600
1800
7FF0
ENDCHAR
STARTCHAR braceleft
ENCODING 123
SWIDTH 600 0
DWIDTH 7 0
BBX 5 10 1 -2
BITMAP
0B80
0800
0800
1800
B400
1800
0800
0800
0800
0B80
ENDCHAR
STARTCHAR bar
ENCODING 124
SWIDTH 600 0
DWIDTH 7 0
BBX 1 11 3 -3
BITMAP
80
80
80
80
80
80
80
80
80
80
80
ENDCHAR
STARTCHAR braceright
ENCODING 125
SWIDTH 600 0
DWIDTH 7 0
BBX 5 10 1 -2
BITMAP
F400
0800
0800
0800
0B40
0C00
0800
0800
1800
F400
ENDCHAR
STARTCHAR asciitilde
ENCODING 126
SWIDTH 600 0
DWIDTH 7 0
BBX 5 2 1 3
BITMAP
B480
8B40
ENDCHAR
STARTCHAR uni00A0
ENCODING 160
SWIDTH 600 0
DWIDTH 7 0
BBX 1 1 0 0
BITMAP
00
ENDCHAR
STARTCHAR exclamdown
ENCODING 161
SWIDTH 600 0
DWIDTH 7 0
BBX 2 7 2 -2
BITMAP
70
70
00
20
20
20
20
ENDCHAR
STARTCHAR cent
ENCODING 162
SWIDTH 600 0
DWIDTH 7 0
BBX 5 7 1 0
BITMAP
0800
2E00
A900
9800
A900
2E40
0800
ENDCHAR
STARTCHAR sterling
ENCODING 163
SWIDTH 600 0
DWIDTH 7 0
BBX 5 7 1 0
BITMAP
2F40
6040
6000
FF00
2000
6000
FFC0
ENDCHAR
STARTCHAR currency
ENCODING 164
SWIDTH 600 0
DWIDTH 7 0
BBX 5 7 1 0
BITMAP
4040
AE40
9240
8140
9240
AE40
4040
ENDCHAR
STARTCHAR yen
ENCODING 165
SWIDTH 600 0
DWIDTH 7 0
BBX 5 7 1 0
BITMAP
8180
9200
2600
AE40
AE40
AE40
AE40
ENDCHAR
STARTCHAR brokenbar
ENCODING 166
SWIDTH 600 0
DWIDTH 7 0
BBX 1 11 3 -3
BITMAP
80
80
80
80
80
00
80
80
80
80
80
ENDCHAR
STARTCHAR section
ENCODING 167
SWIDTH 600 0
DWIDTH 7 0
BBX 5 9 1 -1
BITMAP
2E00
6100
7400
8600
8140
6540
0600
4300
7D00
ENDCHAR
STARTCHAR dieresis
ENCODING 168
SWIDTH 600 0
DWIDTH 7 0
BBX 4 1 1 7
BITMAP
62
ENDCHAR
STARTCHAR copyright
ENCODING 169
SWIDTH 600 0
DWIDTH 7 0
BBX 7 7 0 0
BITMAP
1B80
2460
8A50
9954
8B50
2060
1B80
ENDCHAR
STARTCHAR ordfeminine
ENCODING 170
SWIDTH 600 0
DWIDTH 7 0
BBX 3 4 2 4
BITMAP
B8
BC
88
E4
ENDCHAR
STARTCHAR guillemotleft
ENCODING 171
SWIDTH 600 0
DWIDTH 7 0
BBX 5 4 1 1
BITMAP
2140
8600
8600
2140
ENDCHAR
STARTCHAR logicalnot
ENCODING 172
SWIDTH 600 0
DWIDTH 7 0
BBX 5 3 1 1
BITMAP
FF80
0080
0080
ENDCHAR
STARTCHAR uni00AD
ENCODING 173
SWIDTH 600 0
DWIDTH 7 0
BBX 5 1 1 3
BITMAP
FF80
ENDCHAR
STARTCHAR registered
ENCODING 174
SWIDTH 600 0
DWIDTH 7 0
BBX 5 5 1 3
BITMAP
2D00
9200
6D40
9600
2D00
ENDCHAR
STARTCHAR macron
ENCODING 175
SWIDTH 600 0
DWIDTH 7 0
BBX 3 1 2 6
BITMAP
F8
ENDCHAR
STARTCHAR degree
ENCODING 176
SWIDTH 600 0
DWIDTH 7 0
BBX 3 4 2 4
BITMAP
B4
88
88
B4
ENDCHAR
STARTCHAR plusminus
ENCODING 177
SWIDTH 600 0
DWIDTH 7 0
BBX 5 6 1 0
BITMAP
0800
0800
FF80
0800
0000
FF80
ENDCHAR
STARTCHAR two.sups
ENCODING 178
SWIDTH 600 0
DWIDTH 7 0
BBX 4 5 1 4
BITMAP
2D
16
05
14
7F
ENDCHAR
STARTCHAR three.sups
ENCODING 179
SWIDTH 600 0
DWIDTH 7 0
BBX 3 5 2 4
BITMAP
B4
58
74
48
B4
ENDCHAR
STARTCHAR acute
ENCODING 180
SWIDTH 600 0
DWIDTH 7 0
BBX 2 2 3 6
BITMAP
50
80
ENDCHAR
STARTCHAR uni00B5
ENCODING 181
SWIDTH 600 0
DWIDTH 7 0
BBX 5 7 1 -2
BITMAP
8140
8140
C140
C240
FDC0
8000
8000
ENDCHAR
STARTCHAR paragraph
ENCODING 182
SWIDTH 600 0
DWIDTH 7 0
BBX 5 8 1 -1
BITMAP
7E40
FE40
FE40
FE40
2A40
0240
0240
0240
ENDCHAR
STARTCHAR periodcentered
ENCODING 183
SWIDTH 600 0
DWIDTH 7 0
BBX 2 2 2 3
BITMAP
70
70
ENDCHAR
STARTCHAR cedilla
ENCODING 184
SWIDTH 600 0
DWIDTH 7 0
BBX 2 4 2 -4
BITMAP
10
70
20
A0
ENDCHAR
STARTCHAR one.sups
ENCODING 185
SWIDTH 600 0
DWIDTH 7 0
BBX 4 4 2 4
BITMAP
B0
20
20
FD
ENDCHAR
STARTCHAR ordmasculine
ENCODING 186
SWIDTH 600 0
DWIDTH 7 0
BBX 4 4 1 4
BITMAP
2D
52
52
2D
ENDCHAR
STARTCHAR guillemotright
ENCODING 187
SWIDTH 600 0
DWIDTH 7 0
BBX 5 4 1 1
BITMAP
8200
2180
2180
8200
ENDCHAR
STARTCHAR onequarter
ENCODING 188
SWIDTH 600 0
DWIDTH 7 0
BBX 7 7 0 0
BITMAP
3420
1450
1440
0000
0460
22F4
5020
ENDCHAR
STARTCHAR onehalf
ENCODING 189
SWIDTH 600 0
DWIDTH 7 0
BBX 7 7 0 0
BITMAP
3420
1450
1440
00E0
0520
2050
51F4
ENDCHAR
STARTCHAR threequarters
ENCODING 190
SWIDTH 600 0
DWIDTH 7 0
BBX 7 8 0 0
BITMAP
7800
0814
6860
7840
0000
0460
16F4
2020
ENDCHAR
STARTCHAR questiondown
ENCODING 191
SWIDTH 600 0
DWIDTH 7 0
BBX 4 7 1 -2
BITMAP
0C
1C
00
08
20
91
7E
ENDCHAR
STARTCHAR Agrave
ENCODING 192
SWIDTH 600 0
DWIDTH 7 0
BBX 6 10 0 0
BITMAP
0800
0200
0000
0700
0A40
0880
1480
2FD0
2060
5030
ENDCHAR
STARTCHAR Aacute
ENCODING 193
SWIDTH 600 0
DWIDTH 7 0
BBX 6 10 0 0
BITMAP
0140
0600
0000
0700
0A40
0880
1480
2FD0
2060
5030
ENDCHAR
STARTCHAR Acircumflex
ENCODING 194
SWIDTH 600 0
DWIDTH 7 0
BBX 6 9 0 0
BITMAP
0B00
0880
0700
0A40
0880
1480
2FD0
2060
5030
ENDCHAR
STARTCHAR Atilde
ENCODING 195
SWIDTH 600 0
DWIDTH 7 0
BBX 6 10 0 0
BITMAP
1D50
2680
0000
0700
0A40
0880
1480
2FD0
2060
5030
ENDCHAR
STARTCHAR Adieresis
ENCODING 196
SWIDTH 600 0
DWIDTH 7 0
BBX 6 9 0 0
BITMAP
0880
0000
0700
0A40
0880
1480
2FD0
2060
5030
ENDCHAR
STARTCHAR Aring
ENCODING 197
SWIDTH 600 0
DWIDTH 7 0
BBX 6 10 0 0
BITMAP
0700
0940
0700
0700
0A40
0880
1480
2FD0
2060
5030
ENDCHAR
STARTCHAR AE
ENCODING 198
SWIDTH 600 0
DWIDTH 7 0
BBX 7 7 0 0
BITMAP
07F4
0A40
0A40
26F0
3F40
6240
82F8
ENDCHAR
STARTCHAR Ccedilla
ENCODING 199
SWIDTH 600 0
DWIDTH 7 0
BBX 6 11 0 -4
BITMAP
0BD0
2810
3000
6000
3000
2820
0BD0
0200
0240
0180
0340
ENDCHAR
STARTCHAR Egrave
ENCODING 200
SWIDTH 600 0
DWIDTH 7 0
BBX 5 10 1 0
BITMAP
1400
0800
0000
BF80
9000
9000
BF40
9000
9000
BF80
ENDCHAR
STARTCHAR Eacute
ENCODING 201
SWIDTH 600 0
DWIDTH 7 0
BBX 5 10 1 0
BITMAP
0200
0800
0000
BF80
9000
9000
BF40
9000
9000
BF80
ENDCHAR
STARTCHAR Ecircumflex
ENCODING 202
SWIDTH 600 0
DWIDTH 7 0
BBX 5 9 1 0
BITMAP
1D00
2200
BF80
9000
9000
BF40
9000
9000
BF80
ENDCHAR
STARTCHAR Edieresis
ENCODING 203
SWIDTH 600 0
DWIDTH 7 0
BBX 5 9 1 0
BITMAP
2200
0000
BF80
9000
9000
BF40
9000
9000
BF80
ENDCHAR
STARTCHAR Igrave
ENCODING 204
SWIDTH 600 0
DWIDTH 7 0
BBX 5 10 1 0
BITMAP
2000
0800
0000
FF80
0800
0800
0800
0800
0800
FF80
ENDCHAR
STARTCHAR Iacute
ENCODING 205
SWIDTH 600 0
DWIDTH 7 0
BBX 5 10 1 0
BITMAP
0500
1800
0000
FF80
0800
0800
0800
0800
0800
FF80
ENDCHAR
STARTCHAR Icircumflex
ENCODING 206
SWIDTH 600 0
DWIDTH 7 0
BBX 5 9 1 0
BITMAP
2C00
2200
FF80
0800
0800
0800
0800
0800
FF80
ENDCHAR
STARTCHAR Idieresis
ENCODING 207
SWIDTH 600 0
DWIDTH 7 0
BBX 5 9 1 0
BITMAP
2200
0000
FF80
0800
0800
0800
0800
0800
FF80
ENDCHAR
STARTCHAR Eth
ENCODING 208
SWIDTH 600 0
DWIDTH 7 0
BBX 6 7 0 0
BITMAP
3F80
30A0
3030
FD30
3030
30A0
3F80
ENDCHAR
STARTCHAR Ntilde
ENCODING 209
SWIDTH 600 0
DWIDTH 7 0
BBX 5 10 1 0
BITMAP
7540
5B00
0000
D180
E180
A580
9980
8980
8280
8280
ENDCHAR
STARTCHAR Ograve
ENCODING 210
SWIDTH 600 0
DWIDTH 7 0
BBX 6 10 0 0
BITMAP
0800
0200
0000
1B80
34A0
6030
5030
6030
34A0
1B80
ENDCHAR
STARTCHAR Oacute
ENCODING 211
SWIDTH 600 0
DWIDTH 7 0
BBX 6 10 0 0
BITMAP
0140
0600
0000
1B80
34A0
6030
5030
6030
34A0
1B80
ENDCHAR
STARTCHAR Ocircumflex
ENCODING 212
SWIDTH 600 0
DWIDTH 7 0
BBX 6 9 0 0
BITMAP
0B00
0880
1B80
34A0
6030
5030
6030
34A0
1B80
ENDCHAR
STARTCHAR Otilde
ENCODING 213
SWIDTH 600 0
DWIDTH 7 0
BBX 6 10 0 0
BITMAP
1D50
2680
0000
1B80
34A0
6030
5030
6030
34A0
1B80
ENDCHAR
STARTCHAR Odieresis
ENCODING 214
SWIDTH 600 0
DWIDTH 7 0
BBX 6 9 0 0
BITMAP
0880
0000
1B80
34A0
6030
5030
6030
34A0
1B80
ENDCHAR
STARTCHAR multiply
ENCODING 215
SWIDTH 600 0
DWIDTH 7 0
BBX 5 4 1 2
BITMAP
9240
2900
2900
9240
ENDCHAR
STARTCHAR Oslash
ENCODING 216
SWIDTH 600 0
DWIDTH 7 0
BBX 6 7 0 0
BITMAP
1BA0
34A0
6170
5630
6830
34A0
6F80
ENDCHAR
STARTCHAR Ugrave
ENCODING 217
SWIDTH 600 0
DWIDTH 7 0
BBX 5 10 1 0
BITMAP
2000
0800
0000
8080
8080
8080
8080
C180
D280
7E00
ENDCHAR
STARTCHAR Uacute
ENCODING 218
SWIDTH 600 0
DWIDTH 7 0
BBX 5 10 1 0
BITMAP
0500
1800
0000
8080
8080
8080
8080
C180
D280
7E00
ENDCHAR
STARTCHAR Ucircumflex
ENCODING 219
SWIDTH 600 0
DWIDTH 7 0
BBX 5 9 1 0
BITMAP
2C00
2200
8080
8080
8080
8080
C180
D280
7E00
ENDCHAR
STARTCHAR Udieresis
ENCODING 220
SWIDTH 600 0
DWIDTH 7 0
BBX 5 9 1 0
BITMAP
2200
0000
8080
8080
8080
8080
C180
D280
7E00
ENDCHAR
STARTCHAR Yacute
ENCODING 221
SWIDTH 600 0
DWIDTH 7 0
BBX 6 10 0 0
BITMAP
0140
0600
0000
6020
2490
1880
0A40
0600
0200
0200
ENDCHAR
STARTCHAR Thorn
ENCODING 222
SWIDTH 600 0
DWIDTH 7 0
BBX 5 7 1 0
BITMAP
C000
FF40
C1C0
C1C0
FE40
C000
C000
ENDCHAR
STARTCHAR germandbls
ENCODING 223
SWIDTH 600 0
DWIDTH 7 0
BBX 5 8 1 0
BITMAP
7D00
D300
C200
C800
CA00
C2C0
C480
CB80
ENDCHAR
STARTCHAR agrave
ENCODING 224
SWIDTH 600 0
DWIDTH 7 0
BBX 5 8 1 0
BITMAP
2400
0800
0000
6E00
5280
6F80
D180
BE80
ENDCHAR
STARTCHAR aacute
ENCODING 225
SWIDTH 600 0
DWIDTH 7 0
BBX 5 8 1 0
BITMAP
0600
0800
0000
6E00
5280
6F80
D180
BE80
ENDCHAR
STARTCHAR acircumflex
ENCODING 226
SWIDTH 600 0
DWIDTH 7 0
BBX 5 8 1 0
BITMAP
1D00
2200
0000
6E00
5280
6F80
D180
BE80
ENDCHAR
STARTCHAR atilde
ENCODING 227
SWIDTH 600 0
DWIDTH 7 0
BBX 5 8 1 0
BITMAP
3940
5700
0000
6E00
5280
6F80
D180
BE80
ENDCHAR
STARTCHAR adieresis
ENCODING 228
SWIDTH 600 0
DWIDTH 7 0
BBX 5 8 1 0
BITMAP
2200
0000
0000
6E00
5280
6F80
D180
BE80
ENDCHAR
STARTCHAR aring
ENCODING 229
SWIDTH 600 0
DWIDTH 7 0
BBX 5 9 1 0
BITMAP
1D00
2600
1D00
0000
6E00
5280
6F80
D180
BE80
ENDCHAR
STARTCHAR ae
ENCODING 230
SWIDTH 600 0
DWIDTH 7 0
BBX 7 5 0 0
BITMAP
7DE0
6F14
A3F8
9600
79F4
ENDCHAR
STARTCHAR ccedilla
ENCODING 231
SWIDTH 600 0
DWIDTH 7 0
BBX 5 9 1 -4
BITMAP
2F40
D040
C000
D040
6F40
0800
0900
0600
1D00
ENDCHAR
STARTCHAR egrave
ENCODING 232
SWIDTH 600 0
DWIDTH 7 0
BBX 6 8 0 0
BITMAP
0900
0200
0000
1B80
3460
7FF0
2410
1B90
ENDCHAR
STARTCHAR eacute
ENCODING 233
SWIDTH 600 0
DWIDTH 7 0
BBX 6 8 0 0
BITMAP
0180
0200
0000
1B80
3460
7FF0
2410
1B90
ENDCHAR
STARTCHAR ecircumflex
ENCODING 234
SWIDTH 600 0
DWIDTH 7 0
BBX 6 8 0 0
BITMAP
0740
0880
0000
1B80
3460
7FF0
2410
1B90
ENDCHAR
STARTCHAR edieresis
ENCODING 235
SWIDTH 600 0
DWIDTH 7 0
BBX 6 8 0 0
BITMAP
0880
0000
0000
1B80
3460
7FF0
2410
1B90
ENDCHAR
STARTCHAR igrave
ENCODING 236
SWIDTH 600 0
DWIDTH 7 0
BBX 4 8 1 0
BITMAP
14
09
00
FD
09
09
09
09
ENDCHAR
STARTCHAR iacute
ENCODING 237
SWIDTH 600 0
DWIDTH 7 0
BBX 4 8 1 0
BITMAP
02
09
00
FD
09
09
09
09
ENDCHAR
STARTCHAR icircumflex
ENCODING 238
SWIDTH 600 0
DWIDTH 7 0
BBX 5 8 1 0
BITMAP
0A00
2140
0000
FD00
0900
0900
0900
0900
ENDCHAR
STARTCHAR idieresis
ENCODING 239
SWIDTH 600 0
DWIDTH 7 0
BBX 5 8 1 0
BITMAP
2640
0000
0000
FD00
0900
0900
0900
0900
ENDCHAR
STARTCHAR eth
ENCODING 240
SWIDTH 600 0
DWIDTH 7 0
BBX 6 8 0 0
BITMAP
0950
0780
0490
1FA0
3070
6020
3460
1F80
ENDCHAR
STARTCHAR ntilde
ENCODING 241
SWIDTH 600 0
DWIDTH 7 0
BBX 5 8 1 0
BITMAP
3940
5700
0000
9F40
D180
C080
C080
C080
ENDCHAR
STARTCHAR ograve
ENCODING 242
SWIDTH 600 0
DWIDTH 7 0
BBX 6 8 0 0
BITMAP
0800
0600
0000
1F80
3460
6030
3460
1F80
ENDCHAR
STARTCHAR oacute
ENCODING 243
SWIDTH 600 0
DWIDTH 7 0
BBX 6 8 0 0
BITMAP
0140
0200
0000
1F80
3460
6030
3460
1F80
ENDCHAR
STARTCHAR ocircumflex
ENCODING 244
SWIDTH 600 0
DWIDTH 7 0
BBX 6 8 0 0
BITMAP
0B40
1480
0000
1F80
3460
6030
3460
1F80
ENDCHAR
STARTCHAR otilde
ENCODING 245
SWIDTH 600 0
DWIDTH 7 0
BBX 6 9 0 0
BITMAP
0400
1E80
2280
0000
1F80
3460
6030
3460
1F80
ENDCHAR
STARTCHAR odieresis
ENCODING 246
SWIDTH 600 0
DWIDTH 7 0
BBX 6 8 0 0
BITMAP
1880
0000
0000
1F80
3460
6030
3460
1F80
ENDCHAR
STARTCHAR divide
ENCODING 247
SWIDTH 600 0
DWIDTH 7 0
BBX 5 5 1 1
BITMAP
0800
0000
FF80
0000
0800
ENDCHAR
STARTCHAR oslash
ENCODING 248
SWIDTH 600 0
DWIDTH 7 0
BBX 6 5 0 0
BITMAP
1FA0
35A0
6630
38A0
2F80
ENDCHAR
STARTCHAR ugrave
ENCODING 249
SWIDTH 600 0
DWIDTH 7 0
BBX 5 8 1 0
BITMAP
2000
1800
0000
8180
8180
8180
C280
BD80
ENDCHAR
STARTCHAR uacute
ENCODING 250
SWIDTH 600 0
DWIDTH 7 0
BBX 5 8 1 0
BITMAP
0500
1800
0000
8180
8180
8180
C280
BD80
ENDCHAR
STARTCHAR ucircumflex
ENCODING 251
SWIDTH 600 0
DWIDTH 7 0
BBX 5 8 1 0
BITMAP
2C00
5200
0000
8180
8180
8180
C280
BD80
ENDCHAR
STARTCHAR udieresis
ENCODING 252
SWIDTH 600 0
DWIDTH 7 0
BBX 5 8 1 0
BITMAP
6200
0000
0000
8180
8180
8180
C280
BD80
ENDCHAR
STARTCHAR yacute
ENCODING 253
SWIDTH 600 0
DWIDTH 7 0
BBX 6 10 0 -2
BITMAP
0180
0200
0000
6020
2450
1880
0980
0700
0600
3800
ENDCHAR
STARTCHAR thorn
ENCODING 254
SWIDTH 600 0
DWIDTH 7 0
BBX 5 10 1 -2
BITMAP
C000
C000
C000
EE40
D180
C0C0
D180
EE00
C000
C000
ENDCHAR
STARTCHAR ydieresis
ENCODING 255
SWIDTH 600 0
DWIDTH 7 0
BBX 6 10 0 -2
BITMAP
1880
0000
0000
6020
2450
1880
0980
0700
0600
3800
ENDCHAR
STARTCHAR Amacron
ENCODING 256
SWIDTH 600 0
DWIDTH 7 0
BBX 6 9 0 0
BITMAP
1F80
0000
0700
0A40
0880
1480
2FD0
2060
5030
ENDCHAR
STARTCHAR amacron
ENCODING 257
SWIDTH 600 0
DWIDTH 7 0
BBX 5 7 1 0
BITMAP
3F00
0000
6E00
5280
6F80
D180
BE80
ENDCHAR
STARTCHAR Abreve
ENCODING 258
SWIDTH 600 0
DWIDTH 7 0
BBX 6 10 0 0
BITMAP
1880
0B40
0000
0700
0A40
0880
1480
2FD0
2060
5030
ENDCHAR
STARTCHAR abreve
ENCODING 259
SWIDTH 600 0
DWIDTH 7 0
BBX 5 8 1 0
BITMAP
2200
2E00
0000
6E00
5280
6F80
D180
BE80
ENDCHAR
STARTCHAR Aogonek
ENCODING 260
SWIDTH 600 0
DWIDTH 7 0
BBX 7 10 0 -3
BITMAP
0700
0A40
0880
1480
2FD0
2060
5030
0020
0050
0074
ENDCHAR
STARTCHAR aogonek
ENCODING 261
SWIDTH 600 0
DWIDTH 7 0
BBX 5 8 1 -3
BITMAP
6E00
5280
6F80
D180
BE80
0100
0200
0280
ENDCHAR
STARTCHAR Cacute
ENCODING 262
SWIDTH 600 0
DWIDTH 7 0
BBX 6 10 0 0
BITMAP
0080
0240
0000
0BD0
2810
3000
6000
3000
2820
0BD0
ENDCHAR
STARTCHAR cacute
ENCODING 263
SWIDTH 600 0
DWIDTH 7 0
BBX 5 8 1 0
BITMAP
0200
0900
0000
2F40
D040
C000
D040
6F40
ENDCHAR
STARTCHAR Ccircumflex
ENCODING 264
SWIDTH 600 0
DWIDTH 7 0
BBX 6 9 0 0
BITMAP
0280
0850
0BD0
2810
3000
6000
3000
2820
0BD0
ENDCHAR
STARTCHAR ccircumflex
ENCODING 265
SWIDTH 600 0
DWIDTH 7 0
BBX 5 8 1 0
BITMAP
0A00
2140
0000
2F40
D040
C000
D040
6F40
ENDCHAR
STARTCHAR Cdotaccent
ENCODING 266
SWIDTH 600 0
DWIDTH 7 0
BBX 6 9 0 0
BITMAP
0240
0000
0BD0
2810
3000
6000
3000
2820
0BD0
ENDCHAR
STARTCHAR cdotaccent
ENCODING 267
SWIDTH 600 0
DWIDTH 7 0
BBX 5 8 1 0
BITMAP
0900
0000
0000
2F40
D040
C000
D040
6F40
ENDCHAR
STARTCHAR Ccaron
ENCODING 268
SWIDTH 600 0
DWIDTH 7 0
BBX 6 10 0 0
BITMAP
0850
0280
0000
0BD0
2810
3000
6000
3000
2820
0BD0
ENDCHAR
STARTCHAR ccaron
ENCODING 269
SWIDTH 600 0
DWIDTH 7 0
BBX 5 8 1 0
BITMAP
2140
0A00
0000
2F40
D040
C000
D040
6F40
ENDCHAR
STARTCHAR Dcaron
ENCODING 270
SWIDTH 600 0
DWIDTH 7 0
BBX 5 10 1 0
BITMAP
2200
2C00
0000
FE00
C280
C0C0
C0C0
C0C0
C280
FE00
ENDCHAR
STARTCHAR dcaron
ENCODING 271
SWIDTH 600 0
DWIDTH 7 0
BBX 7 9 0 0
BITMAP
0008
0098
0098
0090
1F90
7090
6090
60D0
2E90
ENDCHAR
STARTCHAR Dcroat
ENCODING 272
SWIDTH 600 0
DWIDTH 7 0
BBX 6 7 0 0
BITMAP
3F80
30A0
3030
FD30
3030
30A0
3F80
ENDCHAR
STARTCHAR dcroat
ENCODING 273
SWIDTH 600 0
DWIDTH 7 0
BBX 7 8 0 0
BITMAP
0060
07F4
0060
1FA0
34A0
6060
30A0
1FA0
ENDCHAR
STARTCHAR Emacron
ENCODING 274
SWIDTH 600 0
DWIDTH 7 0
BBX 5 9 1 0
BITMAP
2F00
0000
BF80
9000
9000
BF40
9000
9000
BF80
ENDCHAR
STARTCHAR emacron
ENCODING 275
SWIDTH 600 0
DWIDTH 7 0
BBX 6 7 0 0
BITMAP
0FC0
0000
1B80
3460
7FF0
2410
1B90
ENDCHAR
STARTCHAR Ebreve
ENCODING 276
SWIDTH 600 0
DWIDTH 7 0
BBX 5 10 1 0
BITMAP
2200
1E00
0000
BF80
9000
9000
BF40
9000
9000
BF80
ENDCHAR
STARTCHAR ebreve
ENCODING 277
SWIDTH 600 0
DWIDTH 7 0
BBX 6 8 0 0
BITMAP
0880
0B80
0000
1B80
3460
7FF0
2410
1B90
ENDCHAR
STARTCHAR Edotaccent
ENCODING 278
SWIDTH 600 0
DWIDTH 7 0
BBX 5 9 1 0
BITMAP
0800
0000
BF80
9000
9000
BF40
9000
9000
BF80
ENDCHAR
STARTCHAR edotaccent
ENCODING 279
SWIDTH 600 0
DWIDTH 7 0
BBX 6 8 0 0
BITMAP
0300
0000
0000
1B80
3460
7FF0
2410
1B90
ENDCHAR
STARTCHAR Eogonek
ENCODING 280
SWIDTH 600 0
DWIDTH 7 0
BBX 5 10 1 -3
BITMAP
BF80
9000
9000
BF40
9000
9000
BF80
0100
0200
0280
ENDCHAR
STARTCHAR eogonek
ENCODING 281
SWIDTH 600 0
DWIDTH 7 0
BBX 6 8 0 -3
BITMAP
1B80
3460
7FF0
2410
1BD0
0040
0140
01D0
ENDCHAR
STARTCHAR Ecaron
ENCODING 282
SWIDTH 600 0
DWIDTH 7 0
BBX 5 10 1 0
BITMAP
2200
1D00
0000
BF80
9000
9000
BF40
9000
9000
BF80
ENDCHAR
STARTCHAR ecaron
ENCODING 283
SWIDTH 600 0
DWIDTH 7 0
BBX 6 8 0 0
BITMAP
0880
0740
0000
1B80
3460
7FF0
2410
1B90
ENDCHAR
STARTCHAR Gcircumflex
ENCODING 284
SWIDTH 600 0
DWIDTH 7 0
BBX 6 9 0 0
BITMAP
0740
0880
0BD0
3450
6000
61F0
6030
3430
0BD0
ENDCHAR
STARTCHAR gcircumflex
ENCODING 285
SWIDTH 600 0
DWIDTH 7 0
BBX 6 10 1 -2
BITMAP
1D00
2200
0000
7FD0
D200
BB00
9400
BF80
80C0
BE40
ENDCHAR
STARTCHAR Gbreve
ENCODING 286
SWIDTH 600 0
DWIDTH 7 0
BBX 6 10 0 0
BITMAP
0880
0780
0000
0BD0
3450
6000
61F0
6030
3430
0BD0
ENDCHAR
STARTCHAR gbreve
ENCODING 287
SWIDTH 600 0
DWIDTH 7 0
BBX 6 10 1 -2
BITMAP
6200
2D00
0000
7FD0
D200
BB00
9400
BF80
80C0
BE40
ENDCHAR
STARTCHAR Gdotaccent
ENCODING 288
SWIDTH 600 0
DWIDTH 7 0
BBX 6 9 0 0
BITMAP
0200
0000
0BD0
3450
6000
61F0
6030
3430
0BD0
ENDCHAR
STARTCHAR gdotaccent
ENCODING 289
SWIDTH 600 0
DWIDTH 7 0
BBX 6 10 1 -2
BITMAP
1C00
0000
0000
7FD0
D200
BB00
9400
BF80
80C0
BE40
ENDCHAR
STARTCHAR uni0122
ENCODING 290
SWIDTH 600 0
DWIDTH 7 0
BBX 6 10 0 -3
BITMAP
0BD0
3450
6000
61F0
6030
3430
0BD0
0240
0140
0600
ENDCHAR
STARTCHAR uni0123
ENCODING 291
SWIDTH 600 0
DWIDTH 7 0
BBX 6 10 1 -2
BITMAP
1D00
1C00
0000
7FD0
D200
BB00
9400
BF80
80C0
BE40
ENDCHAR
STARTCHAR Hcircumflex
ENCODING 292
SWIDTH 600 0
DWIDTH 7 0
BBX 5 9 1 0
BITMAP
2C00
2200
8180
8180
8180
FF80
8180
8180
8180
ENDCHAR
STARTCHAR hcircumflex
ENCODING 293
SWIDTH 600 0
DWIDTH 7 0
BBX 6 10 0 0
BITMAP
7400
8800
3000
3000
3000
37D0
3460
3020
3020
3020
ENDCHAR
STARTCHAR Hbar
ENCODING 294
SWIDTH 600 0
DWIDTH 7 0
BBX 7 7 0 0
BITMAP
2060
FFF4
2060
3FE0
2060
2060
2060
ENDCHAR
STARTCHAR hbar
ENCODING 295
SWIDTH 600 0
DWIDTH 7 0
BBX 6 8 0 0
BITMAP
3000
BF40
3000
37D0
3460
3020
3020
3020
ENDCHAR
STARTCHAR Itilde
ENCODING 296
SWIDTH 600 0
DWIDTH 7 0
BBX 5 10 1 0
BITMAP
7540
9A00
0000
FF80
0800
0800
0800
0800
0800
FF80
ENDCHAR
STARTCHAR itilde
ENCODING 297
SWIDTH 600 0
DWIDTH 7 0
BBX 5 8 1 0
BITMAP
2D80
2740
0000
FD00
0900
0900
0900
0900
ENDCHAR
STARTCHAR Imacron
ENCODING 298
SWIDTH 600 0
DWIDTH 7 0
BBX 5 9 1 0
BITMAP
7E00
0000
FF80
0800
0800
0800
0800
0800
FF80
ENDCHAR
STARTCHAR imacron
ENCODING 299
SWIDTH 600 0
DWIDTH 7 0
BBX 5 7 1 0
BITMAP
2F40
0000
FD00
0900
0900
0900
0900
ENDCHAR
STARTCHAR Ibreve
ENCODING 300
SWIDTH 600 0
DWIDTH 7 0
BBX 5 10 1 0
BITMAP
6200
2D00
0000
FF80
0800
0800
0800
0800
0800
FF80
ENDCHAR
STARTCHAR ibreve
ENCODING 301
SWIDTH 600 0
DWIDTH 7 0
BBX 5 8 1 0
BITMAP
2140
1E00
0000
FD00
0900
0900
0900
0900
ENDCHAR
STARTCHAR Iogonek
ENCODING 302
SWIDTH 600 0
DWIDTH 7 0
BBX 5 10 1 -3
BITMAP
FF80
0800
0800
0800
0800
0800
FF80
1400
2000
1D00
ENDCHAR
STARTCHAR iogonek
ENCODING 303
SWIDTH 600 0
DWIDTH 7 0
BBX 4 11 1 -3
BITMAP
09
00
00
FD
09
09
09
09
08
18
0E
ENDCHAR
STARTCHAR Idotaccent
ENCODING 304
SWIDTH 600 0
DWIDTH 7 0
BBX 5 9 1 0
BITMAP
1800
0000
FF80
0800
0800
0800
0800
0800
FF80
ENDCHAR
STARTCHAR dotlessi
ENCODING 305
SWIDTH 600 0
DWIDTH 7 0
BBX 4 5 1 0
BITMAP
FD
09
09
09
09
ENDCHAR
STARTCHAR IJ
ENCODING 306
SWIDTH 600 0
DWIDTH 7 0
BBX 5 9 1 -2
BITMAP
8240
8240
8240
8240
8240
8240
8240
0240
0E00
ENDCHAR
STARTCHAR ij
ENCODING 307
SWIDTH 600 0
DWIDTH 7 0
BBX 5 10 1 -2
BITMAP
9180
0000
0000
8180
8180
8180
8180
8180
0180
0B40
ENDCHAR
STARTCHAR Jcircumflex
ENCODING 308
SWIDTH 600 0
DWIDTH 7 0
BBX 5 9 1 0
BITMAP
1D00
2200
BF40
0140
0140
0140
0240
8240
7E00
ENDCHAR
STARTCHAR jcircumflex
ENCODING 309
SWIDTH 600 0
DWIDTH 7 0
BBX 6 10 0 -2
BITMAP
0280
0850
0000
3F40
0240
0240
0240
0240
0240
7E00
ENDCHAR
STARTCHAR uni0136
ENCODING 310
SWIDTH 600 0
DWIDTH 7 0
BBX 5 10 1 -3
BITMAP
C180
C600
CC00
E900
D300
C240
C0C0
0900
0600
1900
ENDCHAR
STARTCHAR uni0137
ENCODING 311
SWIDTH 600 0
DWIDTH 7 0
BBX 5 11 1 -3
BITMAP
8000
8000
8000
8240
8900
A900
9240
8080
0900
0600
1800
ENDCHAR
STARTCHAR kgreenlandic
ENCODING 312
SWIDTH 600 0
DWIDTH 7 0
BBX 5 5 1 0
BITMAP
8240
8900
A900
9200
8080
ENDCHAR
STARTCHAR Lacute
ENCODING 313
SWIDTH 600 0
DWIDTH 7 0
BBX 5 10 1 0
BITMAP
2400
5000
0000
9000
9000
9000
9000
9000
9000
BFC0
ENDCHAR
STARTCHAR lacute
ENCODING 314
SWIDTH 600 0
DWIDTH 7 0
BBX 6 11 0 0
BITMAP
0240
0500
0000
7E00
0600
0600
0600
0600
0600
0600
02E0
ENDCHAR
STARTCHAR uni013B
ENCODING 315
SWIDTH 600 0
DWIDTH 7 0
BBX 5 10 1 -3
BITMAP
9000
9000
9000
9000
9000
9000
BFC0
0900
0600
1D00
ENDCHAR
STARTCHAR uni013C
ENCODING 316
SWIDTH 600 0
DWIDTH 7 0
BBX 6 11 0 -3
BITMAP
7E00
0600
0600
0600
0600
0600
0600
02E0
0180
0080
0280
ENDCHAR
STARTCHAR Lcaron
ENCODING 317
SWIDTH 600 0
DWIDTH 7 0
BBX 5 9 1 0
BITMAP
0200
0200
9200
9000
9000
9000
9000
9000
BFC0
ENDCHAR
STARTCHAR lcaron
ENCODING 318
SWIDTH 600 0
DWIDTH 7 0
BBX 6 9 0 0
BITMAP
0090
7E90
0680
0600
0600
0600
0600
0600
02E0
ENDCHAR
STARTCHAR Ldot
ENCODING 319
SWIDTH 600 0
DWIDTH 7 0
BBX 5 7 1 0
BITMAP
9000
9000
9180
9000
9000
9000
BFC0
ENDCHAR
STARTCHAR ldot
ENCODING 320
SWIDTH 600 0
DWIDTH 7 0
BBX 7 8 0 0
BITMAP
BD00
0900
0900
0918
0900
0900
0900
07D0
ENDCHAR
STARTCHAR Lslash
ENCODING 321
SWIDTH 600 0
DWIDTH 7 0
BBX 6 7 0 0
BITMAP
2400
2400
2580
2900
A400
2400
2FF0
ENDCHAR
STARTCHAR lslash
ENCODING 322
SWIDTH 600 0
DWIDTH 7 0
BBX 6 8 0 0
BITMAP
7E00
0600
0690
0600
1A00
0600
0600
02E0
ENDCHAR
STARTCHAR Nacute
ENCODING 323
SWIDTH 600 0
DWIDTH 7 0
BBX 5 10 1 0
BITMAP
0500
0800
0000
D180
E180
A580
9980
8980
8280
8280
ENDCHAR
STARTCHAR nacute
ENCODING 324
SWIDTH 600 0
DWIDTH 7 0
BBX 5 8 1 0
BITMAP
0600
0800
0000
9F40
D180
C080
C080
C080
ENDCHAR
STARTCHAR uni0145
ENCODING 325
SWIDTH 600 0
DWIDTH 7 0
BBX 5 10 1 -3
BITMAP
D180
E180
A580
9980
8980
8280
8280
1800
0800
2800
ENDCHAR
STARTCHAR uni0146
ENCODING 326
SWIDTH 600 0
DWIDTH 7 0
BBX 5 8 1 -3
BITMAP
9F40
D180
C080
C080
C080
0800
0900
2800
ENDCHAR
STARTCHAR Ncaron
ENCODING 327
SWIDTH 600 0
DWIDTH 7 0
BBX 5 10 1 0
BITMAP
2200
1D00
0000
D180
E180
A580
9980
8980
8280
8280
ENDCHAR
STARTCHAR ncaron
ENCODING 328
SWIDTH 600 0
DWIDTH 7 0
BBX 5 8 1 0
BITMAP
2200
1D00
0000
9F40
D180
C080
C080
C080
ENDCHAR
STARTCHAR napostrophe
ENCODING 329
SWIDTH 600 0
DWIDTH 7 0
BBX 7 8 0 0
BITMAP
D000
E000
5000
89F0
0E28
0C18
0C18
0C18
ENDCHAR
STARTCHAR Eng
ENCODING 330
SWIDTH 600 0
DWIDTH 7 0
BBX 5 7 1 0
BITMAP
EE00
D180
C0C0
C0C0
C0C0
C180
CB40
ENDCHAR
STARTCHAR eng
ENCODING 331
SWIDTH 600 0
DWIDTH 7 0
BBX 5 7 1 -2
BITMAP
9F40
D180
C080
C080
C080
0180
0740
ENDCHAR
STARTCHAR Omacron
ENCODING 332
SWIDTH 600 0
DWIDTH 7 0
BBX 6 9 0 0
BITMAP
1F80
0000
1B80
34A0
6030
5030
6030
34A0
1B80
ENDCHAR
STARTCHAR omacron
ENCODING 333
SWIDTH 600 0
DWIDTH 7 0
BBX 6 7 0 0
BITMAP
0F80
0000
1F80
3460
6030
3460
1F80
ENDCHAR
STARTCHAR Obreve
ENCODING 334
SWIDTH 600 0
DWIDTH 7 0
BBX 6 10 0 0
BITMAP
1880
0B40
0000
1B80
34A0
6030
5030
6030
34A0
1B80
ENDCHAR
STARTCHAR obreve
ENCODING 335
SWIDTH 600 0
DWIDTH 7 0
BBX 6 8 0 0
BITMAP
1480
0B40
0000
1F80
3460
6030
3460
1F80
ENDCHAR
STARTCHAR Ohungarumlaut
ENCODING 336
SWIDTH 600 0
DWIDTH 7 0
BBX 6 10 0 0
BITMAP
0550
0880
0000
1B80
34A0
6030
5030
6030
34A0
1B80
ENDCHAR
STARTCHAR ohungarumlaut
ENCODING 337
SWIDTH 600 0
DWIDTH 7 0
BBX 6 8 0 0
BITMAP
0150
0880
0000
1F80
3460
6030
3460
1F80
ENDCHAR
STARTCHAR OE
ENCODING 338
SWIDTH 600 0
DWIDTH 7 0
BBX 7 7 0 0
BITMAP
1FF4
7640
9240
92F0
9240
7640
1FF8
ENDCHAR
STARTCHAR oe
ENCODING 339
SWIDTH 600 0
DWIDTH 7 0
BBX 7 5 0 0
BITMAP
7DE0
9714
C3F8
9740
7DF4
ENDCHAR
STARTCHAR Racute
ENCODING 340
SWIDTH 600 0
DWIDTH 7 0
BBX 5 10 1 0
BITMAP
0500
0800
0000
FE40
C180
C180
FE40
C600
C240
C180
ENDCHAR
STARTCHAR racute
ENCODING 341
SWIDTH 600 0
DWIDTH 7 0
BBX 5 8 1 0
BITMAP
0200
0900
0000
5B80
7400
6000
6000
6000
ENDCHAR
STARTCHAR uni0156
ENCODING 342
SWIDTH 600 0
DWIDTH 7 0
BBX 5 10 1 -3
BITMAP
FE40
C180
C180
FE40
C600
C240
C180
0C00
0900
1800
ENDCHAR
STARTCHAR uni0157
ENCODING 343
SWIDTH 600 0
DWIDTH 7 0
BBX 5 8 1 -3
BITMAP
5B80
7400
6000
6000
6000
6000
3000
9000
ENDCHAR
STARTCHAR Rcaron
ENCODING 344
SWIDTH 600 0
DWIDTH 7 0
BBX 5 10 1 0
BITMAP
2200
1D00
0000
FE40
C180
C180
FE40
C600
C240
C180
ENDCHAR
STARTCHAR rcaron
ENCODING 345
SWIDTH 600 0
DWIDTH 7 0
BBX 5 8 1 0
BITMAP
2140
0A00
0000
5B80
7400
6000
6000
6000
ENDCHAR
STARTCHAR Sacute
ENCODING 346
SWIDTH 600 0
DWIDTH 7 0
BBX 5 10 1 0
BITMAP
0600
0800
0000
6E00
D140
A000
1E00
0180
9180
7E40
ENDCHAR
STARTCHAR sacute
ENCODING 347
SWIDTH 600 0
DWIDTH 7 0
BBX 5 8 1 0
BITMAP
0600
0800
0000
7E00
9100
2A40
8180
7E40
ENDCHAR
STARTCHAR Scircumflex
ENCODING 348
SWIDTH 600 0
DWIDTH 7 0
BBX 5 9 1 0
BITMAP
1D00
2200
6E00
D140
A000
1E00
0180
9180
7E40
ENDCHAR
STARTCHAR scircumflex
ENCODING 349
SWIDTH 600 0
DWIDTH 7 0
BBX 5 8 1 0
BITMAP
2D00
2200
0000
7E00
9100
2A40
8180
7E40
ENDCHAR
STARTCHAR uni015E
ENCODING 350
SWIDTH 600 0
DWIDTH 7 0
BBX 5 11 1 -4
BITMAP
6E00
D140
A000
1E00
0180
9180
7E40
0800
0C00
0900
1800
ENDCHAR
STARTCHAR uni015F
ENCODING 351
SWIDTH 600 0
DWIDTH 7 0
BBX 5 9 1 -4
BITMAP
7E00
9100
2A40
8180
7E40
0800
0C00
0900
2800
ENDCHAR
STARTCHAR Scaron
ENCODING 352
SWIDTH 600 0
DWIDTH 7 0
BBX 5 10 1 0
BITMAP
2200
1D00
0000
6E00
D140
A000
1E00
0180
9180
7E40
ENDCHAR
STARTCHAR scaron
ENCODING 353
SWIDTH 600 0
DWIDTH 7 0
BBX 5 8 1 0
BITMAP
2200
2D00
0000
7E00
9100
2A40
8180
7E40
ENDCHAR
STARTCHAR uni0162
ENCODING 354
SWIDTH 600 0
DWIDTH 7 0
BBX 6 11 0 -4
BITMAP
BFF0
0200
0200
0200
0200
0200
0200
0100
0700
0200
0A00
ENDCHAR
STARTCHAR uni0163
ENCODING 355
SWIDTH 600 0
DWIDTH 7 0
BBX 6 11 0 -4
BITMAP
0900
0900
7FE0
0900
0900
0900
07E0
0040
01C0
0080
0280
ENDCHAR
STARTCHAR Tcaron
ENCODING 356
SWIDTH 600 0
DWIDTH 7 0
BBX 6 10 0 0
BITMAP
0880
0B00
0000
BFF0
0200
0200
0200
0200
0200
0200
ENDCHAR
STARTCHAR tcaron
ENCODING 357
SWIDTH 600 0
DWIDTH 7 0
BBX 6 9 0 0
BITMAP
0090
0080
0980
0900
7FE0
0900
0900
0900
07E0
ENDCHAR
STARTCHAR Tbar
ENCODING 358
SWIDTH 600 0
DWIDTH 7 0
BBX 6 7 0 0
BITMAP
BFF0
0200
0200
2FD0
0200
0200
0200
ENDCHAR
STARTCHAR tbar
ENCODING 359
SWIDTH 600 0
DWIDTH 7 0
BBX 6 7 0 0
BITMAP
0400
0900
7FE0
0900
7FE0
0900
07E0
ENDCHAR
STARTCHAR Utilde
ENCODING 360
SWIDTH 600 0
DWIDTH 7 0
BBX 5 10 1 0
BITMAP
7540
9A00
0000
8080
8080
8080
8080
C180
D280
7E00
ENDCHAR
STARTCHAR utilde
ENCODING 361
SWIDTH 600 0
DWIDTH 7 0
BBX 5 9 1 0
BITMAP
1000
7600
8A00
0000
8180
8180
8180
C280
BD80
ENDCHAR
STARTCHAR Umacron
ENCODING 362
SWIDTH 600 0
DWIDTH 7 0
BBX 5 9 1 0
BITMAP
7E00
0000
8080
8080
8080
8080
C180
D280
7E00
ENDCHAR
STARTCHAR umacron
ENCODING 363
SWIDTH 600 0
DWIDTH 7 0
BBX 5 7 1 0
BITMAP
7E00
0000
8180
8180
8180
C280
BD80
ENDCHAR
STARTCHAR Ubreve
ENCODING 364
SWIDTH 600 0
DWIDTH 7 0
BBX 5 10 1 0
BITMAP
6200
2D00
0000
8080
8080
8080
8080
C180
D280
7E00
ENDCHAR
STARTCHAR ubreve
ENCODING 365
SWIDTH 600 0
DWIDTH 7 0
BBX 5 8 1 0
BITMAP
5200
2D00
0000
8180
8180
8180
C280
BD80
ENDCHAR
STARTCHAR Uring
ENCODING 366
SWIDTH 600 0
DWIDTH 7 0
BBX 5 10 1 0
BITMAP
1C00
2500
1C00
8080
8080
8080
8080
C180
D280
7E00
ENDCHAR
STARTCHAR uring
ENCODING 367
SWIDTH 600 0
DWIDTH 7 0
BBX 5 9 1 0
BITMAP
2C00
2500
2D00
0000
8180
8180
8180
C280
BD80
ENDCHAR
STARTCHAR Uhungarumlaut
ENCODING 368
SWIDTH 600 0
DWIDTH 7 0
BBX 5 10 1 0
BITMAP
1540
2200
0000
8080
8080
8080
8080
C180
D280
7E00
ENDCHAR
STARTCHAR uhungarumlaut
ENCODING 369
SWIDTH 600 0
DWIDTH 7 0
BBX 5 8 1 0
BITMAP
1600
2200
0000
8180
8180
8180
C280
BD80
ENDCHAR
STARTCHAR Uogonek
ENCODING 370
SWIDTH 600 0
DWIDTH 7 0
BBX 5 10 1 -3
BITMAP
8080
8080
8080
8080
C180
D280
7E00
1400
2400
1D00
ENDCHAR
STARTCHAR uogonek
ENCODING 371
SWIDTH 600 0
DWIDTH 7 0
BBX 5 8 1 -3
BITMAP
8180
8180
8180
C280
BD80
0100
0600
0380
ENDCHAR
STARTCHAR Wcircumflex
ENCODING 372
SWIDTH 600 0
DWIDTH 7 0
BBX 7 9 0 0
BITMAP
0B00
0880
9024
9024
9720
6A70
69A0
28A0
34A0
ENDCHAR
STARTCHAR wcircumflex
ENCODING 373
SWIDTH 600 0
DWIDTH 7 0
BBX 7 8 0 0
BITMAP
0B40
1480
0000
8214
9724
6960
29A0
38D0
ENDCHAR
STARTCHAR Ycircumflex
ENCODING 374
SWIDTH 600 0
DWIDTH 7 0
BBX 6 9 0 0
BITMAP
0B00
0880
6020
2490
1880
0A40
0600
0200
0200
ENDCHAR
STARTCHAR ycircumflex
ENCODING 375
SWIDTH 600 0
DWIDTH 7 0
BBX 6 10 0 -2
BITMAP
0740
0880
0000
6020
2450
1880
0980
0700
0600
3800
ENDCHAR
STARTCHAR Ydieresis
ENCODING 376
SWIDTH 600 0
DWIDTH 7 0
BBX 6 9 0 0
BITMAP
0880
0000
6020
2490
1880
0A40
0600
0200
0200
ENDCHAR
STARTCHAR Zacute
ENCODING 377
SWIDTH 600 0
DWIDTH 7 0
BBX 6 10 0 0
BITMAP
0180
0200
0000
3FF0
0090
0180
0600
0800
2400
7FF0
ENDCHAR
STARTCHAR zacute
ENCODING 378
SWIDTH 600 0
DWIDTH 7 0
BBX 6 8 0 0
BITMAP
0180
0200
0000
2FE0
0180
0600
1800
7FF0
ENDCHAR
STARTCHAR Zdotaccent
ENCODING 379
SWIDTH 600 0
DWIDTH 7 0
BBX 6 9 0 0
BITMAP
0300
0000
3FF0
0090
0180
0600
0800
2400
7FF0
ENDCHAR
STARTCHAR zdotaccent
ENCODING 380
SWIDTH 600 0
DWIDTH 7 0
BBX 6 8 0 0
BITMAP
0300
0000
0000
2FE0
0180
0600
1800
7FF0
ENDCHAR
STARTCHAR Zcaron
ENCODING 381
SWIDTH 600 0
DWIDTH 7 0
BBX 6 10 0 0
BITMAP
0880
0740
0000
3FF0
0090
0180
0600
0800
2400
7FF0
ENDCHAR
STARTCHAR zcaron
ENCODING 382
SWIDTH 600 0
DWIDTH 7 0
BBX 6 8 0 0
BITMAP
0880
0740
0000
2FE0
0180
0600
1800
7FF0
ENDCHAR
STARTCHAR longs
ENCODING 383
SWIDTH 600 0
DWIDTH 7 0
BBX 6 8 1 0
BITMAP
0BD0
1800
1800
B800
1800
1800
1800
1800
ENDCHAR
STARTCHAR uni0180
ENCODING 384
SWIDTH 600 0
DWIDTH 7 0
BBX 6 8 0 0
BITMAP
3000
BF40
3000
3B90
3460
3030
3460
3B80
ENDCHAR
STARTCHAR uni018A
ENCODING 394
SWIDTH 600 0
DWIDTH 7 0
BBX 7 7 0 0
BITMAP
2F80
6960
8930
9924
1930
0960
0B80
ENDCHAR
STARTCHAR uni018F
ENCODING 399
SWIDTH 600 0
DWIDTH 7 0
BBX 6 7 0 0
BITMAP
0B80
14A0
0030
7FF0
6030
24A0
0B80
ENDCHAR
STARTCHAR uni0192
ENCODING 402
SWIDTH 600 0
DWIDTH 7 0
BBX 6 8 0 -1
BITMAP
01E0
0300
1FD0
0600
0600
0500
0900
7800
ENDCHAR
STARTCHAR uni0193
ENCODING 403
SWIDTH 600 0
DWIDTH 7 0
BBX 7 9 0 0
BITMAP
0034
0050
0BE0
3450
6000
61F0
6030
3430
0BD0
ENDCHAR
STARTCHAR Ohorn
ENCODING 416
SWIDTH 600 0
DWIDTH 7 0
BBX 6 9 0 0
BITMAP
0020
0020
1BA0
34A0
6030
5030
6030
34A0
1B80
ENDCHAR
STARTCHAR ohorn
ENCODING 417
SWIDTH 600 0
DWIDTH 7 0
BBX 6 7 0 0
BITMAP
0020
0020
1FD0
3460
6030
3460
1F80
ENDCHAR
STARTCHAR Uhorn
ENCODING 431
SWIDTH 600 0
DWIDTH 7 0
BBX 6 9 1 0
BITMAP
0020
0030
80D0
8080
8080
8080
C180
D280
7E00
ENDCHAR
STARTCHAR uhorn
ENCODING 432
SWIDTH 600 0
DWIDTH 7 0
BBX 6 7 1 0
BITMAP
0050
0060
81D0
8180
8180
C280
BD80
ENDCHAR
STARTCHAR uni01C2
ENCODING 450
SWIDTH 600 0
DWIDTH 7 0
BBX 5 10 1 -2
BITMAP
0800
0800
0800
0800
FF80
0800
FF80
0800
0800
0800
ENDCHAR
STARTCHAR uni01CD
ENCODING 461
SWIDTH 600 0
DWIDTH 7 0
BBX 6 10 0 0
BITMAP
0880
0B00
0000
0700
0A40
0880
1480
2FD0
2060
5030
ENDCHAR
STARTCHAR uni01CE
ENCODING 462
SWIDTH 600 0
DWIDTH 7 0
BBX 5 8 1 0
BITMAP
2200
1D00
0000
6E00
5280
6F80
D180
BE80
ENDCHAR
STARTCHAR uni01CF
ENCODING 463
SWIDTH 600 0
DWIDTH 7 0
BBX 5 10 1 0
BITMAP
2200
2C00
0000
FF80
0800
0800
0800
0800
0800
FF80
ENDCHAR
STARTCHAR uni01D0
ENCODING 464
SWIDTH 600 0
DWIDTH 7 0
BBX 5 8 1 0
BITMAP
2140
0A00
0000
FD00
0900
0900
0900
0900
ENDCHAR
STARTCHAR uni01D1
ENCODING 465
SWIDTH 600 0
DWIDTH 7 0
BBX 6 10 0 0
BITMAP
0880
0B00
0000
1B80
34A0
6030
5030
6030
34A0
1B80
ENDCHAR
STARTCHAR uni01D2
ENCODING 466
SWIDTH 600 0
DWIDTH 7 0
BBX 6 8 0 0
BITMAP
1480
0B40
0000
1F80
3460
6030
3460
1F80
ENDCHAR
STARTCHAR uni01D3
ENCODING 467
SWIDTH 600 0
DWIDTH 7 0
BBX 5 10 1 0
BITMAP
2200
2C00
0000
8080
8080
8080
8080
C180
D280
7E00
ENDCHAR
STARTCHAR uni01D4
ENCODING 468
SWIDTH 600 0
DWIDTH 7 0
BBX 5 8 1 0
BITMAP
5200
2C00
0000
8180
8180
8180
C280
BD80
ENDCHAR
STARTCHAR uni01D5
ENCODING 469
SWIDTH 600 0
DWIDTH 7 0
BBX 5 11 1 0
BITMAP
7E00
0000
6200
0000
8080
8080
8080
8080
C180
D280
7E00
ENDCHAR
STARTCHAR uni01D6
ENCODING 470
SWIDTH 600 0
DWIDTH 7 0
BBX 5 9 1 0
BITMAP
7E00
0000
6200
0000
8180
8180
8180
C280
BD80
ENDCHAR
STARTCHAR uni01D7
ENCODING 471
SWIDTH 600 0
DWIDTH 7 0
BBX 5 11 1 0
BITMAP
0500
0800
6200
0000
8080
8080
8080
8080
C180
D280
7E00
ENDCHAR
STARTCHAR uni01D8
ENCODING 472
SWIDTH 600 0
DWIDTH 7 0
BBX 5 10 1 0
BITMAP
0800
0400
0000
6200
0000
8180
8180
8180
C280
BD80
ENDCHAR
STARTCHAR uni01D9
ENCODING 473
SWIDTH 600 0
DWIDTH 7 0
BBX 5 10 1 0
BITMAP
2900
6200
0000
8080
8080
8080
8080
C180
D280
7E00
ENDCHAR
STARTCHAR uni01DA
ENCODING 474
SWIDTH 600 0
DWIDTH 7 0
BBX 5 9 1 0
BITMAP
2900
0000
6200
0000
8180
8180
8180
C280
BD80
ENDCHAR
STARTCHAR uni01DB
ENCODING 475
SWIDTH 600 0
DWIDTH 7 0
BBX 5 11 1 0
BITMAP
2000
0400
6200
0000
8080
8080
8080
8080
C180
D280
7E00
ENDCHAR
STARTCHAR uni01DC
ENCODING 476
SWIDTH 600 0
DWIDTH 7 0
BBX 5 10 1 0
BITMAP
1000
0400
0000
6200
0000
8180
8180
8180
C280
BD80
ENDCHAR
STARTCHAR uni01E2
ENCODING 482
SWIDTH 600 0
DWIDTH 7 0
BBX 7 9 0 0
BITMAP
03F0
0000
07F4
0A40
0A40
26F0
3F40
6240
82F8
ENDCHAR
STARTCHAR uni01E3
ENCODING 483
SWIDTH 600 0
DWIDTH 7 0
BBX 7 7 0 0
BITMAP
0FC0
0000
7DE0
6F14
A3F8
9600
79F4
ENDCHAR
STARTCHAR Gcaron
ENCODING 486
SWIDTH 600 0
DWIDTH 7 0
BBX 6 10 0 0
BITMAP
0880
0740
0000
0BD0
3450
6000
61F0
6030
3430
0BD0
ENDCHAR
STARTCHAR gcaron
ENCODING 487
SWIDTH 600 0
DWIDTH 7 0
BBX 6 10 1 -2
BITMAP
2200
1D00
0000
7FD0
D200
BB00
9400
BF80
80C0
BE40
ENDCHAR
STARTCHAR uni01EA
ENCODING 490
SWIDTH 600 0
DWIDTH 7 0
BBX 6 10 0 -3
BITMAP
1B80
34A0
6030
5030
6030
34A0
1B80
0500
0900
0740
ENDCHAR
STARTCHAR uni01EB
ENCODING 491
SWIDTH 600 0
DWIDTH 7 0
BBX 6 8 0 -3
BITMAP
1F80
3460
6030
3460
1F80
0100
0500
0740
ENDCHAR
STARTCHAR uni01F4
ENCODING 500
SWIDTH 600 0
DWIDTH 7 0
BBX 6 10 0 0
BITMAP
0080
0200
0000
0BD0
3450
6000
61F0
6030
3430
0BD0
ENDCHAR
STARTCHAR uni01F5
ENCODING 501
SWIDTH 600 0
DWIDTH 7 0
BBX 6 10 1 -2
BITMAP
0600
0800
0000
7FD0
D200
BB00
9400
BF80
80C0
BE40
ENDCHAR
STARTCHAR uni01F8
ENCODING 504
SWIDTH 600 0
DWIDTH 7 0
BBX 5 10 1 0
BITMAP
2400
0800
0000
D180
E180
A580
9980
8980
8280
8280
ENDCHAR
STARTCHAR uni01F9
ENCODING 505
SWIDTH 600 0
DWIDTH 7 0
BBX 5 8 1 0
BITMAP
2400
0800
0000
9F40
D180
C080
C080
C080
ENDCHAR
STARTCHAR Aringacute
ENCODING 506
SWIDTH 600 0
DWIDTH 7 0
BBX 6 10 0 0
BITMAP
0140
0500
0B40
0700
0A40
0980
1480
2FD0
2060
5030
ENDCHAR
STARTCHAR aringacute
ENCODING 507
SWIDTH 600 0
DWIDTH 7 0
BBX 5 9 1 0
BITMAP
0500
1100
1D00
0000
6E00
5180
0480
C280
BE80
ENDCHAR
STARTCHAR AEacute
ENCODING 508
SWIDTH 600 0
DWIDTH 7 0
BBX 7 10 0 0
BITMAP
0020
0080
0000
07F4
0A40
0A40
26F0
3F40
6240
82F8
ENDCHAR
STARTCHAR aeacute
ENCODING 509
SWIDTH 600 0
DWIDTH 7 0
BBX 7 8 0 0
BITMAP
0180
0200
0000
7DE0
6F14
A3F8
9600
79F4
ENDCHAR
STARTCHAR Oslashacute
ENCODING 510
SWIDTH 600 0
DWIDTH 7 0
BBX 6 10 0 0
BITMAP
0140
0600
0000
1BA0
34A0
6170
5630
6830
34A0
6F80
ENDCHAR
STARTCHAR oslashacute
ENCODING 511
SWIDTH 600 0
DWIDTH 7 0
BBX 6 8 0 0
BITMAP
0140
0200
0000
1FA0
35A0
6630
38A0
2F80
ENDCHAR
STARTCHAR uni0218
ENCODING 536
SWIDTH 600 0
DWIDTH 7 0
BBX 5 10 1 -3
BITMAP
6E00
D140
A000
1E00
0180
9180
7E40
0800
0900
2800
ENDCHAR
STARTCHAR uni0219
ENCODING 537
SWIDTH 600 0
DWIDTH 7 0
BBX 5 8 1 -3
BITMAP
7E00
9100
2A40
8180
7E40
0800
0900
2800
ENDCHAR
STARTCHAR uni021A
ENCODING 538
SWIDTH 600 0
DWIDTH 7 0
BBX 6 10 0 -3
BITMAP
BFF0
0200
0200
0200
0200
0200
0200
0600
0200
0A00
ENDCHAR
STARTCHAR uni021B
ENCODING 539
SWIDTH 600 0
DWIDTH 7 0
BBX 6 10 0 -3
BITMAP
0900
0900
7FE0
0900
0900
0900
07E0
0180
00C0
0240
ENDCHAR
STARTCHAR uni0237
ENCODING 567
SWIDTH 600 0
DWIDTH 7 0
BBX 5 7 0 -2
BITMAP
3F40
0240
0240
0240
0240
0240
7E00
ENDCHAR
STARTCHAR uni0243
ENCODING 579
SWIDTH 600 0
DWIDTH 7 0
BBX 6 7 0 0
BITMAP
3FD0
3060
3FC0
3060
BE30
3070
3F90
ENDCHAR
STARTCHAR uni0250
ENCODING 592
SWIDTH 600 0
DWIDTH 7 0
BBX 5 5 1 0
BITMAP
EF40
D580
FE00
D140
7E00
ENDCHAR
STARTCHAR uni0251
ENCODING 593
SWIDTH 600 0
DWIDTH 7 0
BBX 6 5 0 0
BITMAP
1FA0
34A0
6060
30A0
1FA0
ENDCHAR
STARTCHAR uni0252
ENCODING 594
SWIDTH 600 0
DWIDTH 7 0
BBX 5 5 1 0
BITMAP
EE40
D180
C0C0
D180
EE00
ENDCHAR
STARTCHAR uni0253
ENCODING 595
SWIDTH 600 0
DWIDTH 7 0
BBX 5 8 1 0
BITMAP
7C00
D000
C000
EE40
D180
C0C0
D180
EE00
ENDCHAR
STARTCHAR uni0254
ENCODING 596
SWIDTH 600 0
DWIDTH 7 0
BBX 5 5 1 0
BITMAP
BE00
4240
0180
4240
BE00
ENDCHAR
STARTCHAR uni0255
ENCODING 597
SWIDTH 600 0
DWIDTH 7 0
BBX 5 6 1 -1
BITMAP
6F40
D040
CB80
A880
7F40
5000
ENDCHAR
STARTCHAR uni0256
ENCODING 598
SWIDTH 600 0
DWIDTH 7 0
BBX 7 10 0 -2
BITMAP
0060
0060
0060
1FA0
34A0
6060
30A0
1FA0
0060
0038
ENDCHAR
STARTCHAR uni0257
ENCODING 599
SWIDTH 600 0
DWIDTH 7 0
BBX 7 8 0 0
BITMAP
0028
0060
0060
1FA0
34A0
6060
30A0
1FA0
ENDCHAR
STARTCHAR uni0258
ENCODING 600
SWIDTH 600 0
DWIDTH 7 0
BBX 6 5 0 0
BITMAP
1F80
2060
7FE0
1060
2F80
ENDCHAR
STARTCHAR uni0259
ENCODING 601
SWIDTH 600 0
DWIDTH 7 0
BBX 6 5 0 0
BITMAP
1F80
1060
7FF0
2060
1F80
ENDCHAR
STARTCHAR uni025A
ENCODING 602
SWIDTH 600 0
DWIDTH 7 0
BBX 7 5 0 0
BITMAP
2E00
02A0
2AA8
9240
2E00
ENDCHAR
STARTCHAR uni025B
ENCODING 603
SWIDTH 600 0
DWIDTH 7 0
BBX 5 5 1 0
BITMAP
7E40
9140
7D00
D040
7E40
ENDCHAR
STARTCHAR uni025C
ENCODING 604
SWIDTH 600 0
DWIDTH 7 0
BBX 5 5 1 0
BITMAP
7E00
4240
2E00
4280
BE40
ENDCHAR
STARTCHAR uni025E
ENCODING 606
SWIDTH 600 0
DWIDTH 7 0
BBX 6 5 0 0
BITMAP
1BD0
3460
62D0
3470
1BD0
ENDCHAR
STARTCHAR uni025F
ENCODING 607
SWIDTH 600 0
DWIDTH 7 0
BBX 7 7 0 -2
BITMAP
3F40
0240
2FF4
0240
0240
0240
7E00
ENDCHAR
STARTCHAR uni0260
ENCODING 608
SWIDTH 600 0
DWIDTH 7 0
BBX 7 9 0 -2
BITMAP
0028
0060
1FA0
34A0
6060
35A0
1AA0
1090
1F80
ENDCHAR
STARTCHAR uni0261
ENCODING 609
SWIDTH 600 0
DWIDTH 7 0
BBX 6 7 0 -2
BITMAP
1FA0
34A0
6060
30A0
1FA0
1090
1F80
ENDCHAR
STARTCHAR uni0262
ENCODING 610
SWIDTH 600 0
DWIDTH 7 0
BBX 5 5 1 0
BITMAP
2F40
D140
C780
D080
6F40
ENDCHAR
STARTCHAR uni0263
ENCODING 611
SWIDTH 600 0
DWIDTH 7 0
BBX 6 7 0 -2
BITMAP
6020
2490
1880
0A40
0700
0980
0B40
ENDCHAR
STARTCHAR uni0264
ENCODING 612
SWIDTH 600 0
DWIDTH 7 0
BBX 6 5 0 0
BITMAP
79E0
0B40
1480
2490
1F80
ENDCHAR
STARTCHAR uni0265
ENCODING 613
SWIDTH 600 0
DWIDTH 7 0
BBX 5 7 1 -2
BITMAP
8180
8180
8180
C280
BE80
0180
0180
ENDCHAR
STARTCHAR uni0266
ENCODING 614
SWIDTH 600 0
DWIDTH 7 0
BBX 5 8 1 0
BITMAP
7C00
D000
C000
DF40
D180
C080
C080
C080
ENDCHAR
STARTCHAR uni0267
ENCODING 615
SWIDTH 600 0
DWIDTH 7 0
BBX 5 10 1 -2
BITMAP
7C00
D000
C000
DF40
D180
C080
C080
C080
0180
0B40
ENDCHAR
STARTCHAR uni0268
ENCODING 616
SWIDTH 600 0
DWIDTH 7 0
BBX 6 8 1 0
BITMAP
0900
0000
0000
FD00
0900
BFD0
0900
0900
ENDCHAR
STARTCHAR uni026A
ENCODING 618
SWIDTH 600 0
DWIDTH 7 0
BBX 5 5 1 0
BITMAP
FF80
0800
0800
0800
FF80
ENDCHAR
STARTCHAR uni026B
ENCODING 619
SWIDTH 600 0
DWIDTH 7 0
BBX 6 8 0 0
BITMAP
7E00
0600
2F90
2780
0600
0600
0600
02E0
ENDCHAR
STARTCHAR uni026C
ENCODING 620
SWIDTH 600 0
DWIDTH 7 0
BBX 6 8 0 0
BITMAP
7E00
0600
3E00
2600
2FC0
0600
0600
02E0
ENDCHAR
STARTCHAR uni026D
ENCODING 621
SWIDTH 600 0
DWIDTH 7 0
BBX 6 10 0 -2
BITMAP
7E00
0600
0600
0600
0600
0600
0600
0600
0600
02E0
ENDCHAR
STARTCHAR uni026E
ENCODING 622
SWIDTH 600 0
DWIDTH 7 0
BBX 6 10 1 -2
BITMAP
8000
8000
8000
FFC0
8140
8500
8F80
8090
10C0
2F40
ENDCHAR
STARTCHAR uni026F
ENCODING 623
SWIDTH 600 0
DWIDTH 7 0
BBX 6 5 0 0
BITMAP
9630
9630
9630
9670
7AA0
ENDCHAR
STARTCHAR uni0270
ENCODING 624
SWIDTH 600 0
DWIDTH 7 0
BBX 6 7 0 -2
BITMAP
9630
9630
9630
9670
7AB0
0030
0030
ENDCHAR
STARTCHAR uni0271
ENCODING 625
SWIDTH 600 0
DWIDTH 7 0
BBX 6 7 0 -2
BITMAP
6EE0
6730
6220
6220
6220
0030
00A0
ENDCHAR
STARTCHAR uni0272
ENCODING 626
SWIDTH 600 0
DWIDTH 7 0
BBX 6 7 0 -2
BITMAP
27D0
3460
3020
3020
3020
3000
E000
ENDCHAR
STARTCHAR uni0273
ENCODING 627
SWIDTH 600 0
DWIDTH 7 0
BBX 6 7 1 -2
BITMAP
9F40
D180
C180
C180
C180
0180
00A0
ENDCHAR
STARTCHAR uni0274
ENCODING 628
SWIDTH 600 0
DWIDTH 7 0
BBX 5 5 1 0
BITMAP
D180
A180
9980
C680
C280
ENDCHAR
STARTCHAR uni0275
ENCODING 629
SWIDTH 600 0
DWIDTH 7 0
BBX 6 5 0 0
BITMAP
1F80
2060
7FF0
2060
1F80
ENDCHAR
STARTCHAR uni0276
ENCODING 630
SWIDTH 600 0
DWIDTH 7 0
BBX 7 5 0 0
BITMAP
2FF4
6240
92F0
6240
2FF4
ENDCHAR
STARTCHAR uni0278
ENCODING 632
SWIDTH 600 0
DWIDTH 7 0
BBX 6 10 0 -2
BITMAP
0200
0200
0200
1F90
6670
5230
6670
1F90
0200
0200
ENDCHAR
STARTCHAR uni0279
ENCODING 633
SWIDTH 600 0
DWIDTH 7 0
BBX 5 5 0 0
BITMAP
00C0
00C0
00C0
02C0
7D80
ENDCHAR
STARTCHAR uni027A
ENCODING 634
SWIDTH 600 0
DWIDTH 7 0
BBX 5 8 0 0
BITMAP
00C0
00C0
00C0
00C0
00C0
00C0
02C0
7D80
ENDCHAR
STARTCHAR uni027B
ENCODING 635
SWIDTH 600 0
DWIDTH 7 0
BBX 6 7 0 -2
BITMAP
0200
0200
0200
0700
7A00
0240
01E0
ENDCHAR
STARTCHAR uni027D
ENCODING 637
SWIDTH 600 0
DWIDTH 7 0
BBX 5 7 1 -2
BITMAP
5B80
7400
6000
6000
6000
6000
2F40
ENDCHAR
STARTCHAR uni027E
ENCODING 638
SWIDTH 600 0
DWIDTH 7 0
BBX 5 5 1 0
BITMAP
1F80
7400
6000
6000
6000
ENDCHAR
STARTCHAR uni0280
ENCODING 640
SWIDTH 600 0
DWIDTH 7 0
BBX 5 5 1 0
BITMAP
FF40
C180
FF40
C600
C180
ENDCHAR
STARTCHAR uni0281
ENCODING 641
SWIDTH 600 0
DWIDTH 7 0
BBX 5 5 1 0
BITMAP
8180
6180
BF80
C180
BF80
ENDCHAR
STARTCHAR uni0282
ENCODING 642
SWIDTH 600 0
DWIDTH 7 0
BBX 6 7 0 -2
BITMAP
1F80
2440
0A90
2060
7F90
2000
2800
ENDCHAR
STARTCHAR uni0283
ENCODING 643
SWIDTH 600 0
DWIDTH 7 0
BBX 6 10 0 -2
BITMAP
02E0
0300
0200
0200
0200
0200
0200
0200
0600
7D00
ENDCHAR
STARTCHAR uni0284
ENCODING 644
SWIDTH 600 0
DWIDTH 7 0
BBX 6 10 0 -2
BITMAP
02E0
0300
0200
0200
0200
3FE0
0200
0200
0600
7D00
ENDCHAR
STARTCHAR uni0287
ENCODING 647
SWIDTH 600 0
DWIDTH 7 0
BBX 6 7 0 -2
BITMAP
7E00
0240
0240
0240
7FE0
0240
0240
ENDCHAR
STARTCHAR uni0288
ENCODING 648
SWIDTH 600 0
DWIDTH 7 0
BBX 6 9 0 -2
BITMAP
0900
0900
7FE0
0900
0900
0900
0900
0900
07E0
ENDCHAR
STARTCHAR uni0289
ENCODING 649
SWIDTH 600 0
DWIDTH 7 0
BBX 7 5 0 0
BITMAP
3090
FFF4
3090
34D0
1E90
ENDCHAR
STARTCHAR uni028A
ENCODING 650
SWIDTH 600 0
DWIDTH 7 0
BBX 6 5 0 0
BITMAP
78F0
2050
6030
7460
1F80
ENDCHAR
STARTCHAR uni028B
ENCODING 651
SWIDTH 600 0
DWIDTH 7 0
BBX 5 5 1 0
BITMAP
8740
81C0
80C0
D280
7E00
ENDCHAR
STARTCHAR uni028C
ENCODING 652
SWIDTH 600 0
DWIDTH 7 0
BBX 6 5 0 0
BITMAP
0700
0940
1880
2090
6020
ENDCHAR
STARTCHAR uni028D
ENCODING 653
SWIDTH 600 0
DWIDTH 7 0
BBX 7 5 0 0
BITMAP
38D0
29A0
5970
9620
8624
ENDCHAR
STARTCHAR uni028E
ENCODING 654
SWIDTH 600 0
DWIDTH 7 0
BBX 6 8 0 0
BITMAP
01A0
0240
0600
0A00
0940
1480
2090
6020
ENDCHAR
STARTCHAR uni028F
ENCODING 655
SWIDTH 600 0
DWIDTH 7 0
BBX 5 5 1 0
BITMAP
8180
6200
2900
1800
0800
ENDCHAR
STARTCHAR uni0290
ENCODING 656
SWIDTH 600 0
DWIDTH 7 0
BBX 7 7 0 -2
BITMAP
2FE0
0180
0600
1800
7FE0
0060
0028
ENDCHAR
STARTCHAR uni0291
ENCODING 657
SWIDTH 600 0
DWIDTH 7 0
BBX 7 6 0 -1
BITMAP
2FE0
0180
06B4
1894
7FE0
0200
ENDCHAR
STARTCHAR uni0292
ENCODING 658
SWIDTH 600 0
DWIDTH 7 0
BBX 5 7 1 -2
BITMAP
FF80
0500
7E00
0280
0180
8240
7E00
ENDCHAR
STARTCHAR uni0294
ENCODING 660
SWIDTH 600 0
DWIDTH 7 0
BBX 5 8 1 0
BITMAP
7E00
8240
0180
0240
0900
1800
1800
1800
ENDCHAR
STARTCHAR uni0295
ENCODING 661
SWIDTH 600 0
DWIDTH 7 0
BBX 5 8 1 0
BITMAP
6E00
D140
C000
9000
2800
0C00
0C00
0C00
ENDCHAR
STARTCHAR uni0298
ENCODING 664
SWIDTH 600 0
DWIDTH 7 0
BBX 6 8 0 0
BITMAP
0B80
2490
6020
6230
6130
6020
3490
1B80
ENDCHAR
STARTCHAR uni0299
ENCODING 665
SWIDTH 600 0
DWIDTH 7 0
BBX 5 5 1 0
BITMAP
BF40
8180
BF40
80C0
BF80
ENDCHAR
STARTCHAR uni029C
ENCODING 668
SWIDTH 600 0
DWIDTH 7 0
BBX 5 5 1 0
BITMAP
C180
C180
FF80
C180
C180
ENDCHAR
STARTCHAR uni029D
ENCODING 669
SWIDTH 600 0
DWIDTH 7 0
BBX 5 11 0 -3
BITMAP
0240
0000
0000
3F40
0240
0240
0240
3F40
6740
2E80
0080
ENDCHAR
STARTCHAR uni029E
ENCODING 670
SWIDTH 600 0
DWIDTH 7 0
BBX 6 7 0 -2
BITMAP
2050
1890
0A90
0950
6050
0050
0050
ENDCHAR
STARTCHAR uni029F
ENCODING 671
SWIDTH 600 0
DWIDTH 7 0
BBX 5 5 1 0
BITMAP
6000
6000
6000
6000
7FC0
ENDCHAR
STARTCHAR uni02A1
ENCODING 673
SWIDTH 600 0
DWIDTH 7 0
BBX 6 8 0 0
BITMAP
1F80
2090
0050
0180
7FE0
0600
0600
0600
ENDCHAR
STARTCHAR uni02A2
ENCODING 674
SWIDTH 600 0
DWIDTH 7 0
BBX 5 8 1 0
BITMAP
7E00
D140
C000
6400
FF80
0C00
0C00
0C00
ENDCHAR
STARTCHAR uni02A4
ENCODING 676
SWIDTH 600 0
DWIDTH 7 0
BBX 7 10 0 -2
BITMAP
0600
0600
0600
7BF8
9620
C650
D6F4
7A18
0018
01F4
ENDCHAR
STARTCHAR uni02A6
ENCODING 678
SWIDTH 600 0
DWIDTH 7 0
BBX 7 7 0 0
BITMAP
1000
3000
BFE0
3250
30A0
3424
1FE0
ENDCHAR
STARTCHAR uni02A7
ENCODING 679
SWIDTH 600 0
DWIDTH 7 0
BBX 7 10 0 -2
BITMAP
0038
2490
2490
7FD0
2490
2490
2490
1E90
0090
02C0
ENDCHAR
STARTCHAR h.sups
ENCODING 688
SWIDTH 600 0
DWIDTH 7 0
BBX 3 6 2 4
BITMAP
40
80
B8
88
88
88
ENDCHAR
STARTCHAR j.sups
ENCODING 690
SWIDTH 600 0
DWIDTH 7 0
BBX 3 7 1 3
BITMAP
08
00
7C
08
08
08
78
ENDCHAR
STARTCHAR r.sups
ENCODING 691
SWIDTH 600 0
DWIDTH 7 0
BBX 4 4 2 4
BITMAP
6D
60
50
50
ENDCHAR
STARTCHAR w.sups
ENCODING 695
SWIDTH 600 0
DWIDTH 7 0
BBX 6 4 0 4
BITMAP
5650
2A50
2A80
2580
ENDCHAR
STARTCHAR y.sups
ENCODING 696
SWIDTH 600 0
DWIDTH 7 0
BBX 4 5 1 3
BITMAP
52
21
18
18
74
ENDCHAR
STARTCHAR uni02B9
ENCODING 697
SWIDTH 600 0
DWIDTH 7 0
BBX 1 3 3 5
BITMAP
C0
80
80
ENDCHAR
STARTCHAR uni02BB
ENCODING 699
SWIDTH 600 0
DWIDTH 7 0
BBX 2 4 2 4
BITMAP
20
90
B0
70
ENDCHAR
STARTCHAR uni02BC
ENCODING 700
SWIDTH 600 0
DWIDTH 7 0
BBX 3 4 2 4
BITMAP
70
74
20
60
ENDCHAR
STARTCHAR uni02BE
ENCODING 702
SWIDTH 600 0
DWIDTH 7 0
BBX 3 4 2 5
BITMAP
60
14
14
60
ENDCHAR
STARTCHAR uni02BF
ENCODING 703
SWIDTH 600 0
DWIDTH 7 0
BBX 2 4 2 5
BITMAP
70
80
80
70
ENDCHAR
STARTCHAR uni02C1
ENCODING 705
SWIDTH 600 0
DWIDTH 7 0
BBX 3 5 2 4
BITMAP
B4
84
80
60
10
ENDCHAR
STARTCHAR circumflex
ENCODING 710
SWIDTH 600 0
DWIDTH 7 0
BBX 4 2 1 6
BITMAP
2D
52
ENDCHAR
STARTCHAR caron
ENCODING 711
SWIDTH 600 0
DWIDTH 7 0
BBX 4 2 1 6
BITMAP
52
2D
ENDCHAR
STARTCHAR uni02C8
ENCODING 712
SWIDTH 600 0
DWIDTH 7 0
BBX 2 4 2 4
BITMAP
60
20
20
10
ENDCHAR
STARTCHAR uni02C9
ENCODING 713
SWIDTH 600 0
DWIDTH 7 0
BBX 3 1 2 6
BITMAP
F8
ENDCHAR
STARTCHAR uni02CA
ENCODING 714
SWIDTH 600 0
DWIDTH 7 0
BBX 2 2 3 6
BITMAP
50
80
ENDCHAR
STARTCHAR uni02CB
ENCODING 715
SWIDTH 600 0
DWIDTH 7 0
BBX 2 2 2 6
BITMAP
80
60
ENDCHAR
STARTCHAR uni02CC
ENCODING 716
SWIDTH 600 0
DWIDTH 7 0
BBX 2 4 2 -3
BITMAP
20
20
60
60
ENDCHAR
STARTCHAR uni02D0
ENCODING 720
SWIDTH 600 0
DWIDTH 7 0
BBX 2 6 2 0
BITMAP
B0
20
00
00
20
B0
ENDCHAR
STARTCHAR uni02D1
ENCODING 721
SWIDTH 600 0
DWIDTH 7 0
BBX 2 2 2 4
BITMAP
B0
20
ENDCHAR
STARTCHAR breve
ENCODING 728
SWIDTH 600 0
DWIDTH 7 0
BBX 4 2 1 6
BITMAP
52
2D
ENDCHAR
STARTCHAR dotaccent
ENCODING 729
SWIDTH 600 0
DWIDTH 7 0
BBX 2 1 2 7
BITMAP
60
ENDCHAR
STARTCHAR ring
ENCODING 730
SWIDTH 600 0
DWIDTH 7 0
BBX 3 3 2 6
BITMAP
B4
94
B4
ENDCHAR
STARTCHAR ogonek
ENCODING 731
SWIDTH 600 0
DWIDTH 7 0
BBX 3 3 2 -3
BITMAP
50
80
74
ENDCHAR
STARTCHAR tilde
ENCODING 732
SWIDTH 600 0
DWIDTH 7 0
BBX 4 3 1 6
BITMAP
10
7A
8A
ENDCHAR
STARTCHAR hungarumlaut
ENCODING 733
SWIDTH 600 0
DWIDTH 7 0
BBX 4 2 2 6
BITMAP
15
88
ENDCHAR
STARTCHAR uni02DE
ENCODING 734
SWIDTH 600 0
DWIDTH 7 0
BBX 4 2 1 2
BITMAP
64
0D
ENDCHAR
STARTCHAR uni02E0
ENCODING 736
SWIDTH 600 0
DWIDTH 7 0
BBX 4 6 1 2
BITMAP
62
25
28
18
18
1C
ENDCHAR
STARTCHAR l.sups
ENCODING 737
SWIDTH 600 0
DWIDTH 7 0
BBX 3 6 2 4
BITMAP
E0
20
20
20
20
2C
ENDCHAR
STARTCHAR s.sups
ENCODING 738
SWIDTH 600 0
DWIDTH 7 0
BBX 3 4 2 4
BITMAP
B4
40
44
B8
ENDCHAR
STARTCHAR x.sups
ENCODING 739
SWIDTH 600 0
DWIDTH 7 0
BBX 3 4 2 4
BITMAP
88
70
A4
44
ENDCHAR
STARTCHAR uni02E4
ENCODING 740
SWIDTH 600 0
DWIDTH 7 0
BBX 3 6 2 4
BITMAP
B4
84
80
60
20
10
ENDCHAR
STARTCHAR uni0300
ENCODING 768
SWIDTH 600 0
DWIDTH 7 0
BBX 2 2 2 6
BITMAP
80
60
ENDCHAR
STARTCHAR uni0301
ENCODING 769
SWIDTH 600 0
DWIDTH 7 0
BBX 2 2 3 6
BITMAP
50
80
ENDCHAR
STARTCHAR uni0302
ENCODING 770
SWIDTH 600 0
DWIDTH 7 0
BBX 4 2 1 6
BITMAP
2D
52
ENDCHAR
STARTCHAR uni0303
ENCODING 771
SWIDTH 600 0
DWIDTH 7 0
BBX 4 3 1 6
BITMAP
10
7A
8A
ENDCHAR
STARTCHAR uni0304
ENCODING 772
SWIDTH 600 0
DWIDTH 7 0
BBX 3 1 2 6
BITMAP
F8
ENDCHAR
STARTCHAR uni0305
ENCODING 773
SWIDTH 600 0
DWIDTH 7 0
BBX 3 1 2 6
BITMAP
F8
ENDCHAR
STARTCHAR uni0306
ENCODING 774
SWIDTH 600 0
DWIDTH 7 0
BBX 4 2 1 6
BITMAP
52
2D
ENDCHAR
STARTCHAR uni0307
ENCODING 775
SWIDTH 600 0
DWIDTH 7 0
BBX 2 1 2 7
BITMAP
60
ENDCHAR
STARTCHAR uni0308
ENCODING 776
SWIDTH 600 0
DWIDTH 7 0
BBX 4 1 1 7
BITMAP
62
ENDCHAR
STARTCHAR uni0309
ENCODING 777
SWIDTH 600 0
DWIDTH 7 0
BBX 2 3 2 6
BITMAP
60
20
20
ENDCHAR
STARTCHAR uni030A
ENCODING 778
SWIDTH 600 0
DWIDTH 7 0
BBX 3 3 2 6
BITMAP
B4
94
B4
ENDCHAR
STARTCHAR uni030B
ENCODING 779
SWIDTH 600 0
DWIDTH 7 0
BBX 4 2 2 6
BITMAP
15
88
ENDCHAR
STARTCHAR uni030C
ENCODING 780
SWIDTH 600 0
DWIDTH 7 0
BBX 4 2 1 6
BITMAP
52
2D
ENDCHAR
STARTCHAR uni030F
ENCODING 783
SWIDTH 600 0
DWIDTH 7 0
BBX 4 2 1 6
BITMAP
88
15
ENDCHAR
STARTCHAR uni0310
ENCODING 784
SWIDTH 600 0
DWIDTH 7 0
BBX 4 3 1 6
BITMAP
08
56
2D
ENDCHAR
STARTCHAR uni0311
ENCODING 785
SWIDTH 600 0
DWIDTH 7 0
BBX 4 2 1 6
BITMAP
2D
52
ENDCHAR
STARTCHAR uni0312
ENCODING 786
SWIDTH 600 0
DWIDTH 7 0
BBX 2 2 2 6
BITMAP
10
60
ENDCHAR
STARTCHAR uni0313
ENCODING 787
SWIDTH 600 0
DWIDTH 7 0
BBX 1 2 3 6
BITMAP
80
40
ENDCHAR
STARTCHAR uni0318
ENCODING 792
SWIDTH 600 0
DWIDTH 7 0
BBX 3 3 2 -3
BITMAP
14
B4
14
ENDCHAR
STARTCHAR uni0319
ENCODING 793
SWIDTH 600 0
DWIDTH 7 0
BBX 2 3 2 -3
BITMAP
40
B0
40
ENDCHAR
STARTCHAR uni031A
ENCODING 794
SWIDTH 600 0
DWIDTH 7 0
BBX 3 2 2 6
BITMAP
B4
14
ENDCHAR
STARTCHAR uni031B
ENCODING 795
SWIDTH 600 0
DWIDTH 7 0
BBX 2 2 3 5
BITMAP
20
50
ENDCHAR
STARTCHAR uni031C
ENCODING 796
SWIDTH 600 0
DWIDTH 7 0
BBX 2 3 2 -3
BITMAP
70
50
70
ENDCHAR
STARTCHAR uni031D
ENCODING 797
SWIDTH 600 0
DWIDTH 7 0
BBX 3 2 2 -2
BITMAP
20
F8
ENDCHAR
STARTCHAR uni031E
ENCODING 798
SWIDTH 600 0
DWIDTH 7 0
BBX 3 2 2 -3
BITMAP
F8
20
ENDCHAR
STARTCHAR uni031F
ENCODING 799
SWIDTH 600 0
DWIDTH 7 0
BBX 3 3 2 -3
BITMAP
10
F8
10
ENDCHAR
STARTCHAR uni0320
ENCODING 800
SWIDTH 600 0
DWIDTH 7 0
BBX 3 1 2 -2
BITMAP
F8
ENDCHAR
STARTCHAR uni0323
ENCODING 803
SWIDTH 600 0
DWIDTH 7 0
BBX 2 1 2 -2
BITMAP
60
ENDCHAR
STARTCHAR uni0324
ENCODING 804
SWIDTH 600 0
DWIDTH 7 0
BBX 4 1 1 -2
BITMAP
62
ENDCHAR
STARTCHAR uni0325
ENCODING 805
SWIDTH 600 0
DWIDTH 7 0
BBX 3 3 2 -3
BITMAP
B4
94
B4
ENDCHAR
STARTCHAR uni0326
ENCODING 806
SWIDTH 600 0
DWIDTH 7 0
BBX 2 3 2 -3
BITMAP
60
20
A0
ENDCHAR
STARTCHAR uni0327
ENCODING 807
SWIDTH 600 0
DWIDTH 7 0
BBX 2 4 2 -4
BITMAP
10
70
20
A0
ENDCHAR
STARTCHAR uni0328
ENCODING 808
SWIDTH 600 0
DWIDTH 7 0
BBX 3 3 2 -3
BITMAP
50
80
74
ENDCHAR
STARTCHAR uni0329
ENCODING 809
SWIDTH 600 0
DWIDTH 7 0
BBX 1 2 3 -3
BITMAP
80
80
ENDCHAR
STARTCHAR uni032A
ENCODING 810
SWIDTH 600 0
DWIDTH 7 0
BBX 3 2 2 -3
BITMAP
F8
48
ENDCHAR
STARTCHAR uni032C
ENCODING 812
SWIDTH 600 0
DWIDTH 7 0
BBX 4 2 1 -3
BITMAP
52
2D
ENDCHAR
STARTCHAR uni032E
ENCODING 814
SWIDTH 600 0
DWIDTH 7 0
BBX 4 2 1 -3
BITMAP
52
2D
ENDCHAR
STARTCHAR uni032F
ENCODING 815
SWIDTH 600 0
DWIDTH 7 0
BBX 4 2 1 -3
BITMAP
2D
52
ENDCHAR
STARTCHAR uni0330
ENCODING 816
SWIDTH 600 0
DWIDTH 7 0
BBX 4 3 1 -3
BITMAP
10
7A
8A
ENDCHAR
STARTCHAR uni0331
ENCODING 817
SWIDTH 600 0
DWIDTH 7 0
BBX 3 1 2 -2
BITMAP
F8
ENDCHAR
STARTCHAR uni0334
ENCODING 820
SWIDTH 600 0
DWIDTH 7 0
BBX 5 2 1 2
BITMAP
B940
8B00
ENDCHAR
STARTCHAR uni0339
ENCODING 825
SWIDTH 600 0
DWIDTH 7 0
BBX 2 3 2 -3
BITMAP
60
20
60
ENDCHAR
STARTCHAR uni033A
ENCODING 826
SWIDTH 600 0
DWIDTH 7 0
BBX 3 2 2 -3
BITMAP
48
F8
ENDCHAR
STARTCHAR uni033B
ENCODING 827
SWIDTH 600 0
DWIDTH 7 0
BBX 3 2 2 -3
BITMAP
F8
F8
ENDCHAR
STARTCHAR uni033C
ENCODING 828
SWIDTH 600 0
DWIDTH 7 0
BBX 4 2 1 -3
BITMAP
7A
9A
ENDCHAR
STARTCHAR uni033D
ENCODING 829
SWIDTH 600 0
DWIDTH 7 0
BBX 2 2 2 6
BITMAP
60
60
ENDCHAR
STARTCHAR uni0342
ENCODING 834
SWIDTH 600 0
DWIDTH 7 0
BBX 4 3 1 6
BITMAP
10
7A
8A
ENDCHAR
STARTCHAR uni0345
ENCODING 837
SWIDTH 600 0
DWIDTH 7 0
BBX 2 2 3 -2
BITMAP
80
D0
ENDCHAR
STARTCHAR uni035F
ENCODING 863
SWIDTH 600 0
DWIDTH 7 0
BBX 11 1 -2 -2
BITMAP
FFFFF8
ENDCHAR
STARTCHAR uni0361
ENCODING 865
SWIDTH 600 0
DWIDTH 7 0
BBX 10 2 -2 7
BITMAP
0AFE40
650160
ENDCHAR
STARTCHAR uni0374
ENCODING 884
SWIDTH 600 0
DWIDTH 7 0
BBX 1 3 3 5
BITMAP
C0
80
80
ENDCHAR
STARTCHAR uni0375
ENCODING 885
SWIDTH 600 0
DWIDTH 7 0
BBX 2 3 2 0
BITMAP
20
20
60
ENDCHAR
STARTCHAR uni037A
ENCODING 890
SWIDTH 600 0
DWIDTH 7 0
BBX 2 2 3 -2
BITMAP
80
D0
ENDCHAR
STARTCHAR uni037E
ENCODING 894
SWIDTH 600 0
DWIDTH 7 0
BBX 3 9 2 -3
BITMAP
70
70
00
00
70
74
24
60
40
ENDCHAR
STARTCHAR tonos
ENCODING 900
SWIDTH 600 0
DWIDTH 7 0
BBX 2 3 3 6
BITMAP
90
80
80
ENDCHAR
STARTCHAR dieresistonos
ENCODING 901
SWIDTH 600 0
DWIDTH 7 0
BBX 4 3 1 6
BITMAP
08
5A
04
ENDCHAR
STARTCHAR Alphatonos
ENCODING 902
SWIDTH 600 0
DWIDTH 7 0
BBX 6 7 0 0
BITMAP
6700
5A40
8880
1880
2FD0
3060
6030
ENDCHAR
STARTCHAR anoteleia
ENCODING 903
SWIDTH 600 0
DWIDTH 7 0
BBX 2 2 2 4
BITMAP
70
70
ENDCHAR
STARTCHAR Epsilontonos
ENCODING 904
SWIDTH 600 0
DWIDTH 7 0
BBX 6 7 0 0
BITMAP
5BE0
9800
8800
0BD0
0800
0800
0BE0
ENDCHAR
STARTCHAR Etatonos
ENCODING 905
SWIDTH 600 0
DWIDTH 7 0
BBX 6 7 0 0
BITMAP
5820
9820
8820
0FE0
0820
0820
0820
ENDCHAR
STARTCHAR Iotatonos
ENCODING 906
SWIDTH 600 0
DWIDTH 7 0
BBX 6 7 0 0
BITMAP
5FE0
9240
8240
0240
0240
0240
0FE0
ENDCHAR
STARTCHAR Omicrontonos
ENCODING 908
SWIDTH 600 0
DWIDTH 7 0
BBX 6 7 0 0
BITMAP
5780
9C60
9830
1830
1830
0C60
0780
ENDCHAR
STARTCHAR Upsilontonos
ENCODING 910
SWIDTH 600 0
DWIDTH 7 0
BBX 7 7 0 0
BITMAP
6814
5520
5260
0190
0080
0080
0080
ENDCHAR
STARTCHAR Omegatonos
ENCODING 911
SWIDTH 600 0
DWIDTH 7 0
BBX 6 7 0 0
BITMAP
5780
9C60
9830
1830
0820
0850
2DB0
ENDCHAR
STARTCHAR iotadieresistonos
ENCODING 912
SWIDTH 600 0
DWIDTH 7 0
BBX 5 9 1 0
BITMAP
0800
9A00
1400
0000
F800
1800
1800
1800
0B80
ENDCHAR
STARTCHAR Alpha
ENCODING 913
SWIDTH 600 0
DWIDTH 7 0
BBX 6 7 0 0
BITMAP
0700
0A40
0880
1480
2FD0
2060
5030
ENDCHAR
STARTCHAR Beta
ENCODING 914
SWIDTH 600 0
DWIDTH 7 0
BBX 5 7 1 0
BITMAP
FE00
C280
C240
FE00
C1C0
C1C0
FE40
ENDCHAR
STARTCHAR Gamma
ENCODING 915
SWIDTH 600 0
DWIDTH 7 0
BBX 5 7 1 0
BITMAP
BFC0
9000
9000
9000
9000
9000
9000
ENDCHAR
STARTCHAR uni0394
ENCODING 916
SWIDTH 600 0
DWIDTH 7 0
BBX 6 7 0 0
BITMAP
0700
0A40
0880
1480
2050
6020
7FF0
ENDCHAR
STARTCHAR Epsilon
ENCODING 917
SWIDTH 600 0
DWIDTH 7 0
BBX 5 7 1 0
BITMAP
BF80
9000
9000
BF40
9000
9000
BF80
ENDCHAR
STARTCHAR Zeta
ENCODING 918
SWIDTH 600 0
DWIDTH 7 0
BBX 6 7 0 0
BITMAP
3FF0
0090
0180
0600
0800
2400
7FF0
ENDCHAR
STARTCHAR Eta
ENCODING 919
SWIDTH 600 0
DWIDTH 7 0
BBX 5 7 1 0
BITMAP
8180
8180
8180
FF80
8180
8180
8180
ENDCHAR
STARTCHAR Theta
ENCODING 920
SWIDTH 600 0
DWIDTH 7 0
BBX 6 7 0 0
BITMAP
1B80
34A0
6030
5B70
6030
34A0
1B80
ENDCHAR
STARTCHAR Iota
ENCODING 921
SWIDTH 600 0
DWIDTH 7 0
BBX 5 7 1 0
BITMAP
FF80
0800
0800
0800
0800
0800
FF80
ENDCHAR
STARTCHAR Kappa
ENCODING 922
SWIDTH 600 0
DWIDTH 7 0
BBX 5 7 1 0
BITMAP
C180
C600
CC00
E900
D300
C240
C0C0
ENDCHAR
STARTCHAR Lambda
ENCODING 923
SWIDTH 600 0
DWIDTH 7 0
BBX 6 7 0 0
BITMAP
0700
0A40
0980
14C0
2090
3060
6030
ENDCHAR
STARTCHAR Mu
ENCODING 924
SWIDTH 600 0
DWIDTH 7 0
BBX 6 7 0 0
BITMAP
7060
74A0
69A0
6A60
6720
6020
6020
ENDCHAR
STARTCHAR Nu
ENCODING 925
SWIDTH 600 0
DWIDTH 7 0
BBX 5 7 1 0
BITMAP
D180
E180
A580
9980
8980
8280
8280
ENDCHAR
STARTCHAR Xi
ENCODING 926
SWIDTH 600 0
DWIDTH 7 0
BBX 6 7 0 0
BITMAP
3FE0
0000
0000
1FC0
0000
0000
7FE0
ENDCHAR
STARTCHAR Omicron
ENCODING 927
SWIDTH 600 0
DWIDTH 7 0
BBX 6 7 0 0
BITMAP
1B80
34A0
6030
5030
6030
34A0
1B80
ENDCHAR
STARTCHAR Pi
ENCODING 928
SWIDTH 600 0
DWIDTH 7 0
BBX 5 7 1 0
BITMAP
FF80
8180
8180
8180
8180
8180
8180
ENDCHAR
STARTCHAR Rho
ENCODING 929
SWIDTH 600 0
DWIDTH 7 0
BBX 5 7 1 0
BITMAP
FE40
C1C0
C1C0
FE40
C000
C000
C000
ENDCHAR
STARTCHAR Sigma
ENCODING 931
SWIDTH 600 0
DWIDTH 7 0
BBX 5 7 1 0
BITMAP
FF80
5000
2400
0C00
2400
9000
FFC0
ENDCHAR
STARTCHAR Tau
ENCODING 932
SWIDTH 600 0
DWIDTH 7 0
BBX 6 7 0 0
BITMAP
BFF0
0200
0200
0200
0200
0200
0200
ENDCHAR
STARTCHAR Upsilon
ENCODING 933
SWIDTH 600 0
DWIDTH 7 0
BBX 6 7 0 0
BITMAP
6020
2490
1880
0A40
0600
0200
0200
ENDCHAR
STARTCHAR Phi
ENCODING 934
SWIDTH 600 0
DWIDTH 7 0
BBX 7 7 0 0
BITMAP
0200
2F90
6670
9224
6670
2F90
0200
ENDCHAR
STARTCHAR Chi
ENCODING 935
SWIDTH 600 0
DWIDTH 7 0
BBX 5 7 1 0
BITMAP
C180
6200
2900
1C00
2500
9200
8180
ENDCHAR
STARTCHAR Psi
ENCODING 936
SWIDTH 600 0
DWIDTH 7 0
BBX 6 7 0 0
BITMAP
9220
9220
5220
6670
2F90
0200
0200
ENDCHAR
STARTCHAR uni03A9
ENCODING 937
SWIDTH 600 0
DWIDTH 7 0
BBX 7 7 0 0
BITMAP
1F80
34A0
6030
5030
6020
2490
B8F4
ENDCHAR
STARTCHAR Iotadieresis
ENCODING 938
SWIDTH 600 0
DWIDTH 7 0
BBX 5 9 1 0
BITMAP
2200
0000
FF80
0800
0800
0800
0800
0800
FF80
ENDCHAR
STARTCHAR Upsilondieresis
ENCODING 939
SWIDTH 600 0
DWIDTH 7 0
BBX 6 9 0 0
BITMAP
0880
0000
6020
2490
1880
0A40
0600
0200
0200
ENDCHAR
STARTCHAR alphatonos
ENCODING 940
SWIDTH 600 0
DWIDTH 7 0
BBX 7 9 0 0
BITMAP
0140
0240
0200
0000
1F70
34A0
6050
7090
2E74
ENDCHAR
STARTCHAR epsilontonos
ENCODING 941
SWIDTH 600 0
DWIDTH 7 0
BBX 5 9 1 0
BITMAP
0600
0500
0800
0000
7E40
9140
7D00
D040
7F40
ENDCHAR
STARTCHAR etatonos
ENCODING 942
SWIDTH 600 0
DWIDTH 7 0
BBX 5 11 1 -2
BITMAP
0500
0900
0800
0000
9F40
E180
C180
C180
C180
0180
0180
ENDCHAR
STARTCHAR iotatonos
ENCODING 943
SWIDTH 600 0
DWIDTH 7 0
BBX 5 9 1 0
BITMAP
0800
0800
1400
0000
F800
1800
1800
1800
0B80
ENDCHAR
STARTCHAR upsilondieresistonos
ENCODING 944
SWIDTH 600 0
DWIDTH 7 0
BBX 5 9 1 0
BITMAP
0800
5A00
0400
0000
8140
8180
8180
D280
7E00
ENDCHAR
STARTCHAR alpha
ENCODING 945
SWIDTH 600 0
DWIDTH 7 0
BBX 7 5 0 0
BITMAP
1F70
34A0
6050
7090
2E74
ENDCHAR
STARTCHAR beta
ENCODING 946
SWIDTH 600 0
DWIDTH 7 0
BBX 5 10 1 -2
BITMAP
6E00
9240
C600
CE00
C180
C0C0
D180
EE40
C000
C000
ENDCHAR
STARTCHAR gamma
ENCODING 947
SWIDTH 600 0
DWIDTH 7 0
BBX 5 7 1 -2
BITMAP
C080
9180
2200
2600
1C00
1800
0800
ENDCHAR
STARTCHAR delta
ENCODING 948
SWIDTH 600 0
DWIDTH 7 0
BBX 6 8 0 0
BITMAP
1F90
2450
0900
0A80
2060
6030
3460
1F80
ENDCHAR
STARTCHAR epsilon
ENCODING 949
SWIDTH 600 0
DWIDTH 7 0
BBX 5 5 1 0
BITMAP
7E40
9140
7D00
D040
7F40
ENDCHAR
STARTCHAR zeta
ENCODING 950
SWIDTH 600 0
DWIDTH 7 0
BBX 5 10 1 -2
BITMAP
7F80
0240
1800
2000
5000
9000
A000
2F40
0180
0140
ENDCHAR
STARTCHAR eta
ENCODING 951
SWIDTH 600 0
DWIDTH 7 0
BBX 5 7 1 -2
BITMAP
9F40
E180
C180
C180
C180
0180
0180
ENDCHAR
STARTCHAR theta
ENCODING 952
SWIDTH 600 0
DWIDTH 7 0
BBX 6 8 0 0
BITMAP
0B80
2490
2060
3FE0
6020
3060
2490
0B80
ENDCHAR
STARTCHAR iota
ENCODING 953
SWIDTH 600 0
DWIDTH 7 0
BBX 5 5 1 0
BITMAP
F800
1800
1800
1800
0B80
ENDCHAR
STARTCHAR kappa
ENCODING 954
SWIDTH 600 0
DWIDTH 7 0
BBX 5 5 1 0
BITMAP
C180
8A00
A900
9200
8180
ENDCHAR
STARTCHAR lambda
ENCODING 955
SWIDTH 600 0
DWIDTH 7 0
BBX 6 8 0 0
BITMAP
7800
0600
0300
0740
0980
1880
2460
6030
ENDCHAR
STARTCHAR uni03BC
ENCODING 956
SWIDTH 600 0
DWIDTH 7 0
BBX 5 7 1 -2
BITMAP
8140
8140
C140
C240
FDC0
8000
8000
ENDCHAR
STARTCHAR nu
ENCODING 957
SWIDTH 600 0
DWIDTH 7 0
BBX 6 5 0 0
BITMAP
7020
2460
0C80
0980
0700
ENDCHAR
STARTCHAR xi
ENCODING 958
SWIDTH 600 0
DWIDTH 7 0
BBX 5 10 1 -2
BITMAP
FF80
2000
3000
1F00
6000
9000
A000
2F40
0180
0140
ENDCHAR
STARTCHAR omicron
ENCODING 959
SWIDTH 600 0
DWIDTH 7 0
BBX 6 5 0 0
BITMAP
1F80
34A0
6030
3460
1F80
ENDCHAR
STARTCHAR pi
ENCODING 960
SWIDTH 600 0
DWIDTH 7 0
BBX 7 5 0 0
BITMAP
BFF4
2490
2490
2490
2070
ENDCHAR
STARTCHAR rho
ENCODING 961
SWIDTH 600 0
DWIDTH 7 0
BBX 5 7 1 -2
BITMAP
2E40
9180
C0C0
D180
EE00
C000
C000
ENDCHAR
STARTCHAR uni03C2
ENCODING 962
SWIDTH 600 0
DWIDTH 7 0
BBX 5 7 1 -2
BITMAP
2F40
9040
C000
A000
2E40
0240
0200
ENDCHAR
STARTCHAR sigma
ENCODING 963
SWIDTH 600 0
DWIDTH 7 0
BBX 7 5 0 0
BITMAP
1FF4
3490
6060
3490
1F80
ENDCHAR
STARTCHAR tau
ENCODING 964
SWIDTH 600 0
DWIDTH 7 0
BBX 6 5 0 0
BITMAP
7FF0
0200
0200
0200
03C0
ENDCHAR
STARTCHAR upsilon
ENCODING 965
SWIDTH 600 0
DWIDTH 7 0
BBX 5 5 1 0
BITMAP
8140
8180
8180
D280
7E00
ENDCHAR
STARTCHAR phi
ENCODING 966
SWIDTH 600 0
DWIDTH 7 0
BBX 6 8 0 -2
BITMAP
0200
1F90
6670
5230
6670
1F90
0200
0200
ENDCHAR
STARTCHAR chi
ENCODING 967
SWIDTH 600 0
DWIDTH 7 0
BBX 5 7 1 -2
BITMAP
8140
6200
2900
1C00
2600
5240
8080
ENDCHAR
STARTCHAR psi
ENCODING 968
SWIDTH 600 0
DWIDTH 7 0
BBX 6 9 0 -2
BITMAP
0200
0200
6220
6220
6220
6670
2F90
0200
0200
ENDCHAR
STARTCHAR omega
ENCODING 969
SWIDTH 600 0
DWIDTH 7 0
BBX 7 5 0 0
BITMAP
2060
5230
9224
9730
2EE0
ENDCHAR
STARTCHAR iotadieresis
ENCODING 970
SWIDTH 600 0
DWIDTH 7 0
BBX 5 8 1 0
BITMAP
5600
0000
0000
F800
1800
1800
1800
0B80
ENDCHAR
STARTCHAR upsilondieresis
ENCODING 971
SWIDTH 600 0
DWIDTH 7 0
BBX 5 8 1 0
BITMAP
6200
0000
0000
8140
8180
8180
D280
7E00
ENDCHAR
STARTCHAR omicrontonos
ENCODING 972
SWIDTH 600 0
DWIDTH 7 0
BBX 6 9 0 0
BITMAP
0240
0200
0200
0000
1F80
34A0
6030
3460
1F80
ENDCHAR
STARTCHAR upsilontonos
ENCODING 973
SWIDTH 600 0
DWIDTH 7 0
BBX 5 9 1 0
BITMAP
0900
0800
0800
0000
8140
8180
8180
D280
7E00
ENDCHAR
STARTCHAR omegatonos
ENCODING 974
SWIDTH 600 0
DWIDTH 7 0
BBX 7 9 0 0
BITMAP
0240
0200
0200
0000
2060
5230
9224
9730
2EE0
ENDCHAR
STARTCHAR uni03D0
ENCODING 976
SWIDTH 600 0
DWIDTH 7 0
BBX 5 8 1 0
BITMAP
6E00
9240
C200
EE00
C180
C0C0
9180
2E40
ENDCHAR
STARTCHAR uni03D1
ENCODING 977
SWIDTH 600 0
DWIDTH 7 0
BBX 5 8 1 0
BITMAP
7E00
C240
D180
7F80
4080
C180
9240
7E00
ENDCHAR
STARTCHAR uni03D5
ENCODING 981
SWIDTH 600 0
DWIDTH 7 0
BBX 6 8 0 -2
BITMAP
0200
1F90
6670
5230
6670
1F90
0200
0200
ENDCHAR
STARTCHAR uni03D7
ENCODING 983
SWIDTH 600 0
DWIDTH 7 0
BBX 5 7 1 -2
BITMAP
C180
8A00
A900
9200
8180
0080
0240
ENDCHAR
STARTCHAR uni03D9
ENCODING 985
SWIDTH 600 0
DWIDTH 7 0
BBX 6 7 0 -2
BITMAP
1F80
3460
6030
3460
1F80
0200
0200
ENDCHAR
STARTCHAR uni03DB
ENCODING 987
SWIDTH 600 0
DWIDTH 7 0
BBX 5 7 1 -2
BITMAP
2F80
9000
C000
A000
2E00
0240
0200
ENDCHAR
STARTCHAR uni03DD
ENCODING 989
SWIDTH 600 0
DWIDTH 7 0
BBX 5 7 1 -2
BITMAP
7F80
5000
6A40
6000
5000
5000
6000
ENDCHAR
STARTCHAR uni03E1
ENCODING 993
SWIDTH 600 0
DWIDTH 7 0
BBX 5 10 1 -2
BITMAP
5000
2400
0900
0A00
B640
4280
2A80
1080
0080
0180
ENDCHAR
STARTCHAR uni0400
ENCODING 1024
SWIDTH 600 0
DWIDTH 7 0
BBX 5 10 1 0
BITMAP
1400
0800
0000
BF80
9000
9000
BF40
9000
9000
BF80
ENDCHAR
STARTCHAR uni0401
ENCODING 1025
SWIDTH 600 0
DWIDTH 7 0
BBX 5 9 1 0
BITMAP
2200
0000
BF80
9000
9000
BF40
9000
9000
BF80
ENDCHAR
STARTCHAR uni0402
ENCODING 1026
SWIDTH 600 0
DWIDTH 7 0
BBX 7 7 0 0
BITMAP
FFC0
0800
0FD0
0C30
0824
0824
08E0
ENDCHAR
STARTCHAR uni0403
ENCODING 1027
SWIDTH 600 0
DWIDTH 7 0
BBX 5 10 1 0
BITMAP
0500
1800
0000
BFC0
9000
9000
9000
9000
9000
9000
ENDCHAR
STARTCHAR uni0404
ENCODING 1028
SWIDTH 600 0
DWIDTH 7 0
BBX 6 7 0 0
BITMAP
0BD0
2410
2000
7F80
2000
2420
0BD0
ENDCHAR
STARTCHAR uni0405
ENCODING 1029
SWIDTH 600 0
DWIDTH 7 0
BBX 5 7 1 0
BITMAP
6E00
D140
A000
1E00
0180
9180
7E40
ENDCHAR
STARTCHAR uni0406
ENCODING 1030
SWIDTH 600 0
DWIDTH 7 0
BBX 5 7 1 0
BITMAP
FF80
0800
0800
0800
0800
0800
FF80
ENDCHAR
STARTCHAR uni0407
ENCODING 1031
SWIDTH 600 0
DWIDTH 7 0
BBX 5 9 1 0
BITMAP
2200
0000
FF80
0800
0800
0800
0800
0800
FF80
ENDCHAR
STARTCHAR uni0408
ENCODING 1032
SWIDTH 600 0
DWIDTH 7 0
BBX 5 7 1 0
BITMAP
BF40
0140
0140
0140
0240
8240
7E00
ENDCHAR
STARTCHAR uni0409
ENCODING 1033
SWIDTH 600 0
DWIDTH 7 0
BBX 7 7 0 0
BITMAP
2F00
2300
2300
23E0
2324
6324
D3E0
ENDCHAR
STARTCHAR uni040A
ENCODING 1034
SWIDTH 600 0
DWIDTH 7 0
BBX 7 7 0 0
BITMAP
9200
9200
9200
BFE0
9224
9224
93E0
ENDCHAR
STARTCHAR uni040B
ENCODING 1035
SWIDTH 600 0
DWIDTH 7 0
BBX 7 7 0 0
BITMAP
FFC0
0800
0FD0
0C30
0824
0824
0824
ENDCHAR
STARTCHAR uni040C
ENCODING 1036
SWIDTH 600 0
DWIDTH 7 0
BBX 5 10 1 0
BITMAP
0600
0800
0000
C1C0
C300
C900
FC00
C600
C240
C0C0
ENDCHAR
STARTCHAR uni040D
ENCODING 1037
SWIDTH 600 0
DWIDTH 7 0
BBX 5 10 1 0
BITMAP
2000
0800
0000
8280
8280
8980
9880
A480
A080
C080
ENDCHAR
STARTCHAR uni040E
ENCODING 1038
SWIDTH 600 0
DWIDTH 7 0
BBX 6 10 0 0
BITMAP
1880
0B40
0000
6030
2050
1880
0980
0740
0600
2D00
ENDCHAR
STARTCHAR uni040F
ENCODING 1039
SWIDTH 600 0
DWIDTH 7 0
BBX 6 9 0 -2
BITMAP
6020
6020
6020
6020
6020
6020
7FE0
0200
0200
ENDCHAR
STARTCHAR uni0410
ENCODING 1040
SWIDTH 600 0
DWIDTH 7 0
BBX 6 7 0 0
BITMAP
0700
0A40
0880
1480
2FD0
2060
5030
ENDCHAR
STARTCHAR uni0411
ENCODING 1041
SWIDTH 600 0
DWIDTH 7 0
BBX 5 7 1 0
BITMAP
FF80
C000
C000
FF40
C1C0
C1C0
FF40
ENDCHAR
STARTCHAR uni0412
ENCODING 1042
SWIDTH 600 0
DWIDTH 7 0
BBX 5 7 1 0
BITMAP
FE00
C280
C240
FE00
C1C0
C1C0
FE40
ENDCHAR
STARTCHAR uni0413
ENCODING 1043
SWIDTH 600 0
DWIDTH 7 0
BBX 5 7 1 0
BITMAP
BFC0
9000
9000
9000
9000
9000
9000
ENDCHAR
STARTCHAR uni0414
ENCODING 1044
SWIDTH 600 0
DWIDTH 7 0
BBX 7 9 0 -2
BITMAP
0FE0
0860
1860
2460
2060
2060
BFF4
8024
8024
ENDCHAR
STARTCHAR uni0415
ENCODING 1045
SWIDTH 600 0
DWIDTH 7 0
BBX 5 7 1 0
BITMAP
BF80
9000
9000
BF40
9000
9000
BF80
ENDCHAR
STARTCHAR uni0416
ENCODING 1046
SWIDTH 600 0
DWIDTH 7 0
BBX 7 7 0 0
BITMAP
D228
2260
2690
2FC0
3660
6230
9224
ENDCHAR
STARTCHAR uni0417
ENCODING 1047
SWIDTH 600 0
DWIDTH 7 0
BBX 5 7 1 0
BITMAP
7E00
4240
0240
2F00
0180
8180
7E40
ENDCHAR
STARTCHAR uni0418
ENCODING 1048
SWIDTH 600 0
DWIDTH 7 0
BBX 5 7 1 0
BITMAP
8280
8280
8980
9880
A480
A080
C080
ENDCHAR
STARTCHAR uni0419
ENCODING 1049
SWIDTH 600 0
DWIDTH 7 0
BBX 5 10 1 0
BITMAP
6200
2D00
0000
8280
8280
8980
9880
A480
A080
C080
ENDCHAR
STARTCHAR uni041A
ENCODING 1050
SWIDTH 600 0
DWIDTH 7 0
BBX 5 7 1 0
BITMAP
C1C0
C300
C900
FC00
C600
C240
C0C0
ENDCHAR
STARTCHAR uni041B
ENCODING 1051
SWIDTH 600 0
DWIDTH 7 0
BBX 6 7 0 0
BITMAP
0BE0
0C60
1860
1860
2460
3060
E060
ENDCHAR
STARTCHAR uni041C
ENCODING 1052
SWIDTH 600 0
DWIDTH 7 0
BBX 6 7 0 0
BITMAP
7060
74A0
69A0
6A60
6720
6020
6020
ENDCHAR
STARTCHAR uni041D
ENCODING 1053
SWIDTH 600 0
DWIDTH 7 0
BBX 5 7 1 0
BITMAP
8180
8180
8180
FF80
8180
8180
8180
ENDCHAR
STARTCHAR uni041E
ENCODING 1054
SWIDTH 600 0
DWIDTH 7 0
BBX 6 7 0 0
BITMAP
1B80
34A0
6030
5030
6030
34A0
1B80
ENDCHAR
STARTCHAR uni041F
ENCODING 1055
SWIDTH 600 0
DWIDTH 7 0
BBX 5 7 1 0
BITMAP
FF80
8180
8180
8180
8180
8180
8180
ENDCHAR
STARTCHAR uni0420
ENCODING 1056
SWIDTH 600 0
DWIDTH 7 0
BBX 5 7 1 0
BITMAP
FE40
C1C0
C1C0
FE40
C000
C000
C000
ENDCHAR
STARTCHAR uni0421
ENCODING 1057
SWIDTH 600 0
DWIDTH 7 0
BBX 6 7 0 0
BITMAP
0BD0
2810
3000
6000
3000
2820
0BD0
ENDCHAR
STARTCHAR uni0422
ENCODING 1058
SWIDTH 600 0
DWIDTH 7 0
BBX 6 7 0 0
BITMAP
BFF0
0200
0200
0200
0200
0200
0200
ENDCHAR
STARTCHAR uni0423
ENCODING 1059
SWIDTH 600 0
DWIDTH 7 0
BBX 6 7 0 0
BITMAP
6030
2050
1880
0980
0740
0600
2D00
ENDCHAR
STARTCHAR uni0424
ENCODING 1060
SWIDTH 600 0
DWIDTH 7 0
BBX 7 7 0 0
BITMAP
0200
2FD0
A670
9224
6670
2FD0
0200
ENDCHAR
STARTCHAR uni0425
ENCODING 1061
SWIDTH 600 0
DWIDTH 7 0
BBX 5 7 1 0
BITMAP
C180
6200
2900
1C00
2500
9200
8180
ENDCHAR
STARTCHAR uni0426
ENCODING 1062
SWIDTH 600 0
DWIDTH 7 0
BBX 6 9 1 -2
BITMAP
8180
8180
8180
8180
8180
8180
FFD0
0050
0050
ENDCHAR
STARTCHAR uni0427
ENCODING 1063
SWIDTH 600 0
DWIDTH 7 0
BBX 6 7 0 0
BITMAP
6060
6060
3060
1FE0
0060
0060
0060
ENDCHAR
STARTCHAR uni0428
ENCODING 1064
SWIDTH 600 0
DWIDTH 7 0
BBX 6 7 0 0
BITMAP
9220
9220
9220
9220
9220
9220
BFF0
ENDCHAR
STARTCHAR uni0429
ENCODING 1065
SWIDTH 600 0
DWIDTH 7 0
BBX 7 9 0 -2
BITMAP
9620
9620
9620
9620
9620
9620
BFF8
0014
0014
ENDCHAR
STARTCHAR uni042A
ENCODING 1066
SWIDTH 600 0
DWIDTH 7 0
BBX 7 7 0 0
BITMAP
BC00
0800
0800
0BE0
0824
0824
0BE0
ENDCHAR
STARTCHAR uni042B
ENCODING 1067
SWIDTH 600 0
DWIDTH 7 0
BBX 6 7 0 0
BITMAP
5030
5030
5030
7E30
5230
5230
6530
ENDCHAR
STARTCHAR uni042C
ENCODING 1068
SWIDTH 600 0
DWIDTH 7 0
BBX 5 7 1 0
BITMAP
C000
C000
C000
FE40
C1C0
C1C0
FE40
ENDCHAR
STARTCHAR uni042D
ENCODING 1069
SWIDTH 600 0
DWIDTH 7 0
BBX 6 7 0 0
BITMAP
2F40
1090
0060
0FF0
0020
5090
2F40
ENDCHAR
STARTCHAR uni042E
ENCODING 1070
SWIDTH 600 0
DWIDTH 7 0
BBX 7 7 0 0
BITMAP
92D0
9A70
9920
BC24
9920
9A70
92D0
ENDCHAR
STARTCHAR uni042F
ENCODING 1071
SWIDTH 600 0
DWIDTH 7 0
BBX 6 7 0 0
BITMAP
2FE0
6060
7060
1FE0
0860
2460
6060
ENDCHAR
STARTCHAR uni0430
ENCODING 1072
SWIDTH 600 0
DWIDTH 7 0
BBX 5 5 1 0
BITMAP
6E00
5280
6F80
D180
BE80
ENDCHAR
STARTCHAR uni0431
ENCODING 1073
SWIDTH 600 0
DWIDTH 7 0
BBX 5 8 1 0
BITMAP
1A40
7900
C000
EE00
D180
8080
9280
2E00
ENDCHAR
STARTCHAR uni0432
ENCODING 1074
SWIDTH 600 0
DWIDTH 7 0
BBX 5 5 1 0
BITMAP
FF40
C180
FF40
C1C0
FF40
ENDCHAR
STARTCHAR uni0433
ENCODING 1075
SWIDTH 600 0
DWIDTH 7 0
BBX 5 5 1 0
BITMAP
7F80
6000
6000
6000
6000
ENDCHAR
STARTCHAR uni0434
ENCODING 1076
SWIDTH 600 0
DWIDTH 7 0
BBX 6 7 0 -2
BITMAP
1FD0
1490
2490
2090
BFF0
9020
5020
ENDCHAR
STARTCHAR uni0435
ENCODING 1077
SWIDTH 600 0
DWIDTH 7 0
BBX 6 5 0 0
BITMAP
1B80
3460
7FF0
2410
1B90
ENDCHAR
STARTCHAR uni0436
ENCODING 1078
SWIDTH 600 0
DWIDTH 7 0
BBX 7 5 0 0
BITMAP
9224
3660
2FD0
3260
9224
ENDCHAR
STARTCHAR uni0437
ENCODING 1079
SWIDTH 600 0
DWIDTH 7 0
BBX 5 5 1 0
BITMAP
7E00
4240
2E00
4280
BE40
ENDCHAR
STARTCHAR uni0438
ENCODING 1080
SWIDTH 600 0
DWIDTH 7 0
BBX 5 5 1 0
BITMAP
C280
C680
C980
A180
D180
ENDCHAR
STARTCHAR uni0439
ENCODING 1081
SWIDTH 600 0
DWIDTH 7 0
BBX 5 8 1 0
BITMAP
6200
2E00
0000
C280
C680
C980
A180
D180
ENDCHAR
STARTCHAR uni043A
ENCODING 1082
SWIDTH 600 0
DWIDTH 7 0
BBX 5 5 1 0
BITMAP
8180
8600
BD00
8300
8180
ENDCHAR
STARTCHAR uni043B
ENCODING 1083
SWIDTH 600 0
DWIDTH 7 0
BBX 6 5 0 0
BITMAP
1FD0
1850
1450
2450
A050
ENDCHAR
STARTCHAR uni043C
ENCODING 1084
SWIDTH 600 0
DWIDTH 7 0
BBX 6 5 0 0
BITMAP
7070
64A0
69B0
6630
6130
ENDCHAR
STARTCHAR uni043D
ENCODING 1085
SWIDTH 600 0
DWIDTH 7 0
BBX 5 5 1 0
BITMAP
C180
C180
FF80
C180
C180
ENDCHAR
STARTCHAR uni043E
ENCODING 1086
SWIDTH 600 0
DWIDTH 7 0
BBX 6 5 0 0
BITMAP
1F80
3460
6030
3460
1F80
ENDCHAR
STARTCHAR uni043F
ENCODING 1087
SWIDTH 600 0
DWIDTH 7 0
BBX 5 5 1 0
BITMAP
FF80
C180
C180
C180
C180
ENDCHAR
STARTCHAR uni0440
ENCODING 1088
SWIDTH 600 0
DWIDTH 7 0
BBX 5 7 1 -2
BITMAP
EE40
D180
C0C0
D180
EE00
C000
C000
ENDCHAR
STARTCHAR uni0441
ENCODING 1089
SWIDTH 600 0
DWIDTH 7 0
BBX 5 5 1 0
BITMAP
2F40
D040
C000
D040
6F40
ENDCHAR
STARTCHAR uni0442
ENCODING 1090
SWIDTH 600 0
DWIDTH 7 0
BBX 6 5 0 0
BITMAP
7FF0
0200
0200
0200
0200
ENDCHAR
STARTCHAR uni0443
ENCODING 1091
SWIDTH 600 0
DWIDTH 7 0
BBX 6 7 0 -2
BITMAP
6020
2450
1880
0980
0700
0600
3800
ENDCHAR
STARTCHAR uni0444
ENCODING 1092
SWIDTH 600 0
DWIDTH 7 0
BBX 7 10 0 -2
BITMAP
0200
0200
0600
2FE0
6230
9224
A630
3FE0
0200
0200
ENDCHAR
STARTCHAR uni0445
ENCODING 1093
SWIDTH 600 0
DWIDTH 7 0
BBX 5 5 1 0
BITMAP
9240
2600
1C00
6600
8240
ENDCHAR
STARTCHAR uni0446
ENCODING 1094
SWIDTH 600 0
DWIDTH 7 0
BBX 6 7 1 -2
BITMAP
C140
C140
C140
C140
FFD0
0090
0090
ENDCHAR
STARTCHAR uni0447
ENCODING 1095
SWIDTH 600 0
DWIDTH 7 0
BBX 5 5 1 0
BITMAP
C240
C240
7F40
0240
0240
ENDCHAR
STARTCHAR uni0448
ENCODING 1096
SWIDTH 600 0
DWIDTH 7 0
BBX 6 5 0 0
BITMAP
6230
6230
6230
6230
7FF0
ENDCHAR
STARTCHAR uni0449
ENCODING 1097
SWIDTH 600 0
DWIDTH 7 0
BBX 7 7 0 -2
BITMAP
6230
6230
6230
6230
7FF8
0018
0014
ENDCHAR
STARTCHAR uni044A
ENCODING 1098
SWIDTH 600 0
DWIDTH 7 0
BBX 6 5 0 0
BITMAP
BC00
0BD0
0830
0830
0BD0
ENDCHAR
STARTCHAR uni044B
ENCODING 1099
SWIDTH 600 0
DWIDTH 7 0
BBX 6 5 0 0
BITMAP
6020
7E20
6260
6260
7E20
ENDCHAR
STARTCHAR uni044C
ENCODING 1100
SWIDTH 600 0
DWIDTH 7 0
BBX 5 5 1 0
BITMAP
9000
BE00
9180
9180
BE00
ENDCHAR
STARTCHAR uni044D
ENCODING 1101
SWIDTH 600 0
DWIDTH 7 0
BBX 5 5 1 0
BITMAP
BE00
4240
3F80
4240
BE00
ENDCHAR
STARTCHAR uni044E
ENCODING 1102
SWIDTH 600 0
DWIDTH 7 0
BBX 6 5 0 0
BITMAP
92D0
9930
BC20
9930
92D0
ENDCHAR
STARTCHAR uni044F
ENCODING 1103
SWIDTH 600 0
DWIDTH 7 0
BBX 5 5 1 0
BITMAP
BF80
C180
BF80
6180
8180
ENDCHAR
STARTCHAR uni0450
ENCODING 1104
SWIDTH 600 0
DWIDTH 7 0
BBX 6 8 0 0
BITMAP
0900
0200
0000
1B80
3460
7FF0
2410
1B90
ENDCHAR
STARTCHAR uni0451
ENCODING 1105
SWIDTH 600 0
DWIDTH 7 0
BBX 6 8 0 0
BITMAP
0880
0000
0000
1B80
3460
7FF0
2410
1B90
ENDCHAR
STARTCHAR uni0452
ENCODING 1106
SWIDTH 600 0
DWIDTH 7 0
BBX 6 10 0 -2
BITMAP
3000
BF40
3000
3780
34A0
3030
3030
3020
00A0
0380
ENDCHAR
STARTCHAR uni0453
ENCODING 1107
SWIDTH 600 0
DWIDTH 7 0
BBX 5 8 1 0
BITMAP
0200
0900
0000
7F80
6000
6000
6000
6000
ENDCHAR
STARTCHAR uni0454
ENCODING 1108
SWIDTH 600 0
DWIDTH 7 0
BBX 5 5 1 0
BITMAP
2F40
9040
FE00
9040
6F40
ENDCHAR
STARTCHAR uni0455
ENCODING 1109
SWIDTH 600 0
DWIDTH 7 0
BBX 5 5 1 0
BITMAP
7E00
9100
2A40
8180
7E40
ENDCHAR
STARTCHAR uni0456
ENCODING 1110
SWIDTH 600 0
DWIDTH 7 0
BBX 4 8 1 0
BITMAP
09
00
00
FD
09
09
09
09
ENDCHAR
STARTCHAR uni0457
ENCODING 1111
SWIDTH 600 0
DWIDTH 7 0
BBX 5 8 1 0
BITMAP
2640
0000
0000
FD00
0900
0900
0900
0900
ENDCHAR
STARTCHAR uni0458
ENCODING 1112
SWIDTH 600 0
DWIDTH 7 0
BBX 5 10 0 -2
BITMAP
0240
0000
0000
3F40
0240
0240
0240
0240
0240
7E00
ENDCHAR
STARTCHAR uni0459
ENCODING 1113
SWIDTH 600 0
DWIDTH 7 0
BBX 6 5 0 0
BITMAP
2F00
33D0
3330
6330
D3D0
ENDCHAR
STARTCHAR uni045A
ENCODING 1114
SWIDTH 600 0
DWIDTH 7 0
BBX 6 5 0 0
BITMAP
6200
7BD0
6630
6230
63D0
ENDCHAR
STARTCHAR uni045B
ENCODING 1115
SWIDTH 600 0
DWIDTH 7 0
BBX 6 8 0 0
BITMAP
3000
BF40
3000
37D0
3460
3020
3020
3020
ENDCHAR
STARTCHAR uni045C
ENCODING 1116
SWIDTH 600 0
DWIDTH 7 0
BBX 5 8 1 0
BITMAP
0600
0800
0000
8180
8600
BD00
8300
8180
ENDCHAR
STARTCHAR uni045D
ENCODING 1117
SWIDTH 600 0
DWIDTH 7 0
BBX 5 8 1 0
BITMAP
2000
0800
0000
C280
C680
C980
A180
D180
ENDCHAR
STARTCHAR uni045E
ENCODING 1118
SWIDTH 600 0
DWIDTH 7 0
BBX 6 10 0 -2
BITMAP
1880
0B40
0000
6020
2450
1880
0980
0700
0600
3800
ENDCHAR
STARTCHAR uni045F
ENCODING 1119
SWIDTH 600 0
DWIDTH 7 0
BBX 5 7 1 -2
BITMAP
C140
C140
C140
C140
FF40
0900
0800
ENDCHAR
STARTCHAR uni0462
ENCODING 1122
SWIDTH 600 0
DWIDTH 7 0
BBX 6 7 0 0
BITMAP
1800
BFC0
1800
1FD0
1870
1870
1FD0
ENDCHAR
STARTCHAR uni0463
ENCODING 1123
SWIDTH 600 0
DWIDTH 7 0
BBX 6 6 0 0
BITMAP
0C00
BFC0
0C00
0FD0
0C30
0FD0
ENDCHAR
STARTCHAR uni0472
ENCODING 1138
SWIDTH 600 0
DWIDTH 7 0
BBX 6 7 0 0
BITMAP
1B80
34A0
6030
7FF0
6030
34A0
1B80
ENDCHAR
STARTCHAR uni0473
ENCODING 1139
SWIDTH 600 0
DWIDTH 7 0
BBX 6 5 0 0
BITMAP
1F80
2060
7FF0
2060
1F80
ENDCHAR
STARTCHAR uni0474
ENCODING 1140
SWIDTH 600 0
DWIDTH 7 0
BBX 7 7 0 0
BITMAP
6024
3060
2090
14C0
0980
0A40
0700
ENDCHAR
STARTCHAR uni0475
ENCODING 1141
SWIDTH 600 0
DWIDTH 7 0
BBX 5 5 1 0
BITMAP
C1C0
9240
6200
2500
1C00
ENDCHAR
STARTCHAR uni0490
ENCODING 1168
SWIDTH 600 0
DWIDTH 7 0
BBX 5 9 1 0
BITMAP
0080
0080
BF80
9000
9000
9000
9000
9000
9000
ENDCHAR
STARTCHAR uni0491
ENCODING 1169
SWIDTH 600 0
DWIDTH 7 0
BBX 5 7 1 0
BITMAP
0180
0140
7F40
6000
6000
6000
6000
ENDCHAR
STARTCHAR uni0492
ENCODING 1170
SWIDTH 600 0
DWIDTH 7 0
BBX 6 7 0 0
BITMAP
1FE0
1400
1400
7F40
1400
1400
1400
ENDCHAR
STARTCHAR uni0493
ENCODING 1171
SWIDTH 600 0
DWIDTH 7 0
BBX 6 5 0 0
BITMAP
1FE0
1800
7F40
1800
1800
ENDCHAR
STARTCHAR uni0496
ENCODING 1174
SWIDTH 600 0
DWIDTH 7 0
BBX 7 9 0 -2
BITMAP
D228
2260
2690
2FC0
3660
6230
9228
0008
0008
ENDCHAR
STARTCHAR uni0497
ENCODING 1175
SWIDTH 600 0
DWIDTH 7 0
BBX 7 7 0 -2
BITMAP
9224
3660
2FD0
3260
9228
0008
0008
ENDCHAR
STARTCHAR uni0498
ENCODING 1176
SWIDTH 600 0
DWIDTH 7 0
BBX 5 9 1 -2
BITMAP
7E00
4240
0240
2F00
0180
81C0
7E40
0800
0800
ENDCHAR
STARTCHAR uni0499
ENCODING 1177
SWIDTH 600 0
DWIDTH 7 0
BBX 5 7 1 -2
BITMAP
7E00
4240
2E00
4280
BE40
1800
1800
ENDCHAR
STARTCHAR uni049A
ENCODING 1178
SWIDTH 600 0
DWIDTH 7 0
BBX 6 9 1 -2
BITMAP
C1C0
C300
C900
FC00
C600
C280
C0D0
0050
0050
ENDCHAR
STARTCHAR uni049B
ENCODING 1179
SWIDTH 600 0
DWIDTH 7 0
BBX 6 7 1 -2
BITMAP
8180
9600
AD00
8340
81D0
0050
0050
ENDCHAR
STARTCHAR uni04A0
ENCODING 1184
SWIDTH 600 0
DWIDTH 7 0
BBX 7 7 0 0
BITMAP
BC24
0850
0880
0B80
08D0
0860
0824
ENDCHAR
STARTCHAR uni04A1
ENCODING 1185
SWIDTH 600 0
DWIDTH 7 0
BBX 6 5 0 0
BITMAP
BC70
0890
0BC0
0890
0820
ENDCHAR
STARTCHAR uni04A2
ENCODING 1186
SWIDTH 600 0
DWIDTH 7 0
BBX 6 9 1 -2
BITMAP
8180
8180
8180
FF80
8180
8180
81D0
0050
0050
ENDCHAR
STARTCHAR uni04A3
ENCODING 1187
SWIDTH 600 0
DWIDTH 7 0
BBX 6 7 1 -2
BITMAP
C140
C140
FF40
C140
C1D0
0090
0090
ENDCHAR
STARTCHAR uni04AA
ENCODING 1194
SWIDTH 600 0
DWIDTH 7 0
BBX 6 9 0 -2
BITMAP
0BD0
2810
3000
6000
3000
2820
0BD0
0240
0240
ENDCHAR
STARTCHAR uni04AB
ENCODING 1195
SWIDTH 600 0
DWIDTH 7 0
BBX 5 7 1 -2
BITMAP
2F40
D040
C000
D040
6F40
0800
0800
ENDCHAR
STARTCHAR uni04AE
ENCODING 1198
SWIDTH 600 0
DWIDTH 7 0
BBX 6 7 0 0
BITMAP
6020
2490
1880
0A40
0600
0200
0200
ENDCHAR
STARTCHAR uni04AF
ENCODING 1199
SWIDTH 600 0
DWIDTH 7 0
BBX 6 7 0 -2
BITMAP
6020
2090
1880
0940
0700
0200
0200
ENDCHAR
STARTCHAR uni04B0
ENCODING 1200
SWIDTH 600 0
DWIDTH 7 0
BBX 6 7 0 0
BITMAP
6020
2490
1880
0A40
2FD0
0200
0200
ENDCHAR
STARTCHAR uni04B1
ENCODING 1201
SWIDTH 600 0
DWIDTH 7 0
BBX 6 7 0 -2
BITMAP
6020
2090
1880
0940
3FE0
0200
0200
ENDCHAR
STARTCHAR uni04B2
ENCODING 1202
SWIDTH 600 0
DWIDTH 7 0
BBX 6 9 1 -2
BITMAP
C180
6200
2900
1C00
2600
9340
81D0
0080
0080
ENDCHAR
STARTCHAR uni04B3
ENCODING 1203
SWIDTH 600 0
DWIDTH 7 0
BBX 5 7 1 -2
BITMAP
9240
2600
1C00
6600
82C0
0080
0080
ENDCHAR
STARTCHAR uni04B6
ENCODING 1206
SWIDTH 600 0
DWIDTH 7 0
BBX 7 9 0 -2
BITMAP
6060
6060
3060
1FE0
0060
0060
0074
0014
0014
ENDCHAR
STARTCHAR uni04B7
ENCODING 1207
SWIDTH 600 0
DWIDTH 7 0
BBX 5 7 1 -2
BITMAP
C240
C240
7F40
0240
02C0
0080
0080
ENDCHAR
STARTCHAR uni04BA
ENCODING 1210
SWIDTH 600 0
DWIDTH 7 0
BBX 5 7 1 0
BITMAP
C000
C000
FE00
C280
C080
C0C0
C0C0
ENDCHAR
STARTCHAR uni04BB
ENCODING 1211
SWIDTH 600 0
DWIDTH 7 0
BBX 5 8 1 0
BITMAP
C000
C000
C000
DF40
D180
C080
C080
C080
ENDCHAR
STARTCHAR uni04C0
ENCODING 1216
SWIDTH 600 0
DWIDTH 7 0
BBX 5 7 1 0
BITMAP
FF80
0800
0800
0800
0800
0800
FF80
ENDCHAR
STARTCHAR uni04C1
ENCODING 1217
SWIDTH 600 0
DWIDTH 7 0
BBX 7 10 0 0
BITMAP
1880
0B40
0000
D228
2260
2690
2FC0
3660
6230
9224
ENDCHAR
STARTCHAR uni04C2
ENCODING 1218
SWIDTH 600 0
DWIDTH 7 0
BBX 7 8 0 0
BITMAP
1880
0B40
0000
9224
3660
2FD0
3260
9224
ENDCHAR
STARTCHAR uni04CF
ENCODING 1231
SWIDTH 600 0
DWIDTH 7 0
BBX 6 8 0 0
BITMAP
7E00
0600
0600
0600
0600
0600
0600
02E0
ENDCHAR
STARTCHAR uni04D0
ENCODING 1232
SWIDTH 600 0
DWIDTH 7 0
BBX 6 10 0 0
BITMAP
1880
0B40
0000
0700
0A40
0880
1480
2FD0
2060
5030
ENDCHAR
STARTCHAR uni04D1
ENCODING 1233
SWIDTH 600 0
DWIDTH 7 0
BBX 5 8 1 0
BITMAP
2200
2E00
0000
6E00
5280
6F80
D180
BE80
ENDCHAR
STARTCHAR uni04D4
ENCODING 1236
SWIDTH 600 0
DWIDTH 7 0
BBX 7 7 0 0
BITMAP
07F4
0A40
0A40
26F0
3F40
6240
82F8
ENDCHAR
STARTCHAR uni04D5
ENCODING 1237
SWIDTH 600 0
DWIDTH 7 0
BBX 7 5 0 0
BITMAP
7DE0
6F14
A3F8
9600
79F4
ENDCHAR
STARTCHAR uni04D6
ENCODING 1238
SWIDTH 600 0
DWIDTH 7 0
BBX 5 10 1 0
BITMAP
3240
1E00
0000
BF80
9000
9000
BF40
9000
9000
BF80
ENDCHAR
STARTCHAR uni04D7
ENCODING 1239
SWIDTH 600 0
DWIDTH 7 0
BBX 6 8 0 0
BITMAP
1880
0B80
0000
1B80
3460
7FF0
2410
1B90
ENDCHAR
STARTCHAR uni04D8
ENCODING 1240
SWIDTH 600 0
DWIDTH 7 0
BBX 6 7 0 0
BITMAP
0B80
14A0
0030
7FF0
6030
24A0
0B80
ENDCHAR
STARTCHAR uni04D9
ENCODING 1241
SWIDTH 600 0
DWIDTH 7 0
BBX 6 5 0 0
BITMAP
1F80
1060
7FF0
2060
1F80
ENDCHAR
STARTCHAR uni04E2
ENCODING 1250
SWIDTH 600 0
DWIDTH 7 0
BBX 5 9 1 0
BITMAP
3E00
0000
8280
8280
8980
9880
A480
A080
C080
ENDCHAR
STARTCHAR uni04E3
ENCODING 1251
SWIDTH 600 0
DWIDTH 7 0
BBX 5 7 1 0
BITMAP
3F00
0000
C280
C680
C980
A180
D180
ENDCHAR
STARTCHAR uni04E6
ENCODING 1254
SWIDTH 600 0
DWIDTH 7 0
BBX 6 9 0 0
BITMAP
0880
0000
1B80
34A0
6030
5030
6030
34A0
1B80
ENDCHAR
STARTCHAR uni04E7
ENCODING 1255
SWIDTH 600 0
DWIDTH 7 0
BBX 6 8 0 0
BITMAP
1880
0000
0000
1F80
3460
6030
3460
1F80
ENDCHAR
STARTCHAR uni04E8
ENCODING 1256
SWIDTH 600 0
DWIDTH 7 0
BBX 6 7 0 0
BITMAP
1B80
34A0
6030
7FF0
6030
34A0
1B80
ENDCHAR
STARTCHAR uni04E9
ENCODING 1257
SWIDTH 600 0
DWIDTH 7 0
BBX 6 5 0 0
BITMAP
1F80
2060
7FF0
2060
1F80
ENDCHAR
STARTCHAR uni04EE
ENCODING 1262
SWIDTH 600 0
DWIDTH 7 0
BBX 6 9 0 0
BITMAP
0F80
0000
6030
2050
1880
0980
0740
0600
2D00
ENDCHAR
STARTCHAR uni04EF
ENCODING 1263
SWIDTH 600 0
DWIDTH 7 0
BBX 6 9 0 -2
BITMAP
0F80
0000
6020
2450
1880
0980
0700
0600
3800
ENDCHAR
STARTCHAR uni04F2
ENCODING 1266
SWIDTH 600 0
DWIDTH 7 0
BBX 6 10 0 0
BITMAP
0550
0880
0000
6030
2050
1880
0980
0740
0600
2D00
ENDCHAR
STARTCHAR uni04F3
ENCODING 1267
SWIDTH 600 0
DWIDTH 7 0
BBX 6 10 0 -2
BITMAP
0250
0880
0000
6020
2450
1880
0980
0700
0600
3800
ENDCHAR
STARTCHAR a.sups
ENCODING 7491
SWIDTH 600 0
DWIDTH 7 0
BBX 3 4 2 4
BITMAP
B8
BC
88
E4
ENDCHAR
STARTCHAR b.sups
ENCODING 7495
SWIDTH 600 0
DWIDTH 7 0
BBX 3 5 2 4
BITMAP
80
B8
88
88
B8
ENDCHAR
STARTCHAR d.sups
ENCODING 7496
SWIDTH 600 0
DWIDTH 7 0
BBX 4 6 1 4
BITMAP
01
02
2A
52
52
39
ENDCHAR
STARTCHAR e.sups
ENCODING 7497
SWIDTH 600 0
DWIDTH 7 0
BBX 4 4 1 4
BITMAP
2D
62
7F
2E
ENDCHAR
STARTCHAR g.sups
ENCODING 7501
SWIDTH 600 0
DWIDTH 7 0
BBX 5 6 1 2
BITMAP
2F40
2600
3D00
3F00
5240
3E00
ENDCHAR
STARTCHAR k.sups
ENCODING 7503
SWIDTH 600 0
DWIDTH 7 0
BBX 4 6 2 4
BITMAP
40
80
88
A4
98
45
ENDCHAR
STARTCHAR m.sups
ENCODING 7504
SWIDTH 600 0
DWIDTH 7 0
BBX 6 4 0 4
BITMAP
6ED0
6620
5220
5220
ENDCHAR
STARTCHAR o.sups
ENCODING 7506
SWIDTH 600 0
DWIDTH 7 0
BBX 4 4 1 4
BITMAP
2D
52
52
2D
ENDCHAR
STARTCHAR p.sups
ENCODING 7510
SWIDTH 600 0
DWIDTH 7 0
BBX 3 5 2 3
BITMAP
B8
88
88
B8
80
ENDCHAR
STARTCHAR t.sups
ENCODING 7511
SWIDTH 600 0
DWIDTH 7 0
BBX 4 5 1 4
BITMAP
14
7F
14
14
0F
ENDCHAR
STARTCHAR u.sups
ENCODING 7512
SWIDTH 600 0
DWIDTH 7 0
BBX 4 4 1 4
BITMAP
52
52
62
3A
ENDCHAR
STARTCHAR v.sups
ENCODING 7515
SWIDTH 600 0
DWIDTH 7 0
BBX 4 4 1 4
BITMAP
52
26
29
1C
ENDCHAR
STARTCHAR c.sups
ENCODING 7580
SWIDTH 600 0
DWIDTH 7 0
BBX 3 4 2 4
BITMAP
78
80
80
78
ENDCHAR
STARTCHAR f.sups
ENCODING 7584
SWIDTH 600 0
DWIDTH 7 0
BBX 4 6 2 4
BITMAP
2D
20
BC
20
20
20
ENDCHAR
STARTCHAR z.sups
ENCODING 7611
SWIDTH 600 0
DWIDTH 7 0
BBX 4 4 1 4
BITMAP
3E
04
10
7F
ENDCHAR
STARTCHAR uni1E06
ENCODING 7686
SWIDTH 600 0
DWIDTH 7 0
BBX 5 9 1 -2
BITMAP
FE00
C280
C240
FE00
C1C0
C1C0
FE40
0000
3F00
ENDCHAR
STARTCHAR uni1E07
ENCODING 7687
SWIDTH 600 0
DWIDTH 7 0
BBX 5 10 1 -2
BITMAP
C000
C000
C000
EE40
D180
C0C0
D180
EE00
0000
3F00
ENDCHAR
STARTCHAR uni1E0C
ENCODING 7692
SWIDTH 600 0
DWIDTH 7 0
BBX 5 9 1 -2
BITMAP
FE00
C280
C0C0
C0C0
C0C0
C280
FE00
0000
1800
ENDCHAR
STARTCHAR uni1E0D
ENCODING 7693
SWIDTH 600 0
DWIDTH 7 0
BBX 6 10 0 -2
BITMAP
0060
0060
0060
1FA0
34A0
6060
30A0
1FA0
0000
0600
ENDCHAR
STARTCHAR uni1E0E
ENCODING 7694
SWIDTH 600 0
DWIDTH 7 0
BBX 5 9 1 -2
BITMAP
FE00
C280
C0C0
C0C0
C0C0
C280
FE00
0000
7E00
ENDCHAR
STARTCHAR uni1E0F
ENCODING 7695
SWIDTH 600 0
DWIDTH 7 0
BBX 6 10 0 -2
BITMAP
0060
0060
0060
1FA0
34A0
6060
30A0
1FA0
0000
0F80
ENDCHAR
STARTCHAR uni1E10
ENCODING 7696
SWIDTH 600 0
DWIDTH 7 0
BBX 5 11 1 -4
BITMAP
FE00
C280
C0C0
C0C0
C0C0
C280
FE00
1400
1800
0800
2400
ENDCHAR
STARTCHAR uni1E11
ENCODING 7697
SWIDTH 600 0
DWIDTH 7 0
BBX 6 12 0 -4
BITMAP
0060
0060
0060
1FA0
34A0
6060
30A0
1FA0
0100
0600
0200
0A00
ENDCHAR
STARTCHAR uni1E16
ENCODING 7702
SWIDTH 600 0
DWIDTH 7 0
BBX 5 12 1 0
BITMAP
0200
0800
0000
2F00
0000
BF80
9000
9000
BF40
9000
9000
BF80
ENDCHAR
STARTCHAR uni1E17
ENCODING 7703
SWIDTH 600 0
DWIDTH 7 0
BBX 6 10 0 0
BITMAP
0140
0200
0000
0FC0
0000
1B80
3460
7FF0
2410
1B90
ENDCHAR
STARTCHAR uni1E20
ENCODING 7712
SWIDTH 600 0
DWIDTH 7 0
BBX 6 9 0 0
BITMAP
0FC0
0000
0BD0
3450
6000
61F0
6030
3430
0BD0
ENDCHAR
STARTCHAR uni1E21
ENCODING 7713
SWIDTH 600 0
DWIDTH 7 0
BBX 6 9 1 -2
BITMAP
3F00
0000
7FD0
D200
BB00
9400
BF80
80C0
BE40
ENDCHAR
STARTCHAR uni1E24
ENCODING 7716
SWIDTH 600 0
DWIDTH 7 0
BBX 5 9 1 -2
BITMAP
8180
8180
8180
FF80
8180
8180
8180
0000
1800
ENDCHAR
STARTCHAR uni1E25
ENCODING 7717
SWIDTH 600 0
DWIDTH 7 0
BBX 5 10 1 -2
BITMAP
C000
C000
C000
DF40
D180
C080
C080
C080
0000
0C00
ENDCHAR
STARTCHAR uni1E26
ENCODING 7718
SWIDTH 600 0
DWIDTH 7 0
BBX 5 9 1 0
BITMAP
2200
0000
8180
8180
8180
FF80
8180
8180
8180
ENDCHAR
STARTCHAR uni1E27
ENCODING 7719
SWIDTH 600 0
DWIDTH 7 0
BBX 6 10 0 0
BITMAP
8800
0000
3000
3000
3000
37D0
3460
3020
3020
3020
ENDCHAR
STARTCHAR uni1E28
ENCODING 7720
SWIDTH 600 0
DWIDTH 7 0
BBX 6 11 0 -4
BITMAP
2060
2060
2060
3FE0
2060
2060
2060
2000
7000
2000
A000
ENDCHAR
STARTCHAR uni1E29
ENCODING 7721
SWIDTH 600 0
DWIDTH 7 0
BBX 6 12 0 -4
BITMAP
3000
3000
3000
37D0
3460
3020
3020
3020
2000
3000
2400
6000
ENDCHAR
STARTCHAR uni1E2A
ENCODING 7722
SWIDTH 600 0
DWIDTH 7 0
BBX 5 10 1 -3
BITMAP
8180
8180
8180
FF80
8180
8180
8180
0000
5200
2D00
ENDCHAR
STARTCHAR uni1E2B
ENCODING 7723
SWIDTH 600 0
DWIDTH 7 0
BBX 5 11 1 -3
BITMAP
C000
C000
C000
DF40
D180
C080
C080
C080
0000
6200
2E00
ENDCHAR
STARTCHAR uni1E32
ENCODING 7730
SWIDTH 600 0
DWIDTH 7 0
BBX 5 9 1 -2
BITMAP
C180
C600
CC00
E900
D300
C240
C0C0
0000
0900
ENDCHAR
STARTCHAR uni1E33
ENCODING 7731
SWIDTH 600 0
DWIDTH 7 0
BBX 5 10 1 -2
BITMAP
8000
8000
8000
8240
8900
A900
9240
8080
0000
0900
ENDCHAR
STARTCHAR uni1E34
ENCODING 7732
SWIDTH 600 0
DWIDTH 7 0
BBX 5 9 1 -2
BITMAP
C180
C600
CC00
E900
D300
C240
C0C0
0000
2F40
ENDCHAR
STARTCHAR uni1E35
ENCODING 7733
SWIDTH 600 0
DWIDTH 7 0
BBX 5 10 1 -2
BITMAP
8000
8000
8000
8240
8900
A900
9240
8080
0000
2F00
ENDCHAR
STARTCHAR uni1E36
ENCODING 7734
SWIDTH 600 0
DWIDTH 7 0
BBX 5 9 1 -2
BITMAP
9000
9000
9000
9000
9000
9000
BFC0
0000
0900
ENDCHAR
STARTCHAR uni1E37
ENCODING 7735
SWIDTH 600 0
DWIDTH 7 0
BBX 6 10 0 -2
BITMAP
7E00
0600
0600
0600
0600
0600
0600
02E0
0000
0180
ENDCHAR
STARTCHAR uni1E38
ENCODING 7736
SWIDTH 600 0
DWIDTH 7 0
BBX 6 11 0 -2
BITMAP
7E00
0000
2400
2400
2400
2400
2400
2400
2FF0
0000
0240
ENDCHAR
STARTCHAR uni1E39
ENCODING 7737
SWIDTH 600 0
DWIDTH 7 0
BBX 6 12 0 -2
BITMAP
1F80
0000
7E00
0600
0600
0600
0600
0600
0600
02E0
0000
0180
ENDCHAR
STARTCHAR uni1E3A
ENCODING 7738
SWIDTH 600 0
DWIDTH 7 0
BBX 5 9 1 -2
BITMAP
9000
9000
9000
9000
9000
9000
BFC0
0000
2F40
ENDCHAR
STARTCHAR uni1E3B
ENCODING 7739
SWIDTH 600 0
DWIDTH 7 0
BBX 6 10 0 -2
BITMAP
7E00
0600
0600
0600
0600
0600
0600
02E0
0000
07E0
ENDCHAR
STARTCHAR uni1E3E
ENCODING 7742
SWIDTH 600 0
DWIDTH 7 0
BBX 6 10 0 0
BITMAP
0140
0600
0000
7060
74A0
69A0
6A60
6720
6020
6020
ENDCHAR
STARTCHAR uni1E3F
ENCODING 7743
SWIDTH 600 0
DWIDTH 7 0
BBX 6 8 0 0
BITMAP
0180
0200
0000
6EE0
6730
6220
6220
6220
ENDCHAR
STARTCHAR uni1E40
ENCODING 7744
SWIDTH 600 0
DWIDTH 7 0
BBX 6 9 0 0
BITMAP
0600
0000
7060
74A0
69A0
6A60
6720
6020
6020
ENDCHAR
STARTCHAR uni1E41
ENCODING 7745
SWIDTH 600 0
DWIDTH 7 0
BBX 6 8 0 0
BITMAP
0300
0000
0000
6EE0
6730
6220
6220
6220
ENDCHAR
STARTCHAR uni1E42
ENCODING 7746
SWIDTH 600 0
DWIDTH 7 0
BBX 6 9 0 -2
BITMAP
7060
74A0
69A0
6A60
6720
6020
6020
0000
0600
ENDCHAR
STARTCHAR uni1E43
ENCODING 7747
SWIDTH 600 0
DWIDTH 7 0
BBX 6 7 0 -2
BITMAP
6EE0
6730
6220
6220
6220
0000
0300
ENDCHAR
STARTCHAR uni1E44
ENCODING 7748
SWIDTH 600 0
DWIDTH 7 0
BBX 5 9 1 0
BITMAP
0800
0000
D180
E180
A580
9980
8980
8280
8280
ENDCHAR
STARTCHAR uni1E45
ENCODING 7749
SWIDTH 600 0
DWIDTH 7 0
BBX 5 8 1 0
BITMAP
0C00
0000
0000
9F40
D180
C080
C080
C080
ENDCHAR
STARTCHAR uni1E46
ENCODING 7750
SWIDTH 600 0
DWIDTH 7 0
BBX 5 9 1 -2
BITMAP
D180
E180
A580
9980
8980
8280
8280
0000
1800
ENDCHAR
STARTCHAR uni1E47
ENCODING 7751
SWIDTH 600 0
DWIDTH 7 0
BBX 5 7 1 -2
BITMAP
9F40
D180
C080
C080
C080
0000
0C00
ENDCHAR
STARTCHAR uni1E48
ENCODING 7752
SWIDTH 600 0
DWIDTH 7 0
BBX 5 9 1 -2
BITMAP
D180
E180
A580
9980
8980
8280
8280
0000
3E00
ENDCHAR
STARTCHAR uni1E49
ENCODING 7753
SWIDTH 600 0
DWIDTH 7 0
BBX 5 7 1 -2
BITMAP
9F40
D180
C080
C080
C080
0000
3F00
ENDCHAR
STARTCHAR uni1E52
ENCODING 7762
SWIDTH 600 0
DWIDTH 7 0
BBX 6 12 0 0
BITMAP
0140
0200
0000
1F80
0000
1B80
34A0
6030
5030
6030
34A0
1B80
ENDCHAR
STARTCHAR uni1E53
ENCODING 7763
SWIDTH 600 0
DWIDTH 7 0
BBX 6 10 0 0
BITMAP
0140
0600
0000
0F80
0000
1F80
3460
6030
3460
1F80
ENDCHAR
STARTCHAR uni1E58
ENCODING 7768
SWIDTH 600 0
DWIDTH 7 0
BBX 5 9 1 0
BITMAP
0800
0000
FE40
C180
C180
FE40
C600
C240
C180
ENDCHAR
STARTCHAR uni1E59
ENCODING 7769
SWIDTH 600 0
DWIDTH 7 0
BBX 5 8 1 0
BITMAP
0900
0000
0000
5B80
7400
6000
6000
6000
ENDCHAR
STARTCHAR uni1E5A
ENCODING 7770
SWIDTH 600 0
DWIDTH 7 0
BBX 5 9 1 -2
BITMAP
FE40
C180
C180
FE40
C600
C240
C180
0000
0C00
ENDCHAR
STARTCHAR uni1E5B
ENCODING 7771
SWIDTH 600 0
DWIDTH 7 0
BBX 5 7 1 -2
BITMAP
5B80
7400
6000
6000
6000
0000
6000
ENDCHAR
STARTCHAR uni1E5C
ENCODING 7772
SWIDTH 600 0
DWIDTH 7 0
BBX 5 11 1 -2
BITMAP
3E00
0000
FE40
C180
C180
FE40
C600
C240
C180
0000
0C00
ENDCHAR
STARTCHAR uni1E5D
ENCODING 7773
SWIDTH 600 0
DWIDTH 7 0
BBX 5 9 1 -2
BITMAP
2F40
0000
5B80
7400
6000
6000
6000
0000
6000
ENDCHAR
STARTCHAR uni1E5E
ENCODING 7774
SWIDTH 600 0
DWIDTH 7 0
BBX 5 9 1 -2
BITMAP
FE40
C180
C180
FE40
C600
C240
C180
0000
3F00
ENDCHAR
STARTCHAR uni1E5F
ENCODING 7775
SWIDTH 600 0
DWIDTH 7 0
BBX 6 7 0 -2
BITMAP
16E0
1D00
1800
1800
1800
0000
7E00
ENDCHAR
STARTCHAR uni1E60
ENCODING 7776
SWIDTH 600 0
DWIDTH 7 0
BBX 5 9 1 0
BITMAP
0C00
0000
6E00
D140
A000
1E00
0180
9180
7E40
ENDCHAR
STARTCHAR uni1E61
ENCODING 7777
SWIDTH 600 0
DWIDTH 7 0
BBX 5 8 1 0
BITMAP
1800
0000
0000
7E00
9100
2A40
8180
7E40
ENDCHAR
STARTCHAR uni1E62
ENCODING 7778
SWIDTH 600 0
DWIDTH 7 0
BBX 5 9 1 -2
BITMAP
6E00
D140
A000
1E00
0180
9180
7E40
0000
0C00
ENDCHAR
STARTCHAR uni1E63
ENCODING 7779
SWIDTH 600 0
DWIDTH 7 0
BBX 5 7 1 -2
BITMAP
7E00
9100
2A40
8180
7E40
0000
0C00
ENDCHAR
STARTCHAR uni1E6C
ENCODING 7788
SWIDTH 600 0
DWIDTH 7 0
BBX 6 9 0 -2
BITMAP
BFF0
0200
0200
0200
0200
0200
0200
0000
0600
ENDCHAR
STARTCHAR uni1E6D
ENCODING 7789
SWIDTH 600 0
DWIDTH 7 0
BBX 6 9 0 -2
BITMAP
0900
0900
7FE0
0900
0900
0900
07E0
0000
0180
ENDCHAR
STARTCHAR uni1E6E
ENCODING 7790
SWIDTH 600 0
DWIDTH 7 0
BBX 6 9 0 -2
BITMAP
BFF0
0200
0200
0200
0200
0200
0200
0000
0F80
ENDCHAR
STARTCHAR uni1E6F
ENCODING 7791
SWIDTH 600 0
DWIDTH 7 0
BBX 6 9 0 -2
BITMAP
0900
0900
7FE0
0900
0900
0900
07E0
0000
07E0
ENDCHAR
STARTCHAR uni1E7E
ENCODING 7806
SWIDTH 600 0
DWIDTH 7 0
BBX 6 9 0 -2
BITMAP
6030
3060
2490
18C0
0980
0A40
0700
0000
0600
ENDCHAR
STARTCHAR uni1E7F
ENCODING 7807
SWIDTH 600 0
DWIDTH 7 0
BBX 6 7 0 -2
BITMAP
6020
2050
1880
0940
0700
0000
0600
ENDCHAR
STARTCHAR Wgrave
ENCODING 7808
SWIDTH 600 0
DWIDTH 7 0
BBX 7 10 0 0
BITMAP
0800
0200
0000
9024
9024
9720
6A70
69A0
28A0
34A0
ENDCHAR
STARTCHAR wgrave
ENCODING 7809
SWIDTH 600 0
DWIDTH 7 0
BBX 7 8 0 0
BITMAP
0800
0600
0000
8214
9724
6960
29A0
38D0
ENDCHAR
STARTCHAR Wacute
ENCODING 7810
SWIDTH 600 0
DWIDTH 7 0
BBX 7 10 0 0
BITMAP
0140
0600
0000
9024
9024
9720
6A70
69A0
28A0
34A0
ENDCHAR
STARTCHAR wacute
ENCODING 7811
SWIDTH 600 0
DWIDTH 7 0
BBX 7 8 0 0
BITMAP
0140
0200
0000
8214
9724
6960
29A0
38D0
ENDCHAR
STARTCHAR Wdieresis
ENCODING 7812
SWIDTH 600 0
DWIDTH 7 0
BBX 7 9 0 0
BITMAP
0880
0000
9024
9024
9720
6A70
69A0
28A0
34A0
ENDCHAR
STARTCHAR wdieresis
ENCODING 7813
SWIDTH 600 0
DWIDTH 7 0
BBX 7 8 0 0
BITMAP
1880
0000
0000
8214
9724
6960
29A0
38D0
ENDCHAR
STARTCHAR uni1E8E
ENCODING 7822
SWIDTH 600 0
DWIDTH 7 0
BBX 6 9 0 0
BITMAP
0600
0000
6020
2490
1880
0A40
0600
0200
0200
ENDCHAR
STARTCHAR uni1E8F
ENCODING 7823
SWIDTH 600 0
DWIDTH 7 0
BBX 6 10 0 -2
BITMAP
0600
0000
0000
6020
2450
1880
0980
0700
0600
3800
ENDCHAR
STARTCHAR uni1E90
ENCODING 7824
SWIDTH 600 0
DWIDTH 7 0
BBX 6 9 0 0
BITMAP
0740
0880
3FF0
0090
0180
0600
0800
2400
7FF0
ENDCHAR
STARTCHAR uni1E91
ENCODING 7825
SWIDTH 600 0
DWIDTH 7 0
BBX 6 8 0 0
BITMAP
0740
0880
0000
2FE0
0180
0600
1800
7FF0
ENDCHAR
STARTCHAR uni1E92
ENCODING 7826
SWIDTH 600 0
DWIDTH 7 0
BBX 6 9 0 -2
BITMAP
3FF0
0090
0180
0600
0800
2400
7FF0
0000
0300
ENDCHAR
STARTCHAR uni1E93
ENCODING 7827
SWIDTH 600 0
DWIDTH 7 0
BBX 6 7 0 -2
BITMAP
2FE0
0180
0600
1800
7FF0
0000
0300
ENDCHAR
STARTCHAR uni1E94
ENCODING 7828
SWIDTH 600 0
DWIDTH 7 0
BBX 6 9 0 -2
BITMAP
3FF0
0090
0180
0600
0800
2400
7FF0
0000
0FC0
ENDCHAR
STARTCHAR uni1E95
ENCODING 7829
SWIDTH 600 0
DWIDTH 7 0
BBX 6 7 0 -2
BITMAP
2FE0
0180
0600
1800
7FF0
0000
0FC0
ENDCHAR
STARTCHAR uni1E96
ENCODING 7830
SWIDTH 600 0
DWIDTH 7 0
BBX 5 10 1 -2
BITMAP
C000
C000
C000
DF40
D180
C080
C080
C080
0000
3F00
ENDCHAR
STARTCHAR uni1E97
ENCODING 7831
SWIDTH 600 0
DWIDTH 7 0
BBX 6 9 0 0
BITMAP
2540
0000
0900
0900
7FE0
0900
0900
0900
07E0
ENDCHAR
STARTCHAR uni1E9E
ENCODING 7838
SWIDTH 600 0
DWIDTH 7 0
BBX 6 7 1 0
BITMAP
6E00
D240
8600
8780
80D0
84C0
8B80
ENDCHAR
STARTCHAR uni1EA0
ENCODING 7840
SWIDTH 600 0
DWIDTH 7 0
BBX 6 9 0 -2
BITMAP
0700
0A40
0880
1480
2FD0
2060
5030
0000
0600
ENDCHAR
STARTCHAR uni1EA1
ENCODING 7841
SWIDTH 600 0
DWIDTH 7 0
BBX 5 7 1 -2
BITMAP
6E00
5280
6F80
D180
BE80
0000
1800
ENDCHAR
STARTCHAR uni1EA2
ENCODING 7842
SWIDTH 600 0
DWIDTH 7 0
BBX 6 10 0 0
BITMAP
0600
0200
0200
0700
0A40
0880
1480
2FD0
2060
5030
ENDCHAR
STARTCHAR uni1EA3
ENCODING 7843
SWIDTH 600 0
DWIDTH 7 0
BBX 5 9 1 0
BITMAP
1800
0900
0800
0000
6E00
5280
6F80
D180
BE80
ENDCHAR
STARTCHAR uni1EA4
ENCODING 7844
SWIDTH 600 0
DWIDTH 7 0
BBX 6 10 0 0
BITMAP
0050
0A40
0000
0700
0A40
0880
1480
2FD0
2060
5030
ENDCHAR
STARTCHAR uni1EA5
ENCODING 7845
SWIDTH 600 0
DWIDTH 7 0
BBX 5 9 1 0
BITMAP
0080
0140
1900
0000
6E00
5280
6F80
D180
BE80
ENDCHAR
STARTCHAR uni1EA6
ENCODING 7846
SWIDTH 600 0
DWIDTH 7 0
BBX 6 10 0 0
BITMAP
1000
0A40
0000
0700
0A40
0880
1480
2FD0
2060
5030
ENDCHAR
STARTCHAR uni1EA7
ENCODING 7847
SWIDTH 600 0
DWIDTH 7 0
BBX 5 9 1 0
BITMAP
8000
5000
1900
0000
6E00
5280
6F80
D180
BE80
ENDCHAR
STARTCHAR uni1EA8
ENCODING 7848
SWIDTH 600 0
DWIDTH 7 0
BBX 6 11 0 0
BITMAP
0090
0060
0A90
0000
0700
0A40
0880
1480
2FD0
2060
5030
ENDCHAR
STARTCHAR uni1EA9
ENCODING 7849
SWIDTH 600 0
DWIDTH 7 0
BBX 5 10 1 0
BITMAP
0240
0080
0140
1900
0000
6E00
5280
6F80
D180
BE80
ENDCHAR
STARTCHAR uni1EAA
ENCODING 7850
SWIDTH 600 0
DWIDTH 7 0
BBX 6 11 0 0
BITMAP
0D80
1680
0A40
0000
0700
0A40
0880
1480
2FD0
2060
5030
ENDCHAR
STARTCHAR uni1EAB
ENCODING 7851
SWIDTH 600 0
DWIDTH 7 0
BBX 5 10 1 0
BITMAP
2500
2A00
0000
1900
0000
6E00
5280
6F80
D180
BE80
ENDCHAR
STARTCHAR uni1EAC
ENCODING 7852
SWIDTH 600 0
DWIDTH 7 0
BBX 6 11 0 -2
BITMAP
0B00
0880
0700
0A40
0880
1480
2FD0
2060
5030
0000
0600
ENDCHAR
STARTCHAR uni1EAD
ENCODING 7853
SWIDTH 600 0
DWIDTH 7 0
BBX 5 10 1 -2
BITMAP
1D00
2200
0000
6E00
5280
6F80
D180
BE80
0000
1800
ENDCHAR
STARTCHAR uni1EAE
ENCODING 7854
SWIDTH 600 0
DWIDTH 7 0
BBX 6 12 0 0
BITMAP
0140
0200
1880
0B40
0000
0700
0A40
0880
1480
2FD0
2060
5030
ENDCHAR
STARTCHAR uni1EAF
ENCODING 7855
SWIDTH 600 0
DWIDTH 7 0
BBX 5 10 1 0
BITMAP
0500
0800
2200
2E00
0000
6E00
5280
6F80
D180
BE80
ENDCHAR
STARTCHAR uni1EB0
ENCODING 7856
SWIDTH 600 0
DWIDTH 7 0
BBX 6 12 0 0
BITMAP
0800
0500
1880
0B40
0000
0700
0A40
0880
1480
2FD0
2060
5030
ENDCHAR
STARTCHAR uni1EB1
ENCODING 7857
SWIDTH 600 0
DWIDTH 7 0
BBX 5 10 1 0
BITMAP
1400
0800
2200
2E00
0000
6E00
5280
6F80
D180
BE80
ENDCHAR
STARTCHAR uni1EB2
ENCODING 7858
SWIDTH 600 0
DWIDTH 7 0
BBX 6 13 0 0
BITMAP
0600
0200
0200
1880
0B40
0000
0700
0A40
0880
1480
2FD0
2060
5030
ENDCHAR
STARTCHAR uni1EB3
ENCODING 7859
SWIDTH 600 0
DWIDTH 7 0
BBX 5 11 1 0
BITMAP
0800
0900
0800
2200
2E00
0000
6E00
5280
6F80
D180
BE80
ENDCHAR
STARTCHAR uni1EB4
ENCODING 7860
SWIDTH 600 0
DWIDTH 7 0
BBX 6 11 0 0
BITMAP
0D80
1EC0
0B40
0000
0700
0A40
0880
1480
2FD0
2060
5030
ENDCHAR
STARTCHAR uni1EB5
ENCODING 7861
SWIDTH 600 0
DWIDTH 7 0
BBX 5 10 1 0
BITMAP
2500
2A00
2200
1D00
0000
6E00
5280
6F80
D180
BE80
ENDCHAR
STARTCHAR uni1EB6
ENCODING 7862
SWIDTH 600 0
DWIDTH 7 0
BBX 6 12 0 -2
BITMAP
1880
0B40
0000
0700
0A40
0880
1480
2FD0
2060
5030
0000
0600
ENDCHAR
STARTCHAR uni1EB7
ENCODING 7863
SWIDTH 600 0
DWIDTH 7 0
BBX 5 10 1 -2
BITMAP
2200
2E00
0000
6E00
5280
6F80
D180
BE80
0000
1800
ENDCHAR
STARTCHAR uni1EB8
ENCODING 7864
SWIDTH 600 0
DWIDTH 7 0
BBX 5 9 1 -2
BITMAP
BF80
9000
9000
BF40
9000
9000
BF80
0000
0900
ENDCHAR
STARTCHAR uni1EB9
ENCODING 7865
SWIDTH 600 0
DWIDTH 7 0
BBX 6 7 0 -2
BITMAP
1B80
3460
7FF0
2410
1B90
0000
0300
ENDCHAR
STARTCHAR uni1EBA
ENCODING 7866
SWIDTH 600 0
DWIDTH 7 0
BBX 5 10 1 0
BITMAP
0D00
0500
0800
BF80
9000
9000
BF40
9000
9000
BF80
ENDCHAR
STARTCHAR uni1EBB
ENCODING 7867
SWIDTH 600 0
DWIDTH 7 0
BBX 6 9 0 0
BITMAP
0600
0240
0200
0000
1B80
3460
7FF0
2410
1B90
ENDCHAR
STARTCHAR uni1EBC
ENCODING 7868
SWIDTH 600 0
DWIDTH 7 0
BBX 5 10 1 0
BITMAP
3940
5740
0000
BF80
9000
9000
BF40
9000
9000
BF80
ENDCHAR
STARTCHAR uni1EBD
ENCODING 7869
SWIDTH 600 0
DWIDTH 7 0
BBX 6 8 0 0
BITMAP
1E50
15C0
0000
1B80
3460
7FF0
2410
1B90
ENDCHAR
STARTCHAR uni1EBE
ENCODING 7870
SWIDTH 600 0
DWIDTH 7 0
BBX 5 10 1 0
BITMAP
0040
1900
0000
BF80
9000
9000
BF40
9000
9000
BF80
ENDCHAR
STARTCHAR uni1EBF
ENCODING 7871
SWIDTH 600 0
DWIDTH 7 0
BBX 6 9 0 0
BITMAP
0020
0050
0640
0000
1B80
3460
7FF0
2410
1B90
ENDCHAR
STARTCHAR uni1EC0
ENCODING 7872
SWIDTH 600 0
DWIDTH 7 0
BBX 5 10 1 0
BITMAP
5000
1900
0000
BF80
9000
9000
BF40
9000
9000
BF80
ENDCHAR
STARTCHAR uni1EC1
ENCODING 7873
SWIDTH 600 0
DWIDTH 7 0
BBX 6 9 0 0
BITMAP
2000
1400
0640
0000
1B80
3460
7FF0
2410
1B90
ENDCHAR
STARTCHAR uni1EC2
ENCODING 7874
SWIDTH 600 0
DWIDTH 7 0
BBX 5 11 1 0
BITMAP
0180
0080
1A80
0000
BF80
9000
9000
BF40
9000
9000
BF80
ENDCHAR
STARTCHAR uni1EC3
ENCODING 7875
SWIDTH 600 0
DWIDTH 7 0
BBX 6 10 0 0
BITMAP
0090
0020
0050
0640
0000
1B80
3460
7FF0
2410
1B90
ENDCHAR
STARTCHAR uni1EC4
ENCODING 7876
SWIDTH 600 0
DWIDTH 7 0
BBX 5 11 1 0
BITMAP
2940
2700
1900
0000
BF80
9000
9000
BF40
9000
9000
BF80
ENDCHAR
STARTCHAR uni1EC5
ENCODING 7877
SWIDTH 600 0
DWIDTH 7 0
BBX 6 10 0 0
BITMAP
0940
0A80
0000
0640
0000
1B80
3460
7FF0
2410
1B90
ENDCHAR
STARTCHAR uni1EC6
ENCODING 7878
SWIDTH 600 0
DWIDTH 7 0
BBX 5 11 1 -2
BITMAP
1D00
2200
BF80
9000
9000
BF40
9000
9000
BF80
0000
0900
ENDCHAR
STARTCHAR uni1EC7
ENCODING 7879
SWIDTH 600 0
DWIDTH 7 0
BBX 6 10 0 -2
BITMAP
0740
0880
0000
1B80
3460
7FF0
2410
1B90
0000
0300
ENDCHAR
STARTCHAR uni1EC8
ENCODING 7880
SWIDTH 600 0
DWIDTH 7 0
BBX 5 10 1 0
BITMAP
1800
0800
0800
FF80
0800
0800
0800
0800
0800
FF80
ENDCHAR
STARTCHAR uni1EC9
ENCODING 7881
SWIDTH 600 0
DWIDTH 7 0
BBX 4 9 1 0
BITMAP
09
06
09
00
FD
09
09
09
09
ENDCHAR
STARTCHAR uni1ECA
ENCODING 7882
SWIDTH 600 0
DWIDTH 7 0
BBX 5 9 1 -2
BITMAP
FF80
0800
0800
0800
0800
0800
FF80
0000
1800
ENDCHAR
STARTCHAR uni1ECB
ENCODING 7883
SWIDTH 600 0
DWIDTH 7 0
BBX 4 10 1 -2
BITMAP
09
00
00
FD
09
09
09
09
00
09
ENDCHAR
STARTCHAR uni1ECC
ENCODING 7884
SWIDTH 600 0
DWIDTH 7 0
BBX 6 9 0 -2
BITMAP
1B80
34A0
6030
5030
6030
34A0
1B80
0000
0600
ENDCHAR
STARTCHAR uni1ECD
ENCODING 7885
SWIDTH 600 0
DWIDTH 7 0
BBX 6 7 0 -2
BITMAP
1F80
3460
6030
3460
1F80
0000
0600
ENDCHAR
STARTCHAR uni1ECE
ENCODING 7886
SWIDTH 600 0
DWIDTH 7 0
BBX 6 10 0 0
BITMAP
0600
0200
0200
1B80
34A0
6030
5030
6030
34A0
1B80
ENDCHAR
STARTCHAR uni1ECF
ENCODING 7887
SWIDTH 600 0
DWIDTH 7 0
BBX 6 9 0 0
BITMAP
0600
0200
0200
0000
1F80
3460
6030
3460
1F80
ENDCHAR
STARTCHAR uni1ED0
ENCODING 7888
SWIDTH 600 0
DWIDTH 7 0
BBX 6 10 0 0
BITMAP
0050
0A40
0000
1B80
34A0
6030
5030
6030
34A0
1B80
ENDCHAR
STARTCHAR uni1ED1
ENCODING 7889
SWIDTH 600 0
DWIDTH 7 0
BBX 6 9 0 0
BITMAP
0020
0050
0A40
0000
1F80
3460
6030
3460
1F80
ENDCHAR
STARTCHAR uni1ED2
ENCODING 7890
SWIDTH 600 0
DWIDTH 7 0
BBX 6 10 0 0
BITMAP
1000
0A40
0000
1B80
34A0
6030
5030
6030
34A0
1B80
ENDCHAR
STARTCHAR uni1ED3
ENCODING 7891
SWIDTH 600 0
DWIDTH 7 0
BBX 6 9 0 0
BITMAP
5000
2000
0A40
0000
1F80
3460
6030
3460
1F80
ENDCHAR
STARTCHAR uni1ED4
ENCODING 7892
SWIDTH 600 0
DWIDTH 7 0
BBX 6 11 0 0
BITMAP
0090
0060
0A90
0000
1B80
34A0
6030
5030
6030
34A0
1B80
ENDCHAR
STARTCHAR uni1ED5
ENCODING 7893
SWIDTH 600 0
DWIDTH 7 0
BBX 6 10 0 0
BITMAP
0090
0060
0050
0A40
0000
1F80
3460
6030
3460
1F80
ENDCHAR
STARTCHAR uni1ED6
ENCODING 7894
SWIDTH 600 0
DWIDTH 7 0
BBX 6 11 0 0
BITMAP
0D80
1680
0A40
0000
1B80
34A0
6030
5030
6030
34A0
1B80
ENDCHAR
STARTCHAR uni1ED7
ENCODING 7895
SWIDTH 600 0
DWIDTH 7 0
BBX 6 10 0 0
BITMAP
0940
0680
0000
0A40
0000
1F80
3460
6030
3460
1F80
ENDCHAR
STARTCHAR uni1ED8
ENCODING 7896
SWIDTH 600 0
DWIDTH 7 0
BBX 6 11 0 -2
BITMAP
0B00
0880
1B80
34A0
6030
5030
6030
34A0
1B80
0000
0600
ENDCHAR
STARTCHAR uni1ED9
ENCODING 7897
SWIDTH 600 0
DWIDTH 7 0
BBX 6 10 0 -2
BITMAP
0B40
1480
0000
1F80
3460
6030
3460
1F80
0000
0600
ENDCHAR
STARTCHAR uni1EDA
ENCODING 7898
SWIDTH 600 0
DWIDTH 7 0
BBX 6 10 0 0
BITMAP
0140
0620
0020
1BA0
34A0
6030
5030
6030
34A0
1B80
ENDCHAR
STARTCHAR uni1EDB
ENCODING 7899
SWIDTH 600 0
DWIDTH 7 0
BBX 6 8 0 0
BITMAP
0140
0220
0020
1FD0
3460
6030
3460
1F80
ENDCHAR
STARTCHAR uni1EDC
ENCODING 7900
SWIDTH 600 0
DWIDTH 7 0
BBX 6 10 0 0
BITMAP
0800
0220
0020
1BA0
34A0
6030
5030
6030
34A0
1B80
ENDCHAR
STARTCHAR uni1EDD
ENCODING 7901
SWIDTH 600 0
DWIDTH 7 0
BBX 6 8 0 0
BITMAP
0800
0620
0020
1FD0
3460
6030
3460
1F80
ENDCHAR
STARTCHAR uni1EDE
ENCODING 7902
SWIDTH 600 0
DWIDTH 7 0
BBX 6 10 0 0
BITMAP
0600
0220
0220
1BA0
34A0
6030
5030
6030
34A0
1B80
ENDCHAR
STARTCHAR uni1EDF
ENCODING 7903
SWIDTH 600 0
DWIDTH 7 0
BBX 6 9 0 0
BITMAP
0600
0200
0220
0020
1FD0
3460
6030
3460
1F80
ENDCHAR
STARTCHAR uni1EE0
ENCODING 7904
SWIDTH 600 0
DWIDTH 7 0
BBX 6 10 0 0
BITMAP
1D80
27A0
0020
1BA0
34A0
6030
5030
6030
34A0
1B80
ENDCHAR
STARTCHAR uni1EE1
ENCODING 7905
SWIDTH 600 0
DWIDTH 7 0
BBX 6 8 0 0
BITMAP
2D80
22A0
0020
1FD0
3460
6030
3460
1F80
ENDCHAR
STARTCHAR uni1EE2
ENCODING 7906
SWIDTH 600 0
DWIDTH 7 0
BBX 6 11 0 -2
BITMAP
0020
0020
1BA0
34A0
6030
5030
6030
34A0
1B80
0000
0600
ENDCHAR
STARTCHAR uni1EE3
ENCODING 7907
SWIDTH 600 0
DWIDTH 7 0
BBX 6 9 0 -2
BITMAP
0020
0020
1FD0
3460
6030
3460
1F80
0000
0600
ENDCHAR
STARTCHAR uni1EE4
ENCODING 7908
SWIDTH 600 0
DWIDTH 7 0
BBX 5 9 1 -2
BITMAP
8080
8080
8080
8080
C180
D280
7E00
0000
1800
ENDCHAR
STARTCHAR uni1EE5
ENCODING 7909
SWIDTH 600 0
DWIDTH 7 0
BBX 5 7 1 -2
BITMAP
8180
8180
8180
C280
BD80
0000
1C00
ENDCHAR
STARTCHAR uni1EE6
ENCODING 7910
SWIDTH 600 0
DWIDTH 7 0
BBX 5 10 1 0
BITMAP
1800
0800
0800
8080
8080
8080
8080
C180
D280
7E00
ENDCHAR
STARTCHAR uni1EE7
ENCODING 7911
SWIDTH 600 0
DWIDTH 7 0
BBX 5 9 1 0
BITMAP
1800
0800
0800
0000
8180
8180
8180
C280
BD80
ENDCHAR
STARTCHAR uni1EE8
ENCODING 7912
SWIDTH 600 0
DWIDTH 7 0
BBX 6 10 1 0
BITMAP
0500
1820
0030
80D0
8080
8080
8080
C180
D280
7E00
ENDCHAR
STARTCHAR uni1EE9
ENCODING 7913
SWIDTH 600 0
DWIDTH 7 0
BBX 6 8 1 0
BITMAP
0500
1850
0060
81D0
8180
8180
C280
BD80
ENDCHAR
STARTCHAR uni1EEA
ENCODING 7914
SWIDTH 600 0
DWIDTH 7 0
BBX 6 10 1 0
BITMAP
2000
0820
0030
80D0
8080
8080
8080
C180
D280
7E00
ENDCHAR
STARTCHAR uni1EEB
ENCODING 7915
SWIDTH 600 0
DWIDTH 7 0
BBX 6 8 1 0
BITMAP
2000
1850
0060
81D0
8180
8180
C280
BD80
ENDCHAR
STARTCHAR uni1EEC
ENCODING 7916
SWIDTH 600 0
DWIDTH 7 0
BBX 6 10 1 0
BITMAP
1800
0820
0830
80D0
8080
8080
8080
C180
D280
7E00
ENDCHAR
STARTCHAR uni1EED
ENCODING 7917
SWIDTH 600 0
DWIDTH 7 0
BBX 6 9 1 0
BITMAP
1800
0800
0850
0060
81D0
8180
8180
C280
BD80
ENDCHAR
STARTCHAR uni1EEE
ENCODING 7918
SWIDTH 600 0
DWIDTH 7 0
BBX 6 10 1 0
BITMAP
7540
9A20
0030
80D0
8080
8080
8080
C180
D280
7E00
ENDCHAR
STARTCHAR uni1EEF
ENCODING 7919
SWIDTH 600 0
DWIDTH 7 0
BBX 6 8 1 0
BITMAP
7600
8A50
0060
81D0
8180
8180
C280
BD80
ENDCHAR
STARTCHAR uni1EF0
ENCODING 7920
SWIDTH 600 0
DWIDTH 7 0
BBX 6 11 1 -2
BITMAP
0020
0030
80D0
8080
8080
8080
C180
D280
7E00
0000
1800
ENDCHAR
STARTCHAR uni1EF1
ENCODING 7921
SWIDTH 600 0
DWIDTH 7 0
BBX 6 9 1 -2
BITMAP
0050
0060
81D0
8180
8180
C280
BD80
0000
1C00
ENDCHAR
STARTCHAR Ygrave
ENCODING 7922
SWIDTH 600 0
DWIDTH 7 0
BBX 6 10 0 0
BITMAP
0800
0200
0000
6020
2490
1880
0A40
0600
0200
0200
ENDCHAR
STARTCHAR ygrave
ENCODING 7923
SWIDTH 600 0
DWIDTH 7 0
BBX 6 10 0 -2
BITMAP
0800
0200
0000
6020
2450
1880
0980
0700
0600
3800
ENDCHAR
STARTCHAR uni1EF4
ENCODING 7924
SWIDTH 600 0
DWIDTH 7 0
BBX 6 9 0 -2
BITMAP
6020
2490
1880
0A40
0600
0200
0200
0000
0600
ENDCHAR
STARTCHAR uni1EF5
ENCODING 7925
SWIDTH 600 0
DWIDTH 7 0
BBX 6 7 0 -2
BITMAP
6020
2450
1880
0980
0700
0600
3860
ENDCHAR
STARTCHAR uni1EF6
ENCODING 7926
SWIDTH 600 0
DWIDTH 7 0
BBX 6 10 0 0
BITMAP
0600
0200
0200
6020
2490
1880
0A40
0600
0200
0200
ENDCHAR
STARTCHAR uni1EF7
ENCODING 7927
SWIDTH 600 0
DWIDTH 7 0
BBX 6 11 0 -2
BITMAP
0600
0240
0200
0000
6020
2450
1880
0980
0700
0600
3800
ENDCHAR
STARTCHAR uni1EF8
ENCODING 7928
SWIDTH 600 0
DWIDTH 7 0
BBX 6 10 0 0
BITMAP
1D50
2680
0000
6020
2490
1880
0A40
0600
0200
0200
ENDCHAR
STARTCHAR uni1EF9
ENCODING 7929
SWIDTH 600 0
DWIDTH 7 0
BBX 6 11 0 -2
BITMAP
0400
1E80
1280
0000
6020
2450
1880
0980
0700
0600
3800
ENDCHAR
STARTCHAR uni1FBD
ENCODING 8125
SWIDTH 600 0
DWIDTH 7 0
BBX 2 3 2 6
BITMAP
60
20
20
ENDCHAR
STARTCHAR uni1FBE
ENCODING 8126
SWIDTH 600 0
DWIDTH 7 0
BBX 3 4 2 0
BITMAP
60
60
60
34
ENDCHAR
STARTCHAR uni1FBF
ENCODING 8127
SWIDTH 600 0
DWIDTH 7 0
BBX 2 3 2 6
BITMAP
60
20
20
ENDCHAR
STARTCHAR uni1FC0
ENCODING 8128
SWIDTH 600 0
DWIDTH 7 0
BBX 4 3 1 6
BITMAP
10
7A
8A
ENDCHAR
STARTCHAR uni1FC1
ENCODING 8129
SWIDTH 600 0
DWIDTH 7 0
BBX 4 4 1 6
BITMAP
36
5A
00
22
ENDCHAR
STARTCHAR uni1FCD
ENCODING 8141
SWIDTH 600 0
DWIDTH 7 0
BBX 4 3 1 6
BITMAP
69
25
21
ENDCHAR
STARTCHAR uni1FCE
ENCODING 8142
SWIDTH 600 0
DWIDTH 7 0
BBX 4 3 1 6
BITMAP
66
25
24
ENDCHAR
STARTCHAR uni1FCF
ENCODING 8143
SWIDTH 600 0
DWIDTH 7 0
BBX 4 4 1 6
BITMAP
25
6E
08
08
ENDCHAR
STARTCHAR uni1FDD
ENCODING 8157
SWIDTH 600 0
DWIDTH 7 0
BBX 4 3 1 6
BITMAP
78
55
25
ENDCHAR
STARTCHAR uni1FDE
ENCODING 8158
SWIDTH 600 0
DWIDTH 7 0
BBX 4 3 1 6
BITMAP
36
55
28
ENDCHAR
STARTCHAR uni1FDF
ENCODING 8159
SWIDTH 600 0
DWIDTH 7 0
BBX 4 4 1 6
BITMAP
25
6E
14
08
ENDCHAR
STARTCHAR uni1FED
ENCODING 8173
SWIDTH 600 0
DWIDTH 7 0
BBX 4 2 1 6
BITMAP
66
08
ENDCHAR
STARTCHAR uni1FEE
ENCODING 8174
SWIDTH 600 0
DWIDTH 7 0
BBX 4 3 1 6
BITMAP
08
5A
04
ENDCHAR
STARTCHAR uni1FEF
ENCODING 8175
SWIDTH 600 0
DWIDTH 7 0
BBX 2 2 2 6
BITMAP
50
60
ENDCHAR
STARTCHAR uni1FFD
ENCODING 8189
SWIDTH 600 0
DWIDTH 7 0
BBX 2 3 3 6
BITMAP
90
80
80
ENDCHAR
STARTCHAR uni1FFE
ENCODING 8190
SWIDTH 600 0
DWIDTH 7 0
BBX 2 3 2 6
BITMAP
70
90
60
ENDCHAR
STARTCHAR uni2007
ENCODING 8199
SWIDTH 600 0
DWIDTH 7 0
BBX 1 1 0 0
BITMAP
00
ENDCHAR
STARTCHAR uni2010
ENCODING 8208
SWIDTH 600 0
DWIDTH 7 0
BBX 5 1 1 3
BITMAP
FF80
ENDCHAR
STARTCHAR figuredash
ENCODING 8210
SWIDTH 600 0
DWIDTH 7 0
BBX 5 1 1 2
BITMAP
FF80
ENDCHAR
STARTCHAR endash
ENCODING 8211
SWIDTH 600 0
DWIDTH 7 0
BBX 5 1 1 2
BITMAP
FF80
ENDCHAR
STARTCHAR emdash
ENCODING 8212
SWIDTH 600 0
DWIDTH 7 0
BBX 7 1 0 2
BITMAP
FFF8
ENDCHAR
STARTCHAR uni2015
ENCODING 8213
SWIDTH 600 0
DWIDTH 7 0
BBX 7 1 0 2
BITMAP
FFF8
ENDCHAR
STARTCHAR uni2016
ENCODING 8214
SWIDTH 600 0
DWIDTH 7 0
BBX 4 11 1 -3
BITMAP
62
62
62
62
62
62
62
62
62
62
62
ENDCHAR
STARTCHAR underscoredbl
ENCODING 8215
SWIDTH 600 0
DWIDTH 7 0
BBX 6 2 0 -3
BITMAP
7FF0
7FF0
ENDCHAR
STARTCHAR quoteleft
ENCODING 8216
SWIDTH 600 0
DWIDTH 7 0
BBX 2 4 2 4
BITMAP
20
90
B0
70
ENDCHAR
STARTCHAR quoteright
ENCODING 8217
SWIDTH 600 0
DWIDTH 7 0
BBX 3 4 2 4
BITMAP
70
74
20
60
ENDCHAR
STARTCHAR quotesinglbase
ENCODING 8218
SWIDTH 600 0
DWIDTH 7 0
BBX 3 4 2 -2
BITMAP
70
74
20
60
ENDCHAR
STARTCHAR quotereversed
ENCODING 8219
SWIDTH 600 0
DWIDTH 7 0
BBX 2 4 2 4
BITMAP
70
B0
90
20
ENDCHAR
STARTCHAR quotedblleft
ENCODING 8220
SWIDTH 600 0
DWIDTH 7 0
BBX 5 4 1 4
BITMAP
6240
8500
E740
A740
ENDCHAR
STARTCHAR quotedblright
ENCODING 8221
SWIDTH 600 0
DWIDTH 7 0
BBX 5 4 1 4
BITMAP
A340
B380
2140
9200
ENDCHAR
STARTCHAR quotedblbase
ENCODING 8222
SWIDTH 600 0
DWIDTH 7 0
BBX 5 4 1 -2
BITMAP
A340
B380
2140
9200
ENDCHAR
STARTCHAR dagger
ENCODING 8224
SWIDTH 600 0
DWIDTH 7 0
BBX 5 10 1 -2
BITMAP
0800
0800
BF40
0800
0800
0800
0800
0800
0800
0400
ENDCHAR
STARTCHAR daggerdbl
ENCODING 8225
SWIDTH 600 0
DWIDTH 7 0
BBX 5 9 1 -1
BITMAP
0800
0800
BF40
0800
0800
0800
BF40
0800
0800
ENDCHAR
STARTCHAR bullet
ENCODING 8226
SWIDTH 600 0
DWIDTH 7 0
BBX 4 3 1 1
BITMAP
2D
7F
2D
ENDCHAR
STARTCHAR ellipsis
ENCODING 8230
SWIDTH 600 0
DWIDTH 7 0
BBX 6 2 0 0
BITMAP
6730
6730
ENDCHAR
STARTCHAR uni202F
ENCODING 8239
SWIDTH 600 0
DWIDTH 7 0
BBX 1 1 0 0
BITMAP
00
ENDCHAR
STARTCHAR perthousand
ENCODING 8240
SWIDTH 600 0
DWIDTH 7 0
BBX 6 7 0 0
BITMAP
7800
5810
7990
1400
79E0
5A60
79E0
ENDCHAR
STARTCHAR uni2032
ENCODING 8242
SWIDTH 600 0
DWIDTH 7 0
BBX 1 3 3 5
BITMAP
C0
80
80
ENDCHAR
STARTCHAR uni2033
ENCODING 8243
SWIDTH 600 0
DWIDTH 7 0
BBX 3 3 2 5
BITMAP
CC
88
84
ENDCHAR
STARTCHAR uni2035
ENCODING 8245
SWIDTH 600 0
DWIDTH 7 0
BBX 2 3 2 5
BITMAP
60
20
20
ENDCHAR
STARTCHAR guilsinglleft
ENCODING 8249
SWIDTH 600 0
DWIDTH 7 0
BBX 2 4 2 1
BITMAP
20
90
90
20
ENDCHAR
STARTCHAR guilsinglright
ENCODING 8250
SWIDTH 600 0
DWIDTH 7 0
BBX 3 4 2 1
BITMAP
50
24
24
50
ENDCHAR
STARTCHAR exclamdbl
ENCODING 8252
SWIDTH 600 0
DWIDTH 7 0
BBX 5 7 1 0
BITMAP
9200
9200
9200
8200
0000
9340
9340
ENDCHAR
STARTCHAR uni203D
ENCODING 8253
SWIDTH 600 0
DWIDTH 7 0
BBX 5 7 1 0
BITMAP
7E00
4240
1A00
1800
0000
1800
1800
ENDCHAR
STARTCHAR uni203E
ENCODING 8254
SWIDTH 600 0
DWIDTH 7 0
BBX 6 1 0 6
BITMAP
7FF0
ENDCHAR
STARTCHAR uni203F
ENCODING 8255
SWIDTH 600 0
DWIDTH 7 0
BBX 10 2 -2 -3
BITMAP
6501A0
06FE40
ENDCHAR
STARTCHAR fraction
ENCODING 8260
SWIDTH 600 0
DWIDTH 7 0
BBX 6 7 0 0
BITMAP
0020
0050
0040
0000
0400
2000
5000
ENDCHAR
STARTCHAR uni2047
ENCODING 8263
SWIDTH 600 0
DWIDTH 7 0
BBX 7 7 0 0
BITMAP
79E0
4924
1820
2080
0000
34D0
34D0
ENDCHAR
STARTCHAR uni2048
ENCODING 8264
SWIDTH 600 0
DWIDTH 7 0
BBX 6 7 0 0
BITMAP
7890
4890
1890
2040
0000
3490
3490
ENDCHAR
STARTCHAR uni2049
ENCODING 8265
SWIDTH 600 0
DWIDTH 7 0
BBX 6 7 1 0
BITMAP
9780
8490
8080
8200
0000
D340
D340
ENDCHAR
STARTCHAR zero.sups
ENCODING 8304
SWIDTH 600 0
DWIDTH 7 0
BBX 4 5 1 4
BITMAP
2D
62
52
62
2D
ENDCHAR
STARTCHAR i.sups
ENCODING 8305
SWIDTH 600 0
DWIDTH 7 0
BBX 3 6 2 4
BITMAP
24
00
F4
24
24
24
ENDCHAR
STARTCHAR four.sups
ENCODING 8308
SWIDTH 600 0
DWIDTH 7 0
BBX 4 4 1 4
BITMAP
08
25
7F
05
ENDCHAR
STARTCHAR five.sups
ENCODING 8309
SWIDTH 600 0
DWIDTH 7 0
BBX 4 5 1 4
BITMAP
3E
20
3E
52
2D
ENDCHAR
STARTCHAR six.sups
ENCODING 8310
SWIDTH 600 0
DWIDTH 7 0
BBX 4 5 1 4
BITMAP
2E
20
7E
62
2D
ENDCHAR
STARTCHAR seven.sups
ENCODING 8311
SWIDTH 600 0
DWIDTH 7 0
BBX 4 5 1 4
BITMAP
7F
05
08
08
18
ENDCHAR
STARTCHAR eight.sups
ENCODING 8312
SWIDTH 600 0
DWIDTH 7 0
BBX 4 5 1 4
BITMAP
2D
26
2D
66
2E
ENDCHAR
STARTCHAR nine.sups
ENCODING 8313
SWIDTH 600 0
DWIDTH 7 0
BBX 4 5 1 4
BITMAP
2D
52
3F
06
3D
ENDCHAR
STARTCHAR parenleft.sups
ENCODING 8317
SWIDTH 600 0
DWIDTH 7 0
BBX 2 6 2 3
BITMAP
20
20
50
50
20
20
ENDCHAR
STARTCHAR parenright.sups
ENCODING 8318
SWIDTH 600 0
DWIDTH 7 0
BBX 2 6 2 3
BITMAP
50
20
20
20
20
50
ENDCHAR
STARTCHAR n.sups
ENCODING 8319
SWIDTH 600 0
DWIDTH 7 0
BBX 3 4 2 4
BITMAP
B8
88
88
88
ENDCHAR
STARTCHAR zero.subs
ENCODING 8320
SWIDTH 600 0
DWIDTH 7 0
BBX 4 5 1 -2
BITMAP
2D
62
52
62
2D
ENDCHAR
STARTCHAR one.subs
ENCODING 8321
SWIDTH 600 0
DWIDTH 7 0
BBX 4 4 2 -2
BITMAP
B0
20
20
FD
ENDCHAR
STARTCHAR two.subs
ENCODING 8322
SWIDTH 600 0
DWIDTH 7 0
BBX 4 5 1 -2
BITMAP
2D
16
05
14
7F
ENDCHAR
STARTCHAR three.subs
ENCODING 8323
SWIDTH 600 0
DWIDTH 7 0
BBX 3 5 2 -2
BITMAP
B4
58
74
48
B4
ENDCHAR
STARTCHAR four.subs
ENCODING 8324
SWIDTH 600 0
DWIDTH 7 0
BBX 4 4 1 -2
BITMAP
08
25
7F
05
ENDCHAR
STARTCHAR five.subs
ENCODING 8325
SWIDTH 600 0
DWIDTH 7 0
BBX 4 5 1 -2
BITMAP
3E
20
3E
52
2D
ENDCHAR
STARTCHAR six.subs
ENCODING 8326
SWIDTH 600 0
DWIDTH 7 0
BBX 4 5 1 -2
BITMAP
2E
20
7E
62
2D
ENDCHAR
STARTCHAR seven.subs
ENCODING 8327
SWIDTH 600 0
DWIDTH 7 0
BBX 4 5 1 -2
BITMAP
7F
05
08
08
18
ENDCHAR
STARTCHAR eight.subs
ENCODING 8328
SWIDTH 600 0
DWIDTH 7 0
BBX 4 5 1 -2
BITMAP
2D
26
2D
66
2E
ENDCHAR
STARTCHAR nine.subs
ENCODING 8329
SWIDTH 600 0
DWIDTH 7 0
BBX 4 5 1 -2
BITMAP
2D
52
3F
06
3D
ENDCHAR
STARTCHAR parenleft.subs
ENCODING 8333
SWIDTH 600 0
DWIDTH 7 0
BBX 2 6 2 -3
BITMAP
20
20
50
50
20
20
ENDCHAR
STARTCHAR parenright.subs
ENCODING 8334
SWIDTH 600 0
DWIDTH 7 0
BBX 2 6 2 -3
BITMAP
50
20
20
20
20
50
ENDCHAR
STARTCHAR uni0259.sups
ENCODING 8340
SWIDTH 600 0
DWIDTH 7 0
BBX 4 4 1 4
BITMAP
2D
02
7F
2D
ENDCHAR
STARTCHAR colonmonetary
ENCODING 8353
SWIDTH 600 0
DWIDTH 7 0
BBX 5 9 1 -1
BITMAP
0900
1F40
6A00
8A00
C600
9600
6540
2E40
2500
ENDCHAR
STARTCHAR franc
ENCODING 8355
SWIDTH 600 0
DWIDTH 7 0
BBX 6 7 0 0
BITMAP
1FF0
1800
1800
1FD0
1800
7F40
1800
ENDCHAR
STARTCHAR lira
ENCODING 8356
SWIDTH 600 0
DWIDTH 7 0
BBX 5 7 1 0
BITMAP
2F40
6040
FF00
2000
FF00
2000
FFC0
ENDCHAR
STARTCHAR uni20A6
ENCODING 8358
SWIDTH 600 0
DWIDTH 7 0
BBX 6 7 0 0
BITMAP
2850
2850
7FF0
2250
7FF0
2190
20D0
ENDCHAR
STARTCHAR peseta
ENCODING 8359
SWIDTH 600 0
DWIDTH 7 0
BBX 7 7 0 0
BITMAP
2F80
2490
7FF4
2490
2F80
2400
2400
ENDCHAR
STARTCHAR uni20A9
ENCODING 8361
SWIDTH 600 0
DWIDTH 7 0
BBX 7 7 0 0
BITMAP
6220
2720
2660
BFF4
2990
2990
28D0
ENDCHAR
STARTCHAR dong
ENCODING 8363
SWIDTH 600 0
DWIDTH 7 0
BBX 5 8 1 0
BITMAP
0200
1FC0
0200
7F00
9200
7E00
0000
BF40
ENDCHAR
STARTCHAR Euro
ENCODING 8364
SWIDTH 600 0
DWIDTH 7 0
BBX 6 7 0 0
BITMAP
0BD0
1810
7FE0
2400
7FC0
1820
0BD0
ENDCHAR
STARTCHAR uni20AE
ENCODING 8366
SWIDTH 600 0
DWIDTH 7 0
BBX 6 7 0 0
BITMAP
7FF0
0200
0390
1A50
1740
1600
0200
ENDCHAR
STARTCHAR uni20B1
ENCODING 8369
SWIDTH 600 0
DWIDTH 7 0
BBX 7 7 0 0
BITMAP
2F80
2490
6AA4
6AA4
6AA4
2AC0
2900
ENDCHAR
STARTCHAR uni20B2
ENCODING 8370
SWIDTH 600 0
DWIDTH 7 0
BBX 5 9 1 -1
BITMAP
0800
2F40
A140
C000
C780
C080
A180
2F40
0800
ENDCHAR
STARTCHAR uni20B4
ENCODING 8372
SWIDTH 600 0
DWIDTH 7 0
BBX 6 7 0 0
BITMAP
0B80
14C0
7FF0
0A00
7FF0
2450
1F80
ENDCHAR
STARTCHAR uni20B5
ENCODING 8373
SWIDTH 600 0
DWIDTH 7 0
BBX 5 9 1 -1
BITMAP
0500
2F40
6540
8500
C500
8500
6540
2F40
0500
ENDCHAR
STARTCHAR uni20B8
ENCODING 8376
SWIDTH 600 0
DWIDTH 7 0
BBX 6 7 0 0
BITMAP
7FF0
0000
7FF0
0200
0200
0200
0200
ENDCHAR
STARTCHAR uni20B9
ENCODING 8377
SWIDTH 600 0
DWIDTH 7 0
BBX 5 7 1 0
BITMAP
BF80
0600
BF80
BE00
1800
0800
0200
ENDCHAR
STARTCHAR uni20BA
ENCODING 8378
SWIDTH 600 0
DWIDTH 7 0
BBX 6 7 0 0
BITMAP
1800
1A40
6940
1D10
5820
1990
1E40
ENDCHAR
STARTCHAR uni20BD
ENCODING 8381
SWIDTH 600 0
DWIDTH 7 0
BBX 6 7 0 0
BITMAP
1FD0
1830
1830
7FD0
1800
7FD0
1800
ENDCHAR
STARTCHAR uni2105
ENCODING 8453
SWIDTH 600 0
DWIDTH 7 0
BBX 7 7 0 0
BITMAP
7810
9450
7840
01E0
0624
2224
41E0
ENDCHAR
STARTCHAR uni2113
ENCODING 8467
SWIDTH 600 0
DWIDTH 7 0
BBX 5 8 1 0
BITMAP
1E00
2640
2200
2600
2800
3400
7400
1F00
ENDCHAR
STARTCHAR uni2116
ENCODING 8470
SWIDTH 600 0
DWIDTH 7 0
BBX 7 7 0 0
BITMAP
9374
A298
A674
9600
9AB4
8A00
C600
ENDCHAR
STARTCHAR uni2117
ENCODING 8471
SWIDTH 600 0
DWIDTH 7 0
BBX 7 7 0 0
BITMAP
1B80
2460
8A50
8F94
8810
2060
1B80
ENDCHAR
STARTCHAR uni2120
ENCODING 8480
SWIDTH 600 0
DWIDTH 7 0
BBX 7 4 0 4
BITMAP
7624
5264
56A4
7694
ENDCHAR
STARTCHAR trademark
ENCODING 8482
SWIDTH 600 0
DWIDTH 7 0
BBX 7 4 0 4
BITMAP
FA24
2264
22A4
2294
ENDCHAR
STARTCHAR uni2126
ENCODING 8486
SWIDTH 600 0
DWIDTH 7 0
BBX 7 7 0 0
BITMAP
1F80
34A0
6030
5030
6020
2490
B8F4
ENDCHAR
STARTCHAR estimated
ENCODING 8494
SWIDTH 600 0
DWIDTH 7 0
BBX 7 7 0 0
BITMAP
1F80
2060
A030
BFF4
A000
2050
1F40
ENDCHAR
STARTCHAR uni2150
ENCODING 8528
SWIDTH 600 0
DWIDTH 7 0
BBX 7 7 0 0
BITMAP
3420
1450
1440
01F4
0420
2050
5080
ENDCHAR
STARTCHAR uni2151
ENCODING 8529
SWIDTH 600 0
DWIDTH 7 0
BBX 6 7 0 0
BITMAP
3420
1450
1440
01E0
0660
21F0
51E0
ENDCHAR
STARTCHAR uni2152
ENCODING 8530
SWIDTH 600 0
DWIDTH 7 0
BBX 5 7 1 0
BITMAP
E000
6040
1640
5780
E580
6580
6380
ENDCHAR
STARTCHAR onethird
ENCODING 8531
SWIDTH 600 0
DWIDTH 7 0
BBX 6 7 0 0
BITMAP
3420
1450
1440
00E0
0420
21A0
50E0
ENDCHAR
STARTCHAR twothirds
ENCODING 8532
SWIDTH 600 0
DWIDTH 7 0
BBX 6 8 0 0
BITMAP
7800
4820
1450
BC40
00E0
0420
21A0
50E0
ENDCHAR
STARTCHAR uni2155
ENCODING 8533
SWIDTH 600 0
DWIDTH 7 0
BBX 6 7 0 0
BITMAP
3420
1450
1440
00F0
0540
21F0
51F0
ENDCHAR
STARTCHAR uni2156
ENCODING 8534
SWIDTH 600 0
DWIDTH 7 0
BBX 6 8 0 0
BITMAP
7800
4820
1450
BC40
00F0
0540
21F0
51F0
ENDCHAR
STARTCHAR uni2157
ENCODING 8535
SWIDTH 600 0
DWIDTH 7 0
BBX 6 8 0 0
BITMAP
7800
0820
6850
7840
00F0
0540
21F0
51F0
ENDCHAR
STARTCHAR uni2158
ENCODING 8536
SWIDTH 600 0
DWIDTH 7 0
BBX 6 7 0 0
BITMAP
1820
BD50
0840
00F0
0540
21F0
51F0
ENDCHAR
STARTCHAR uni2159
ENCODING 8537
SWIDTH 600 0
DWIDTH 7 0
BBX 6 7 0 0
BITMAP
3420
1450
1440
00B0
0540
21F0
50F0
ENDCHAR
STARTCHAR uni215A
ENCODING 8538
SWIDTH 600 0
DWIDTH 7 0
BBX 6 8 0 0
BITMAP
7C00
5020
7850
7840
00B0
0540
21F0
50F0
ENDCHAR
STARTCHAR oneeighth
ENCODING 8539
SWIDTH 600 0
DWIDTH 7 0
BBX 6 7 0 0
BITMAP
3420
1450
1440
01E0
05A0
21A0
51E0
ENDCHAR
STARTCHAR threeeighths
ENCODING 8540
SWIDTH 600 0
DWIDTH 7 0
BBX 6 8 0 0
BITMAP
7800
0820
6850
7840
01E0
05A0
21A0
51E0
ENDCHAR
STARTCHAR fiveeighths
ENCODING 8541
SWIDTH 600 0
DWIDTH 7 0
BBX 6 8 0 0
BITMAP
7C00
5020
7850
7840
01E0
05A0
21A0
51E0
ENDCHAR
STARTCHAR seveneighths
ENCODING 8542
SWIDTH 600 0
DWIDTH 7 0
BBX 6 8 0 0
BITMAP
BC00
0820
1450
2040
01E0
05A0
21A0
51E0
ENDCHAR
STARTCHAR uni2189
ENCODING 8585
SWIDTH 600 0
DWIDTH 7 0
BBX 6 8 0 0
BITMAP
7800
9520
9950
7840
00E0
0420
21A0
50E0
ENDCHAR
STARTCHAR uni2190
ENCODING 8592
SWIDTH 600 0
DWIDTH 7 0
BBX 7 7 0 -1
BITMAP
0100
0800
2000
BFF4
2000
0800
0100
ENDCHAR
STARTCHAR arrowup
ENCODING 8593
SWIDTH 600 0
DWIDTH 7 0
BBX 6 6 0 0
BITMAP
0600
1A80
6260
0210
0200
0200
ENDCHAR
STARTCHAR uni2192
ENCODING 8594
SWIDTH 600 0
DWIDTH 7 0
BBX 7 7 0 -1
BITMAP
0100
0140
0050
BFF4
0050
0140
0100
ENDCHAR
STARTCHAR arrowdown
ENCODING 8595
SWIDTH 600 0
DWIDTH 7 0
BBX 6 6 0 0
BITMAP
0200
0200
0210
6260
1A80
0600
ENDCHAR
STARTCHAR arrowboth
ENCODING 8596
SWIDTH 600 0
DWIDTH 7 0
BBX 7 5 0 0
BITMAP
2050
5020
FFF8
5020
2050
ENDCHAR
STARTCHAR arrowupdn
ENCODING 8597
SWIDTH 600 0
DWIDTH 7 0
BBX 5 7 1 -1
BITMAP
1800
6A40
4840
0800
4840
6A40
1800
ENDCHAR
STARTCHAR uni2196
ENCODING 8598
SWIDTH 600 0
DWIDTH 7 0
BBX 5 5 1 0
BITMAP
EA40
A000
8800
8200
4040
ENDCHAR
STARTCHAR uni2197
ENCODING 8599
SWIDTH 600 0
DWIDTH 7 0
BBX 5 5 1 0
BITMAP
6B40
0640
1940
6140
4000
ENDCHAR
STARTCHAR uni2198
ENCODING 8600
SWIDTH 600 0
DWIDTH 7 0
BBX 5 5 1 0
BITMAP
9040
2540
0940
5780
5540
ENDCHAR
STARTCHAR uni2199
ENCODING 8601
SWIDTH 600 0
DWIDTH 7 0
BBX 5 5 1 0
BITMAP
8140
8600
9800
A500
5500
ENDCHAR
STARTCHAR arrowupdnbse
ENCODING 8616
SWIDTH 600 0
DWIDTH 7 0
BBX 6 8 0 -2
BITMAP
0740
2690
0200
0200
2250
1B80
0100
7FF0
ENDCHAR
STARTCHAR uni21D0
ENCODING 8656
SWIDTH 600 0
DWIDTH 7 0
BBX 7 7 0 -1
BITMAP
0100
0800
2FF4
9000
2FF4
0800
0100
ENDCHAR
STARTCHAR uni21D1
ENCODING 8657
SWIDTH 600 0
DWIDTH 7 0
BBX 6 6 0 0
BITMAP
0600
1880
68A0
0880
0880
0880
ENDCHAR
STARTCHAR uni21D2
ENCODING 8658
SWIDTH 600 0
DWIDTH 7 0
BBX 7 7 0 -1
BITMAP
0100
0140
BFD0
0024
BFD0
0140
0100
ENDCHAR
STARTCHAR uni21D3
ENCODING 8659
SWIDTH 600 0
DWIDTH 7 0
BBX 6 6 0 0
BITMAP
0880
0880
0890
68A0
1880
0600
ENDCHAR
STARTCHAR uni2200
ENCODING 8704
SWIDTH 600 0
DWIDTH 7 0
BBX 6 7 0 0
BITMAP
5030
3060
2FD0
1480
0880
0A40
0700
ENDCHAR
STARTCHAR partialdiff
ENCODING 8706
SWIDTH 600 0
DWIDTH 7 0
BBX 5 7 1 0
BITMAP
2E00
1240
7E80
D280
8180
C300
7D00
ENDCHAR
STARTCHAR uni2203
ENCODING 8707
SWIDTH 600 0
DWIDTH 7 0
BBX 6 7 0 0
BITMAP
3FD0
0090
0090
2FD0
0090
0090
7FD0
ENDCHAR
STARTCHAR uni2206
ENCODING 8710
SWIDTH 600 0
DWIDTH 7 0
BBX 6 7 0 0
BITMAP
0700
0A40
0880
1480
2050
6020
7FF0
ENDCHAR
STARTCHAR product
ENCODING 8719
SWIDTH 600 0
DWIDTH 7 0
BBX 6 8 0 -1
BITMAP
7FF0
5030
5030
5030
5030
5030
5030
5030
ENDCHAR
STARTCHAR summation
ENCODING 8721
SWIDTH 600 0
DWIDTH 7 0
BBX 6 8 0 -1
BITMAP
3FE0
2400
0900
0200
0200
0800
2400
7FF0
ENDCHAR
STARTCHAR minus
ENCODING 8722
SWIDTH 600 0
DWIDTH 7 0
BBX 5 1 1 3
BITMAP
FF80
ENDCHAR
STARTCHAR uni2215
ENCODING 8725
SWIDTH 600 0
DWIDTH 7 0
BBX 6 7 0 0
BITMAP
0020
0050
0040
0000
0400
2000
5000
ENDCHAR
STARTCHAR uni2219
ENCODING 8729
SWIDTH 600 0
DWIDTH 7 0
BBX 2 2 2 3
BITMAP
70
70
ENDCHAR
STARTCHAR radical
ENCODING 8730
SWIDTH 600 0
DWIDTH 7 0
BBX 6 10 1 -1
BITMAP
0050
0080
0080
0080
4140
9200
2200
2600
1900
0C00
ENDCHAR
STARTCHAR infinity
ENCODING 8734
SWIDTH 600 0
DWIDTH 7 0
BBX 7 3 0 2
BITMAP
BAF4
CA18
B9F4
ENDCHAR
STARTCHAR orthogonal
ENCODING 8735
SWIDTH 600 0
DWIDTH 7 0
BBX 5 6 1 1
BITMAP
4000
8000
8000
8000
8000
FF80
ENDCHAR
STARTCHAR intersection
ENCODING 8745
SWIDTH 600 0
DWIDTH 7 0
BBX 5 6 1 0
BITMAP
2D00
9240
8180
8180
8180
4040
ENDCHAR
STARTCHAR integral
ENCODING 8747
SWIDTH 600 0
DWIDTH 7 0
BBX 3 11 2 -2
BITMAP
28
20
60
20
20
20
20
20
20
30
E0
ENDCHAR
STARTCHAR uni2237
ENCODING 8759
SWIDTH 600 0
DWIDTH 7 0
BBX 5 6 1 1
BITMAP
D280
D280
0000
0000
D280
D280
ENDCHAR
STARTCHAR approxequal
ENCODING 8776
SWIDTH 600 0
DWIDTH 7 0
BBX 5 4 1 2
BITMAP
B480
8B40
B480
8B40
ENDCHAR
STARTCHAR notequal
ENCODING 8800
SWIDTH 600 0
DWIDTH 7 0
BBX 5 6 1 0
BITMAP
0200
FF80
0800
1400
FF80
5000
ENDCHAR
STARTCHAR equivalence
ENCODING 8801
SWIDTH 600 0
DWIDTH 7 0
BBX 5 5 1 1
BITMAP
FF80
0000
FF80
0000
FF80
ENDCHAR
STARTCHAR lessequal
ENCODING 8804
SWIDTH 600 0
DWIDTH 7 0
BBX 5 6 1 0
BITMAP
0140
6E40
E000
6E40
0140
FF80
ENDCHAR
STARTCHAR greaterequal
ENCODING 8805
SWIDTH 600 0
DWIDTH 7 0
BBX 5 6 1 0
BITMAP
4000
B900
0680
B900
4000
FF80
ENDCHAR
STARTCHAR house
ENCODING 8962
SWIDTH 600 0
DWIDTH 7 0
BBX 6 7 0 0
BITMAP
0700
1980
2060
5020
5020
5020
7FF0
ENDCHAR
STARTCHAR revlogicalnot
ENCODING 8976
SWIDTH 600 0
DWIDTH 7 0
BBX 5 3 1 1
BITMAP
FF80
8000
8000
ENDCHAR
STARTCHAR uni231C
ENCODING 8988
SWIDTH 600 0
DWIDTH 7 0
BBX 4 8 2 0
BITMAP
BE
90
90
90
90
90
90
90
ENDCHAR
STARTCHAR uni231D
ENCODING 8989
SWIDTH 600 0
DWIDTH 7 0
BBX 3 8 1 0
BITMAP
FC
08
08
08
08
08
08
08
ENDCHAR
STARTCHAR uni231E
ENCODING 8990
SWIDTH 600 0
DWIDTH 7 0
BBX 4 9 2 -1
BITMAP
40
90
90
90
90
90
90
90
BE
ENDCHAR
STARTCHAR uni231F
ENCODING 8991
SWIDTH 600 0
DWIDTH 7 0
BBX 3 9 1 -1
BITMAP
04
08
08
08
08
08
08
08
FC
ENDCHAR
STARTCHAR integraltp
ENCODING 8992
SWIDTH 600 0
DWIDTH 7 0
BBX 2 14 3 -5
BITMAP
70
80
80
80
80
80
80
80
80
80
80
80
80
40
ENDCHAR
STARTCHAR integralbt
ENCODING 8993
SWIDTH 600 0
DWIDTH 7 0
BBX 3 13 1 -2
BITMAP
08
08
08
08
08
08
08
08
08
08
08
18
74
ENDCHAR
STARTCHAR uni2500
ENCODING 9472
SWIDTH 600 0
DWIDTH 7 0
BBX 8 1 -1 3
BITMAP
7FFF
ENDCHAR
STARTCHAR uni2501
ENCODING 9473
SWIDTH 600 0
DWIDTH 7 0
BBX 8 2 -1 2
BITMAP
7FFF
7FFF
ENDCHAR
STARTCHAR uni2502
ENCODING 9474
SWIDTH 600 0
DWIDTH 7 0
BBX 1 15 3 -4
BITMAP
80
80
80
80
80
80
80
80
80
80
80
80
80
80
80
ENDCHAR
STARTCHAR uni2503
ENCODING 9475
SWIDTH 600 0
DWIDTH 7 0
BBX 2 15 2 -4
BITMAP
B0
B0
B0
B0
B0
B0
B0
B0
B0
B0
B0
B0
B0
B0
B0
ENDCHAR
STARTCHAR uni2504
ENCODING 9476
SWIDTH 600 0
DWIDTH 7 0
BBX 7 1 0 3
BITMAP
B774
ENDCHAR
STARTCHAR uni2505
ENCODING 9477
SWIDTH 600 0
DWIDTH 7 0
BBX 7 2 0 2
BITMAP
B774
B774
ENDCHAR
STARTCHAR uni2506
ENCODING 9478
SWIDTH 600 0
DWIDTH 7 0
BBX 1 12 3 -3
BITMAP
80
80
80
00
80
80
80
00
40
80
80
40
ENDCHAR
STARTCHAR uni2507
ENCODING 9479
SWIDTH 600 0
DWIDTH 7 0
BBX 2 12 2 -3
BITMAP
B0
B0
B0
00
B0
B0
B0
00
00
B0
B0
B0
ENDCHAR
STARTCHAR uni2508
ENCODING 9480
SWIDTH 600 0
DWIDTH 7 0
BBX 7 1 0 3
BITMAP
AEB4
ENDCHAR
STARTCHAR uni2509
ENCODING 9481
SWIDTH 600 0
DWIDTH 7 0
BBX 7 2 0 2
BITMAP
AEB4
AEB4
ENDCHAR
STARTCHAR uni250A
ENCODING 9482
SWIDTH 600 0
DWIDTH 7 0
BBX 1 12 3 -3
BITMAP
80
80
00
80
80
00
80
80
00
00
80
80
ENDCHAR
STARTCHAR uni250B
ENCODING 9483
SWIDTH 600 0
DWIDTH 7 0
BBX 2 12 2 -3
BITMAP
B0
B0
00
B0
B0
00
B0
B0
00
00
B0
B0
ENDCHAR
STARTCHAR uni250C
ENCODING 9484
SWIDTH 600 0
DWIDTH 7 0
BBX 4 9 3 -5
BITMAP
FF
80
80
80
80
80
80
80
40
ENDCHAR
STARTCHAR uni250D
ENCODING 9485
SWIDTH 600 0
DWIDTH 7 0
BBX 4 9 3 -5
BITMAP
FF
FF
80
80
80
80
80
80
80
ENDCHAR
STARTCHAR uni250E
ENCODING 9486
SWIDTH 600 0
DWIDTH 7 0
BBX 5 9 2 -5
BITMAP
BFC0
B000
B000
B000
B000
B000
B000
B000
1000
ENDCHAR
STARTCHAR uni250F
ENCODING 9487
SWIDTH 600 0
DWIDTH 7 0
BBX 5 9 2 -5
BITMAP
BFC0
BFC0
B000
B000
B000
B000
B000
B000
7000
ENDCHAR
STARTCHAR uni2510
ENCODING 9488
SWIDTH 600 0
DWIDTH 7 0
BBX 5 9 -1 -5
BITMAP
7F80
0080
0080
0080
0080
0080
0080
0080
0040
ENDCHAR
STARTCHAR uni2511
ENCODING 9489
SWIDTH 600 0
DWIDTH 7 0
BBX 5 9 -1 -5
BITMAP
7F80
7F80
0080
0080
0080
0080
0080
0080
0080
ENDCHAR
STARTCHAR uni2512
ENCODING 9490
SWIDTH 600 0
DWIDTH 7 0
BBX 5 9 -1 -5
BITMAP
7FC0
02C0
02C0
02C0
02C0
02C0
02C0
02C0
0040
ENDCHAR
STARTCHAR uni2513
ENCODING 9491
SWIDTH 600 0
DWIDTH 7 0
BBX 5 9 -1 -5
BITMAP
7FC0
7FC0
02C0
02C0
02C0
02C0
02C0
02C0
01C0
ENDCHAR
STARTCHAR uni2514
ENCODING 9492
SWIDTH 600 0
DWIDTH 7 0
BBX 4 9 3 3
BITMAP
40
80
80
80
80
80
80
80
FF
ENDCHAR
STARTCHAR uni2515
ENCODING 9493
SWIDTH 600 0
DWIDTH 7 0
BBX 4 9 3 2
BITMAP
80
80
80
80
80
80
80
FF
FF
ENDCHAR
STARTCHAR uni2516
ENCODING 9494
SWIDTH 600 0
DWIDTH 7 0
BBX 5 9 2 3
BITMAP
1000
B000
B000
B000
B000
B000
B000
B000
BFC0
ENDCHAR
STARTCHAR uni2517
ENCODING 9495
SWIDTH 600 0
DWIDTH 7 0
BBX 5 9 2 2
BITMAP
7000
B000
B000
B000
B000
B000
B000
BFC0
BFC0
ENDCHAR
STARTCHAR uni2518
ENCODING 9496
SWIDTH 600 0
DWIDTH 7 0
BBX 5 9 -1 3
BITMAP
0040
0080
0080
0080
0080
0080
0080
0080
7F80
ENDCHAR
STARTCHAR uni2519
ENCODING 9497
SWIDTH 600 0
DWIDTH 7 0
BBX 5 9 -1 2
BITMAP
0080
0080
0080
0080
0080
0080
0080
7F80
7F80
ENDCHAR
STARTCHAR uni251A
ENCODING 9498
SWIDTH 600 0
DWIDTH 7 0
BBX 5 9 -1 3
BITMAP
0040
02C0
02C0
02C0
02C0
02C0
02C0
02C0
7FC0
ENDCHAR
STARTCHAR uni251B
ENCODING 9499
SWIDTH 600 0
DWIDTH 7 0
BBX 5 9 -1 2
BITMAP
01C0
02C0
02C0
02C0
02C0
02C0
02C0
7FC0
7FC0
ENDCHAR
STARTCHAR uni251C
ENCODING 9500
SWIDTH 600 0
DWIDTH 7 0
BBX 4 17 3 -5
BITMAP
40
80
80
80
80
80
80
80
FF
80
80
80
80
80
80
80
40
ENDCHAR
STARTCHAR uni251D
ENCODING 9501
SWIDTH 600 0
DWIDTH 7 0
BBX 4 16 3 -5
BITMAP
80
80
80
80
80
80
80
FF
FF
80
80
80
80
80
80
80
ENDCHAR
STARTCHAR uni251E
ENCODING 9502
SWIDTH 600 0
DWIDTH 7 0
BBX 5 17 2 -5
BITMAP
1000
B000
B000
B000
B000
B000
B000
B000
BFC0
2000
2000
2000
2000
2000
2000
2000
1000
ENDCHAR
STARTCHAR uni251F
ENCODING 9503
SWIDTH 600 0
DWIDTH 7 0
BBX 5 17 2 -5
BITMAP
1000
2000
2000
2000
2000
2000
2000
2000
BFC0
B000
B000
B000
B000
B000
B000
B000
1000
ENDCHAR
STARTCHAR uni2520
ENCODING 9504
SWIDTH 600 0
DWIDTH 7 0
BBX 5 17 2 -5
BITMAP
1000
B000
B000
B000
B000
B000
B000
B000
BFC0
B000
B000
B000
B000
B000
B000
B000
1000
ENDCHAR
STARTCHAR uni2521
ENCODING 9505
SWIDTH 600 0
DWIDTH 7 0
BBX 5 16 2 -5
BITMAP
7000
B000
B000
B000
B000
B000
B000
BFC0
BFC0
2000
2000
2000
2000
2000
2000
2000
ENDCHAR
STARTCHAR uni2522
ENCODING 9506
SWIDTH 600 0
DWIDTH 7 0
BBX 5 16 2 -5
BITMAP
2000
2000
2000
2000
2000
2000
2000
BFC0
BFC0
B000
B000
B000
B000
B000
B000
7000
ENDCHAR
STARTCHAR uni2523
ENCODING 9507
SWIDTH 600 0
DWIDTH 7 0
BBX 5 16 2 -5
BITMAP
7000
B000
B000
B000
B000
B000
B000
BFC0
BFC0
B000
B000
B000
B000
B000
B000
7000
ENDCHAR
STARTCHAR uni2524
ENCODING 9508
SWIDTH 600 0
DWIDTH 7 0
BBX 5 17 -1 -5
BITMAP
0040
0080
0080
0080
0080
0080
0080
0080
7F80
0080
0080
0080
0080
0080
0080
0080
0040
ENDCHAR
STARTCHAR uni2525
ENCODING 9509
SWIDTH 600 0
DWIDTH 7 0
BBX 5 16 -1 -5
BITMAP
0080
0080
0080
0080
0080
0080
0080
7F80
7F80
0080
0080
0080
0080
0080
0080
0080
ENDCHAR
STARTCHAR uni2526
ENCODING 9510
SWIDTH 600 0
DWIDTH 7 0
BBX 5 17 -1 -5
BITMAP
0040
02C0
02C0
02C0
02C0
02C0
02C0
02C0
7FC0
0080
0080
0080
0080
0080
0080
0080
0040
ENDCHAR
STARTCHAR uni2527
ENCODING 9511
SWIDTH 600 0
DWIDTH 7 0
BBX 5 17 -1 -5
BITMAP
0040
0080
0080
0080
0080
0080
0080
0080
7FC0
02C0
02C0
02C0
02C0
02C0
02C0
02C0
0040
ENDCHAR
STARTCHAR uni2528
ENCODING 9512
SWIDTH 600 0
DWIDTH 7 0
BBX 5 17 -1 -5
BITMAP
0040
02C0
02C0
02C0
02C0
02C0
02C0
02C0
7FC0
02C0
02C0
02C0
02C0
02C0
02C0
02C0
0040
ENDCHAR
STARTCHAR uni2529
ENCODING 9513
SWIDTH 600 0
DWIDTH 7 0
BBX 5 16 -1 -5
BITMAP
01C0
02C0
02C0
02C0
02C0
02C0
02C0
7FC0
7FC0
0080
0080
0080
0080
0080
0080
0080
ENDCHAR
STARTCHAR uni252A
ENCODING 9514
SWIDTH 600 0
DWIDTH 7 0
BBX 5 16 -1 -5
BITMAP
0080
0080
0080
0080
0080
0080
0080
7FC0
7FC0
02C0
02C0
02C0
02C0
02C0
02C0
01C0
ENDCHAR
STARTCHAR uni252B
ENCODING 9515
SWIDTH 600 0
DWIDTH 7 0
BBX 5 16 -1 -5
BITMAP
01C0
02C0
02C0
02C0
02C0
02C0
02C0
7FC0
7FC0
02C0
02C0
02C0
02C0
02C0
02C0
01C0
ENDCHAR
STARTCHAR uni252C
ENCODING 9516
SWIDTH 600 0
DWIDTH 7 0
BBX 8 9 -1 -5
BITMAP
7FFF
0080
0080
0080
0080
0080
0080
0080
0040
ENDCHAR
STARTCHAR uni252D
ENCODING 9517
SWIDTH 600 0
DWIDTH 7 0
BBX 8 9 -1 -5
BITMAP
7FFF
7F80
0080
0080
0080
0080
0080
0080
0080
ENDCHAR
STARTCHAR uni252E
ENCODING 9518
SWIDTH 600 0
DWIDTH 7 0
BBX 8 9 -1 -5
BITMAP
7FFF
00FF
0080
0080
0080
0080
0080
0080
0080
ENDCHAR
STARTCHAR uni252F
ENCODING 9519
SWIDTH 600 0
DWIDTH 7 0
BBX 8 9 -1 -5
BITMAP
7FFF
7FFF
0080
0080
0080
0080
0080
0080
0080
ENDCHAR
STARTCHAR uni2530
ENCODING 9520
SWIDTH 600 0
DWIDTH 7 0
BBX 8 9 -1 -5
BITMAP
7FFF
02C0
02C0
02C0
02C0
02C0
02C0
02C0
0040
ENDCHAR
STARTCHAR uni2531
ENCODING 9521
SWIDTH 600 0
DWIDTH 7 0
BBX 8 9 -1 -5
BITMAP
7FFF
7FC0
02C0
02C0
02C0
02C0
02C0
02C0
01C0
ENDCHAR
STARTCHAR uni2532
ENCODING 9522
SWIDTH 600 0
DWIDTH 7 0
BBX 8 9 -1 -5
BITMAP
7FFF
02FF
02C0
02C0
02C0
02C0
02C0
02C0
01C0
ENDCHAR
STARTCHAR uni2533
ENCODING 9523
SWIDTH 600 0
DWIDTH 7 0
BBX 8 9 -1 -5
BITMAP
7FFF
7FFF
02C0
02C0
02C0
02C0
02C0
02C0
01C0
ENDCHAR
STARTCHAR uni2534
ENCODING 9524
SWIDTH 600 0
DWIDTH 7 0
BBX 8 9 -1 3
BITMAP
0040
0080
0080
0080
0080
0080
0080
0080
7FFF
ENDCHAR
STARTCHAR uni2535
ENCODING 9525
SWIDTH 600 0
DWIDTH 7 0
BBX 8 9 -1 2
BITMAP
0080
0080
0080
0080
0080
0080
0080
7FFF
7F80
ENDCHAR
STARTCHAR uni2536
ENCODING 9526
SWIDTH 600 0
DWIDTH 7 0
BBX 8 9 -1 2
BITMAP
0080
0080
0080
0080
0080
0080
0080
7FFF
00FF
ENDCHAR
STARTCHAR uni2537
ENCODING 9527
SWIDTH 600 0
DWIDTH 7 0
BBX 8 9 -1 2
BITMAP
0080
0080
0080
0080
0080
0080
0080
7FFF
7FFF
ENDCHAR
STARTCHAR uni2538
ENCODING 9528
SWIDTH 600 0
DWIDTH 7 0
BBX 8 9 -1 3
BITMAP
0040
02C0
02C0
02C0
02C0
02C0
02C0
02C0
7FFF
ENDCHAR
STARTCHAR uni2539
ENCODING 9529
SWIDTH 600 0
DWIDTH 7 0
BBX 8 9 -1 2
BITMAP
01C0
02C0
02C0
02C0
02C0
02C0
02C0
7FFF
7FC0
ENDCHAR
STARTCHAR uni253A
ENCODING 9530
SWIDTH 600 0
DWIDTH 7 0
BBX 8 9 -1 2
BITMAP
01C0
02C0
02C0
02C0
02C0
02C0
02C0
7FFF
02FF
ENDCHAR
STARTCHAR uni253B
ENCODING 9531
SWIDTH 600 0
DWIDTH 7 0
BBX 8 9 -1 2
BITMAP
01C0
02C0
02C0
02C0
02C0
02C0
02C0
7FFF
7FFF
ENDCHAR
STARTCHAR uni253C
ENCODING 9532
SWIDTH 600 0
DWIDTH 7 0
BBX 8 17 -1 -5
BITMAP
0040
0080
0080
0080
0080
0080
0080
0080
7FFF
0080
0080
0080
0080
0080
0080
0080
0040
ENDCHAR
STARTCHAR uni253D
ENCODING 9533
SWIDTH 600 0
DWIDTH 7 0
BBX 8 16 -1 -5
BITMAP
0080
0080
0080
0080
0080
0080
0080
7FFF
7F80
0080
0080
0080
0080
0080
0080
0080
ENDCHAR
STARTCHAR uni253E
ENCODING 9534
SWIDTH 600 0
DWIDTH 7 0
BBX 8 16 -1 -5
BITMAP
0080
0080
0080
0080
0080
0080
0080
7FFF
00FF
0080
0080
0080
0080
0080
0080
0080
ENDCHAR
STARTCHAR uni253F
ENCODING 9535
SWIDTH 600 0
DWIDTH 7 0
BBX 8 16 -1 -5
BITMAP
0080
0080
0080
0080
0080
0080
0080
7FFF
7FFF
0080
0080
0080
0080
0080
0080
0080
ENDCHAR
STARTCHAR uni2540
ENCODING 9536
SWIDTH 600 0
DWIDTH 7 0
BBX 8 17 -1 -5
BITMAP
0040
02C0
02C0
02C0
02C0
02C0
02C0
02C0
7FFF
0080
0080
0080
0080
0080
0080
0080
0040
ENDCHAR
STARTCHAR uni2541
ENCODING 9537
SWIDTH 600 0
DWIDTH 7 0
BBX 8 17 -1 -5
BITMAP
0040
0080
0080
0080
0080
0080
0080
0080
7FFF
02C0
02C0
02C0
02C0
02C0
02C0
02C0
0040
ENDCHAR
STARTCHAR uni2542
ENCODING 9538
SWIDTH 600 0
DWIDTH 7 0
BBX 8 17 -1 -5
BITMAP
0040
02C0
02C0
02C0
02C0
02C0
02C0
02C0
7FFF
02C0
02C0
02C0
02C0
02C0
02C0
02C0
0040
ENDCHAR
STARTCHAR uni2543
ENCODING 9539
SWIDTH 600 0
DWIDTH 7 0
BBX 8 16 -1 -5
BITMAP
01C0
02C0
02C0
02C0
02C0
02C0
02C0
7FFF
7FC0
0080
0080
0080
0080
0080
0080
0080
ENDCHAR
STARTCHAR uni2544
ENCODING 9540
SWIDTH 600 0
DWIDTH 7 0
BBX 8 16 -1 -5
BITMAP
01C0
02C0
02C0
02C0
02C0
02C0
02C0
7FFF
02FF
0080
0080
0080
0080
0080
0080
0080
ENDCHAR
STARTCHAR uni2545
ENCODING 9541
SWIDTH 600 0
DWIDTH 7 0
BBX 8 16 -1 -5
BITMAP
0080
0080
0080
0080
0080
0080
0080
7FFF
7FC0
02C0
02C0
02C0
02C0
02C0
02C0
01C0
ENDCHAR
STARTCHAR uni2546
ENCODING 9542
SWIDTH 600 0
DWIDTH 7 0
BBX 8 16 -1 -5
BITMAP
0080
0080
0080
0080
0080
0080
0080
7FFF
02FF
02C0
02C0
02C0
02C0
02C0
02C0
01C0
ENDCHAR
STARTCHAR uni2547
ENCODING 9543
SWIDTH 600 0
DWIDTH 7 0
BBX 8 16 -1 -5
BITMAP
01C0
02C0
02C0
02C0
02C0
02C0
02C0
7FFF
7FFF
0080
0080
0080
0080
0080
0080
0080
ENDCHAR
STARTCHAR uni2548
ENCODING 9544
SWIDTH 600 0
DWIDTH 7 0
BBX 8 16 -1 -5
BITMAP
0080
0080
0080
0080
0080
0080
0080
7FFF
7FFF
02C0
02C0
02C0
02C0
02C0
02C0
01C0
ENDCHAR
STARTCHAR uni2549
ENCODING 9545
SWIDTH 600 0
DWIDTH 7 0
BBX 8 16 -1 -5
BITMAP
01C0
02C0
02C0
02C0
02C0
02C0
02C0
7FFF
7FC0
02C0
02C0
02C0
02C0
02C0
02C0
01C0
ENDCHAR
STARTCHAR uni254A
ENCODING 9546
SWIDTH 600 0
DWIDTH 7 0
BBX 8 16 -1 -5
BITMAP
01C0
02C0
02C0
02C0
02C0
02C0
02C0
7FFF
02FF
02C0
02C0
02C0
02C0
02C0
02C0
01C0
ENDCHAR
STARTCHAR uni254B
ENCODING 9547
SWIDTH 600 0
DWIDTH 7 0
BBX 8 16 -1 -5
BITMAP
01C0
02C0
02C0
02C0
02C0
02C0
02C0
7FFF
7FFF
02C0
02C0
02C0
02C0
02C0
02C0
01C0
ENDCHAR
STARTCHAR uni254C
ENCODING 9548
SWIDTH 600 0
DWIDTH 7 0
BBX 6 1 0 3
BITMAP
74E0
ENDCHAR
STARTCHAR uni254D
ENCODING 9549
SWIDTH 600 0
DWIDTH 7 0
BBX 6 2 0 2
BITMAP
74E0
74E0
ENDCHAR
STARTCHAR uni254E
ENCODING 9550
SWIDTH 600 0
DWIDTH 7 0
BBX 1 10 3 -2
BITMAP
80
80
80
40
00
00
40
80
80
80
ENDCHAR
STARTCHAR uni254F
ENCODING 9551
SWIDTH 600 0
DWIDTH 7 0
BBX 2 10 2 -2
BITMAP
B0
B0
B0
00
00
00
60
B0
B0
60
ENDCHAR
STARTCHAR uni2550
ENCODING 9552
SWIDTH 600 0
DWIDTH 7 0
BBX 8 3 -1 2
BITMAP
7FFF
0000
7FFF
ENDCHAR
STARTCHAR uni2551
ENCODING 9553
SWIDTH 600 0
DWIDTH 7 0
BBX 3 15 2 -4
BITMAP
D8
D8
D8
D8
D8
D8
D8
D8
D8
D8
D8
D8
D8
D8
D8
ENDCHAR
STARTCHAR uni2552
ENCODING 9554
SWIDTH 600 0
DWIDTH 7 0
BBX 4 10 3 -5
BITMAP
FF
80
FF
80
80
80
80
80
80
40
ENDCHAR
STARTCHAR uni2553
ENCODING 9555
SWIDTH 600 0
DWIDTH 7 0
BBX 5 9 2 -5
BITMAP
FFC0
D800
D800
D800
D800
D800
D800
D800
4000
ENDCHAR
STARTCHAR uni2554
ENCODING 9556
SWIDTH 600 0
DWIDTH 7 0
BBX 5 10 2 -5
BITMAP
FFC0
C000
DFC0
D800
D800
D800
D800
D800
D800
0400
ENDCHAR
STARTCHAR uni2555
ENCODING 9557
SWIDTH 600 0
DWIDTH 7 0
BBX 5 10 -1 -5
BITMAP
7F80
0080
7F80
0080
0080
0080
0080
0080
0080
0040
ENDCHAR
STARTCHAR uni2556
ENCODING 9558
SWIDTH 600 0
DWIDTH 7 0
BBX 6 9 -1 -5
BITMAP
7FE0
0360
0360
0360
0360
0360
0360
0360
0100
ENDCHAR
STARTCHAR uni2557
ENCODING 9559
SWIDTH 600 0
DWIDTH 7 0
BBX 6 10 -1 -5
BITMAP
7FE0
0060
7F60
0360
0360
0360
0360
0360
0360
0100
ENDCHAR
STARTCHAR uni2558
ENCODING 9560
SWIDTH 600 0
DWIDTH 7 0
BBX 4 10 3 2
BITMAP
40
80
80
80
80
80
80
FF
80
FF
ENDCHAR
STARTCHAR uni2559
ENCODING 9561
SWIDTH 600 0
DWIDTH 7 0
BBX 5 9 2 3
BITMAP
4000
D800
D800
D800
D800
D800
D800
D800
FFC0
ENDCHAR
STARTCHAR uni255A
ENCODING 9562
SWIDTH 600 0
DWIDTH 7 0
BBX 5 10 2 2
BITMAP
0400
D800
D800
D800
D800
D800
D800
DFC0
C000
FFC0
ENDCHAR
STARTCHAR uni255B
ENCODING 9563
SWIDTH 600 0
DWIDTH 7 0
BBX 5 10 -1 2
BITMAP
0040
0080
0080
0080
0080
0080
0080
7F80
0080
7F80
ENDCHAR
STARTCHAR uni255C
ENCODING 9564
SWIDTH 600 0
DWIDTH 7 0
BBX 6 9 -1 3
BITMAP
0100
0360
0360
0360
0360
0360
0360
0360
7FE0
ENDCHAR
STARTCHAR uni255D
ENCODING 9565
SWIDTH 600 0
DWIDTH 7 0
BBX 6 10 -1 2
BITMAP
0100
0360
0360
0360
0360
0360
0360
7F60
0060
7FE0
ENDCHAR
STARTCHAR uni255E
ENCODING 9566
SWIDTH 600 0
DWIDTH 7 0
BBX 4 17 3 -5
BITMAP
40
80
80
80
80
80
80
FF
80
FF
80
80
80
80
80
80
40
ENDCHAR
STARTCHAR uni255F
ENCODING 9567
SWIDTH 600 0
DWIDTH 7 0
BBX 5 16 2 -5
BITMAP
D800
D800
D800
D800
D800
D800
D800
DFC0
D800
D800
D800
D800
D800
D800
D800
4000
ENDCHAR
STARTCHAR uni2560
ENCODING 9568
SWIDTH 600 0
DWIDTH 7 0
BBX 5 17 2 -5
BITMAP
0400
D800
D800
D800
D800
D800
D800
DFC0
C000
DFC0
D800
D800
D800
D800
D800
D800
4400
ENDCHAR
STARTCHAR uni2561
ENCODING 9569
SWIDTH 600 0
DWIDTH 7 0
BBX 5 17 -1 -5
BITMAP
0040
0080
0080
0080
0080
0080
0080
7F80
0080
7F80
0080
0080
0080
0080
0080
0080
0040
ENDCHAR
STARTCHAR uni2562
ENCODING 9570
SWIDTH 600 0
DWIDTH 7 0
BBX 6 17 -1 -5
BITMAP
0100
0360
0360
0360
0360
0360
0360
0360
7F60
0360
0360
0360
0360
0360
0360
0360
0110
ENDCHAR
STARTCHAR uni2563
ENCODING 9571
SWIDTH 600 0
DWIDTH 7 0
BBX 6 17 -1 -5
BITMAP
0100
0360
0360
0360
0360
0360
0360
7F60
0060
7F60
0360
0360
0360
0360
0360
0360
0110
ENDCHAR
STARTCHAR uni2564
ENCODING 9572
SWIDTH 600 0
DWIDTH 7 0
BBX 8 10 -1 -5
BITMAP
7FFF
0000
7FFF
0080
0080
0080
0080
0080
0080
0040
ENDCHAR
STARTCHAR uni2565
ENCODING 9573
SWIDTH 600 0
DWIDTH 7 0
BBX 8 9 -1 -5
BITMAP
7FFF
0360
0360
0360
0360
0360
0360
0360
0100
ENDCHAR
STARTCHAR uni2566
ENCODING 9574
SWIDTH 600 0
DWIDTH 7 0
BBX 8 10 -1 -5
BITMAP
7FFF
0000
7F7F
0360
0360
0360
0360
0360
0360
0110
ENDCHAR
STARTCHAR uni2567
ENCODING 9575
SWIDTH 600 0
DWIDTH 7 0
BBX 8 10 -1 2
BITMAP
0040
0080
0080
0080
0080
0080
0080
7FFF
0000
7FFF
ENDCHAR
STARTCHAR uni2568
ENCODING 9576
SWIDTH 600 0
DWIDTH 7 0
BBX 8 9 -1 3
BITMAP
0100
0360
0360
0360
0360
0360
0360
0360
7FFF
ENDCHAR
STARTCHAR uni2569
ENCODING 9577
SWIDTH 600 0
DWIDTH 7 0
BBX 8 10 -1 2
BITMAP
0110
0360
0360
0360
0360
0360
0360
7F7F
0000
7FFF
ENDCHAR
STARTCHAR uni256A
ENCODING 9578
SWIDTH 600 0
DWIDTH 7 0
BBX 8 17 -1 -5
BITMAP
0040
0080
0080
0080
0080
0080
0080
7FFF
0080
7FFF
0080
0080
0080
0080
0080
0080
0040
ENDCHAR
STARTCHAR uni256B
ENCODING 9579
SWIDTH 600 0
DWIDTH 7 0
BBX 8 17 -1 -5
BITMAP
0100
0360
0360
0360
0360
0360
0360
0360
7FFF
0360
0360
0360
0360
0360
0360
0360
0100
ENDCHAR
STARTCHAR uni256C
ENCODING 9580
SWIDTH 600 0
DWIDTH 7 0
BBX 8 17 -1 -5
BITMAP
0110
0360
0360
0360
0360
0360
0360
7F7F
0000
7F7F
0360
0360
0360
0360
0360
0360
0110
ENDCHAR
STARTCHAR uni256D
ENCODING 9581
SWIDTH 600 0
DWIDTH 7 0
BBX 4 9 3 -5
BITMAP
1B
74
80
80
80
80
80
80
40
ENDCHAR
STARTCHAR uni256E
ENCODING 9582
SWIDTH 600 0
DWIDTH 7 0
BBX 5 9 -1 -5
BITMAP
7800
0600
0240
0180
0080
0080
0080
0080
0040
ENDCHAR
STARTCHAR uni256F
ENCODING 9583
SWIDTH 600 0
DWIDTH 7 0
BBX 5 9 -1 3
BITMAP
0040
0080
0080
0080
0080
0180
0240
0600
7800
ENDCHAR
STARTCHAR uni2570
ENCODING 9584
SWIDTH 600 0
DWIDTH 7 0
BBX 4 9 3 3
BITMAP
40
80
80
80
80
80
80
74
1B
ENDCHAR
STARTCHAR uni2571
ENCODING 9585
SWIDTH 600 0
DWIDTH 7 0
BBX 7 13 0 -3
BITMAP
0008
0024
0020
0090
0180
0240
0600
0900
1800
2400
6000
9000
8000
ENDCHAR
STARTCHAR uni2572
ENCODING 9586
SWIDTH 600 0
DWIDTH 7 0
BBX 7 13 0 -3
BITMAP
8000
9000
6000
2400
1800
0900
0600
0240
0180
0090
0020
0024
0008
ENDCHAR
STARTCHAR uni2573
ENCODING 9587
SWIDTH 600 0
DWIDTH 7 0
BBX 7 13 0 -3
BITMAP
8008
9024
6020
2490
1880
0A40
0700
0A40
1880
2490
6020
9024
8008
ENDCHAR
STARTCHAR uni2574
ENCODING 9588
SWIDTH 600 0
DWIDTH 7 0
BBX 5 1 -1 3
BITMAP
7F80
ENDCHAR
STARTCHAR uni2575
ENCODING 9589
SWIDTH 600 0
DWIDTH 7 0
BBX 1 8 3 3
BITMAP
80
80
80
80
80
80
80
80
ENDCHAR
STARTCHAR uni2576
ENCODING 9590
SWIDTH 600 0
DWIDTH 7 0
BBX 4 1 3 3
BITMAP
FF
ENDCHAR
STARTCHAR uni2577
ENCODING 9591
SWIDTH 600 0
DWIDTH 7 0
BBX 1 8 3 -4
BITMAP
80
80
80
80
80
80
80
80
ENDCHAR
STARTCHAR uni2578
ENCODING 9592
SWIDTH 600 0
DWIDTH 7 0
BBX 5 2 -1 2
BITMAP
7F80
7F80
ENDCHAR
STARTCHAR uni2579
ENCODING 9593
SWIDTH 600 0
DWIDTH 7 0
BBX 2 8 2 3
BITMAP
B0
B0
B0
B0
B0
B0
B0
B0
ENDCHAR
STARTCHAR uni257A
ENCODING 9594
SWIDTH 600 0
DWIDTH 7 0
BBX 4 2 3 2
BITMAP
FF
FF
ENDCHAR
STARTCHAR uni257B
ENCODING 9595
SWIDTH 600 0
DWIDTH 7 0
BBX 2 8 2 -4
BITMAP
B0
B0
B0
B0
B0
B0
B0
B0
ENDCHAR
STARTCHAR uni257C
ENCODING 9596
SWIDTH 600 0
DWIDTH 7 0
BBX 8 3 -1 2
BITMAP
0055
7FFF
0055
ENDCHAR
STARTCHAR uni257D
ENCODING 9597
SWIDTH 600 0
DWIDTH 7 0
BBX 2 15 2 -4
BITMAP
20
20
20
20
20
20
20
B0
B0
B0
B0
B0
B0
B0
B0
ENDCHAR
STARTCHAR uni257E
ENCODING 9598
SWIDTH 600 0
DWIDTH 7 0
BBX 8 3 -1 2
BITMAP
5540
7FFF
5540
ENDCHAR
STARTCHAR uni257F
ENCODING 9599
SWIDTH 600 0
DWIDTH 7 0
BBX 2 15 2 -4
BITMAP
B0
B0
B0
B0
B0
B0
B0
B0
20
20
20
20
20
20
20
ENDCHAR
STARTCHAR uni2580
ENCODING 9600
SWIDTH 600 0
DWIDTH 7 0
BBX 7 8 0 3
BITMAP
FFF8
FFF8
FFF8
FFF8
FFF8
FFF8
FFF8
FFF8
ENDCHAR
STARTCHAR uni2581
ENCODING 9601
SWIDTH 600 0
DWIDTH 7 0
BBX 7 2 0 -4
BITMAP
FFF8
FFF8
ENDCHAR
STARTCHAR uni2582
ENCODING 9602
SWIDTH 600 0
DWIDTH 7 0
BBX 7 3 0 -4
BITMAP
FFF8
FFF8
FFF8
ENDCHAR
STARTCHAR uni2583
ENCODING 9603
SWIDTH 600 0
DWIDTH 7 0
BBX 7 5 0 -4
BITMAP
FFF8
FFF8
FFF8
FFF8
FFF8
ENDCHAR
STARTCHAR uni2584
ENCODING 9604
SWIDTH 600 0
DWIDTH 7 0
BBX 7 7 0 -4
BITMAP
FFF8
FFF8
FFF8
FFF8
FFF8
FFF8
FFF8
ENDCHAR
STARTCHAR uni2585
ENCODING 9605
SWIDTH 600 0
DWIDTH 7 0
BBX 7 9 0 -4
BITMAP
FFF8
FFF8
FFF8
FFF8
FFF8
FFF8
FFF8
FFF8
FFF8
ENDCHAR
STARTCHAR uni2586
ENCODING 9606
SWIDTH 600 0
DWIDTH 7 0
BBX 7 11 0 -4
BITMAP
FFF8
FFF8
FFF8
FFF8
FFF8
FFF8
FFF8
FFF8
FFF8
FFF8
FFF8
ENDCHAR
STARTCHAR uni2587
ENCODING 9607
SWIDTH 600 0
DWIDTH 7 0
BBX 7 13 0 -4
BITMAP
FFF8
FFF8
FFF8
FFF8
FFF8
FFF8
FFF8
FFF8
FFF8
FFF8
FFF8
FFF8
FFF8
ENDCHAR
STARTCHAR uni2588
ENCODING 9608
SWIDTH 600 0
DWIDTH 7 0
BBX 7 15 0 -4
BITMAP
FFF8
FFF8
FFF8
FFF8
FFF8
FFF8
FFF8
FFF8
FFF8
FFF8
FFF8
FFF8
FFF8
FFF8
FFF8
ENDCHAR
STARTCHAR uni2589
ENCODING 9609
SWIDTH 600 0
DWIDTH 7 0
BBX 6 15 0 -4
BITMAP
FFE0
FFE0
FFE0
FFE0
FFE0
FFE0
FFE0
FFE0
FFE0
FFE0
FFE0
FFE0
FFE0
FFE0
FFE0
ENDCHAR
STARTCHAR uni258A
ENCODING 9610
SWIDTH 600 0
DWIDTH 7 0
BBX 5 15 0 -4
BITMAP
FFC0
FFC0
FFC0
FFC0
FFC0
FFC0
FFC0
FFC0
FFC0
FFC0
FFC0
FFC0
FFC0
FFC0
FFC0
ENDCHAR
STARTCHAR uni258B
ENCODING 9611
SWIDTH 600 0
DWIDTH 7 0
BBX 4 15 0 -4
BITMAP
FF
FF
FF
FF
FF
FF
FF
FF
FF
FF
FF
FF
FF
FF
FF
ENDCHAR
STARTCHAR uni258C
ENCODING 9612
SWIDTH 600 0
DWIDTH 7 0
BBX 4 15 0 -4
BITMAP
FD
FD
FD
FD
FD
FD
FD
FD
FD
FD
FD
FD
FD
FD
FD
ENDCHAR
STARTCHAR uni258D
ENCODING 9613
SWIDTH 600 0
DWIDTH 7 0
BBX 3 15 0 -4
BITMAP
F4
F4
F4
F4
F4
F4
F4
F4
F4
F4
F4
F4
F4
F4
F4
ENDCHAR
STARTCHAR uni258E
ENCODING 9614
SWIDTH 600 0
DWIDTH 7 0
BBX 2 15 0 -4
BITMAP
E0
E0
E0
E0
E0
E0
E0
E0
E0
E0
E0
E0
E0
E0
E0
ENDCHAR
STARTCHAR uni258F
ENCODING 9615
SWIDTH 600 0
DWIDTH 7 0
BBX 1 15 0 -4
BITMAP
80
80
80
80
80
80
80
80
80
80
80
80
80
80
80
ENDCHAR
STARTCHAR uni2590
ENCODING 9616
SWIDTH 600 0
DWIDTH 7 0
BBX 4 15 3 -4
BITMAP
BE
BE
BE
BE
BE
BE
BE
BE
BE
BE
BE
BE
BE
BE
BE
ENDCHAR
STARTCHAR uni2591
ENCODING 9617
SWIDTH 600 0
DWIDTH 7 0
BBX 5 15 1 -5
BITMAP
4440
1100
4440
1100
4440
1100
4440
1100
4440
0000
0000
4440
1100
4440
1100
ENDCHAR
STARTCHAR uni2592
ENCODING 9618
SWIDTH 600 0
DWIDTH 7 0
BBX 7 16 -1 -5
BITMAP
198C
0000
5514
1488
5110
198C
5110
1488
5514
1548
1554
1554
1548
5514
1488
5110
ENDCHAR
STARTCHAR uni2593
ENCODING 9619
SWIDTH 600 0
DWIDTH 7 0
BBX 8 16 -1 -5
BITMAP
29DD
2998
6AA8
2EDD
6A74
2DDD
6A74
2EDD
6AA4
2EED
6AA8
6AA8
2AED
6AA8
2EDD
5670
ENDCHAR
STARTCHAR uni2594
ENCODING 9620
SWIDTH 600 0
DWIDTH 7 0
BBX 7 2 0 9
BITMAP
FFF8
FFF8
ENDCHAR
STARTCHAR uni2595
ENCODING 9621
SWIDTH 600 0
DWIDTH 7 0
BBX 2 15 5 -4
BITMAP
60
60
60
60
60
60
60
60
60
60
60
60
60
60
60
ENDCHAR
STARTCHAR uni2596
ENCODING 9622
SWIDTH 600 0
DWIDTH 7 0
BBX 4 7 0 -4
BITMAP
FD
FD
FD
FD
FD
FD
FD
ENDCHAR
STARTCHAR uni2597
ENCODING 9623
SWIDTH 600 0
DWIDTH 7 0
BBX 4 7 3 -4
BITMAP
BE
BE
BE
BE
BE
BE
BE
ENDCHAR
STARTCHAR uni2598
ENCODING 9624
SWIDTH 600 0
DWIDTH 7 0
BBX 4 8 0 3
BITMAP
FD
FD
FD
FD
FD
FD
FD
FD
ENDCHAR
STARTCHAR uni2599
ENCODING 9625
SWIDTH 600 0
DWIDTH 7 0
BBX 7 15 0 -4
BITMAP
FD00
FD00
FD00
FD00
FD00
FD00
FD00
FD00
FFF8
FFF8
FFF8
FFF8
FFF8
FFF8
FFF8
ENDCHAR
STARTCHAR uni259A
ENCODING 9626
SWIDTH 600 0
DWIDTH 7 0
BBX 7 15 0 -4
BITMAP
FD00
FD00
FD00
FD00
FD00
FD00
FD00
FD00
02F8
02F8
02F8
02F8
02F8
02F8
02F8
ENDCHAR
STARTCHAR uni259B
ENCODING 9627
SWIDTH 600 0
DWIDTH 7 0
BBX 7 15 0 -4
BITMAP
FFF8
FFF8
FFF8
FFF8
FFF8
FFF8
FFF8
FFF8
FD00
FD00
FD00
FD00
FD00
FD00
FD00
ENDCHAR
STARTCHAR uni259C
ENCODING 9628
SWIDTH 600 0
DWIDTH 7 0
BBX 7 15 0 -4
BITMAP
FFF8
FFF8
FFF8
FFF8
FFF8
FFF8
FFF8
FFF8
02F8
02F8
02F8
02F8
02F8
02F8
02F8
ENDCHAR
STARTCHAR uni259D
ENCODING 9629
SWIDTH 600 0
DWIDTH 7 0
BBX 4 8 3 3
BITMAP
BE
BE
BE
BE
BE
BE
BE
BE
ENDCHAR
STARTCHAR uni259E
ENCODING 9630
SWIDTH 600 0
DWIDTH 7 0
BBX 7 15 0 -4
BITMAP
02F8
02F8
02F8
02F8
02F8
02F8
02F8
02F8
FD00
FD00
FD00
FD00
FD00
FD00
FD00
ENDCHAR
STARTCHAR uni259F
ENCODING 9631
SWIDTH 600 0
DWIDTH 7 0
BBX 7 15 0 -4
BITMAP
02F8
02F8
02F8
02F8
02F8
02F8
02F8
02F8
FFF8
FFF8
FFF8
FFF8
FFF8
FFF8
FFF8
ENDCHAR
STARTCHAR uni25A0
ENCODING 9632
SWIDTH 600 0
DWIDTH 7 0
BBX 5 5 1 1
BITMAP
FF80
FF80
FF80
FF80
FF80
ENDCHAR
STARTCHAR uni25A1
ENCODING 9633
SWIDTH 600 0
DWIDTH 7 0
BBX 6 5 0 1
BITMAP
7FE0
5020
5020
5020
7FE0
ENDCHAR
STARTCHAR uni25AA
ENCODING 9642
SWIDTH 600 0
DWIDTH 7 0
BBX 4 3 1 1
BITMAP
7E
7E
7E
ENDCHAR
STARTCHAR uni25AB
ENCODING 9643
SWIDTH 600 0
DWIDTH 7 0
BBX 4 4 1 1
BITMAP
7F
52
52
7F
ENDCHAR
STARTCHAR filledrect
ENCODING 9644
SWIDTH 600 0
DWIDTH 7 0
BBX 7 1 0 2
BITMAP
FFF8
ENDCHAR
STARTCHAR triagup
ENCODING 9650
SWIDTH 600 0
DWIDTH 7 0
BBX 5 5 1 1
BITMAP
0400
2C00
3E00
BF00
FF80
ENDCHAR
STARTCHAR uni25B3
ENCODING 9651
SWIDTH 600 0
DWIDTH 7 0
BBX 5 5 1 1
BITMAP
0400
1100
1100
4040
FF80
ENDCHAR
STARTCHAR uni25B4
ENCODING 9652
SWIDTH 600 0
DWIDTH 7 0
BBX 4 3 1 2
BITMAP
08
2D
7E
ENDCHAR
STARTCHAR uni25B5
ENCODING 9653
SWIDTH 600 0
DWIDTH 7 0
BBX 4 4 1 1
BITMAP
04
14
11
7F
ENDCHAR
STARTCHAR uni25B6
ENCODING 9654
SWIDTH 600 0
DWIDTH 7 0
BBX 6 5 0 1
BITMAP
6000
7E40
7FE0
7F40
7400
ENDCHAR
STARTCHAR uni25B7
ENCODING 9655
SWIDTH 600 0
DWIDTH 7 0
BBX 6 5 0 1
BITMAP
5000
5000
50A0
5B40
7400
ENDCHAR
STARTCHAR uni25B8
ENCODING 9656
SWIDTH 600 0
DWIDTH 7 0
BBX 4 4 1 1
BITMAP
20
7D
7D
20
ENDCHAR
STARTCHAR uni25B9
ENCODING 9657
SWIDTH 600 0
DWIDTH 7 0
BBX 4 4 1 1
BITMAP
60
55
55
60
ENDCHAR
STARTCHAR triagrt
ENCODING 9658
SWIDTH 600 0
DWIDTH 7 0
BBX 7 5 0 1
BITMAP
A000
BE40
BFF4
BF80
A400
ENDCHAR
STARTCHAR triagdn
ENCODING 9660
SWIDTH 600 0
DWIDTH 7 0
BBX 5 5 1 1
BITMAP
FF80
BF40
3E00
2D00
0800
ENDCHAR
STARTCHAR uni25BD
ENCODING 9661
SWIDTH 600 0
DWIDTH 7 0
BBX 5 5 1 1
BITMAP
FF80
4040
1100
1100
0400
ENDCHAR
STARTCHAR uni25BE
ENCODING 9662
SWIDTH 600 0
DWIDTH 7 0
BBX 4 3 1 1
BITMAP
7E
2D
08
ENDCHAR
STARTCHAR uni25BF
ENCODING 9663
SWIDTH 600 0
DWIDTH 7 0
BBX 4 4 1 1
BITMAP
7F
11
14
04
ENDCHAR
STARTCHAR uni25C0
ENCODING 9664
SWIDTH 600 0
DWIDTH 7 0
BBX 5 5 1 1
BITMAP
0180
1FC0
FFC0
2FC0
02C0
ENDCHAR
STARTCHAR uni25C1
ENCODING 9665
SWIDTH 600 0
DWIDTH 7 0
BBX 5 5 1 1
BITMAP
0180
0080
9080
2D80
02C0
ENDCHAR
STARTCHAR uni25C2
ENCODING 9666
SWIDTH 600 0
DWIDTH 7 0
BBX 3 4 2 1
BITMAP
18
B8
B8
18
ENDCHAR
STARTCHAR uni25C3
ENCODING 9667
SWIDTH 600 0
DWIDTH 7 0
BBX 3 4 2 1
BITMAP
18
94
94
18
ENDCHAR
STARTCHAR triaglf
ENCODING 9668
SWIDTH 600 0
DWIDTH 7 0
BBX 7 5 0 1
BITMAP
0064
07F4
BFF4
1BF4
00B4
ENDCHAR
STARTCHAR uni25C6
ENCODING 9670
SWIDTH 600 0
DWIDTH 7 0
BBX 6 6 0 1
BITMAP
0600
1F80
7FE0
7FE0
1F80
0600
ENDCHAR
STARTCHAR uni25C9
ENCODING 9673
SWIDTH 600 0
DWIDTH 7 0
BBX 6 6 0 1
BITMAP
1B80
2460
5B60
5FA0
2FE0
1F80
ENDCHAR
STARTCHAR lozenge
ENCODING 9674
SWIDTH 600 0
DWIDTH 7 0
BBX 5 7 1 0
BITMAP
1C00
2600
5200
8140
5200
2600
1C00
ENDCHAR
STARTCHAR uni25CB
ENCODING 9675
SWIDTH 600 0
DWIDTH 7 0
BBX 6 5 0 1
BITMAP
1F80
2060
5020
2060
1F80
ENDCHAR
STARTCHAR uni25CC
ENCODING 9676
SWIDTH 600 0
DWIDTH 7 0
BBX 6 5 0 0
BITMAP
1680
2020
5020
2020
1680
ENDCHAR
STARTCHAR uni25CF
ENCODING 9679
SWIDTH 600 0
DWIDTH 7 0
BBX 5 5 1 1
BITMAP
6E00
FF80
FF80
FF80
6E00
ENDCHAR
STARTCHAR invbullet
ENCODING 9688
SWIDTH 600 0
DWIDTH 7 0
BBX 4 4 1 1
BITMAP
7F
51
51
7F
ENDCHAR
STARTCHAR invcircle
ENCODING 9689
SWIDTH 600 0
DWIDTH 7 0
BBX 6 5 0 1
BITMAP
6A60
5FD0
2FD0
5F90
6560
ENDCHAR
STARTCHAR uni25E6
ENCODING 9702
SWIDTH 600 0
DWIDTH 7 0
BBX 4 4 1 1
BITMAP
2D
52
52
2D
ENDCHAR
STARTCHAR uni2610
ENCODING 9744
SWIDTH 600 0
DWIDTH 7 0
BBX 8 7 -1 0
BITMAP
3FFF
5002
5002
5002
5002
5002
7FFE
ENDCHAR
STARTCHAR uni2611
ENCODING 9745
SWIDTH 600 0
DWIDTH 7 0
BBX 9 9 -1 -1
BITMAP
000240
3FFF00
500B00
542600
552200
529200
51C200
500200
155400
ENDCHAR
STARTCHAR uni2615
ENCODING 9749
SWIDTH 600 0
DWIDTH 7 0
BBX 8 7 -1 0
BITMAP
1BE0
2FE8
69A6
5BD9
2006
242D
0BD0
ENDCHAR
STARTCHAR smileface
ENCODING 9786
SWIDTH 600 0
DWIDTH 7 0
BBX 7 7 0 0
BITMAP
1F80
6060
8D94
9444
8B54
6060
1F80
ENDCHAR
STARTCHAR invsmileface
ENCODING 9787
SWIDTH 600 0
DWIDTH 7 0
BBX 7 5 0 1
BITMAP
1F90
7BB0
AB74
74B0
1F90
ENDCHAR
STARTCHAR sun
ENCODING 9788
SWIDTH 600 0
DWIDTH 7 0
BBX 7 7 0 0
BITMAP
0200
2220
2FD0
F4B8
2450
2B90
0210
ENDCHAR
STARTCHAR female
ENCODING 9792
SWIDTH 600 0
DWIDTH 7 0
BBX 6 9 0 -1
BITMAP
1B80
24A0
5020
5020
34A0
1F80
2FD0
0200
0100
ENDCHAR
STARTCHAR male
ENCODING 9794
SWIDTH 600 0
DWIDTH 7 0
BBX 7 7 0 0
BITMAP
01F8
0028
6E88
91C0
8080
9180
6E40
ENDCHAR
STARTCHAR spade
ENCODING 9824
SWIDTH 600 0
DWIDTH 7 0
BBX 7 8 0 0
BITMAP
0600
1F80
3FE0
BFF4
FFF4
6AA0
0B40
3FD0
ENDCHAR
STARTCHAR club
ENCODING 9827
SWIDTH 600 0
DWIDTH 7 0
BBX 7 8 0 0
BITMAP
0B40
1FC0
0F80
BFF4
FFF4
6AA0
0B40
3FD0
ENDCHAR
STARTCHAR heart
ENCODING 9829
SWIDTH 600 0
DWIDTH 7 0
BBX 7 8 0 0
BITMAP
79E0
BFF4
FFF4
BFF4
7FF0
2FD0
0F80
0600
ENDCHAR
STARTCHAR diamond
ENCODING 9830
SWIDTH 600 0
DWIDTH 7 0
BBX 7 8 0 0
BITMAP
0600
0F80
2FD0
BFF4
BFF4
2FD0
0F80
0600
ENDCHAR
STARTCHAR musicalnote
ENCODING 9834
SWIDTH 600 0
DWIDTH 7 0
BBX 5 8 1 0
BITMAP
0900
0B40
0880
0880
0840
0800
B800
F400
ENDCHAR
STARTCHAR musicalnotedbl
ENCODING 9835
SWIDTH 600 0
DWIDTH 7 0
BBX 7 8 0 0
BITMAP
06B4
0BA8
0808
0808
0808
08B4
BDE0
B400
ENDCHAR
STARTCHAR uni2713
ENCODING 10003
SWIDTH 600 0
DWIDTH 7 0
BBX 7 8 0 0
BITMAP
0014
0060
0080
0140
8200
5500
2800
2800
ENDCHAR
STARTCHAR uni2752
ENCODING 10066
SWIDTH 600 0
DWIDTH 7 0
BBX 6 5 0 1
BITMAP
3FE0
5020
5020
5020
7FE0
ENDCHAR
STARTCHAR uni2764
ENCODING 10084
SWIDTH 600 0
DWIDTH 7 0
BBX 9 7 -1 0
BITMAP
2E7E00
BFFF40
BFFF40
7FFF00
2FFD00
07E000
018000
ENDCHAR
STARTCHAR uni27E6
ENCODING 10214
SWIDTH 600 0
DWIDTH 7 0
BBX 4 10 2 -2
BITMAP
FE
A0
A0
A0
A0
A0
A0
A0
A0
FE
ENDCHAR
STARTCHAR uni27E7
ENCODING 10215
SWIDTH 600 0
DWIDTH 7 0
BBX 4 10 1 -2
BITMAP
FE
0A
0A
0A
0A
0A
0A
0A
0A
FE
ENDCHAR
STARTCHAR uni2E18
ENCODING 11800
SWIDTH 600 0
DWIDTH 7 0
BBX 5 7 1 -2
BITMAP
0C00
0C00
0000
0800
6800
9140
7E00
ENDCHAR
STARTCHAR uni2E22
ENCODING 11810
SWIDTH 600 0
DWIDTH 7 0
BBX 4 5 2 3
BITMAP
BE
90
90
90
90
ENDCHAR
STARTCHAR uni2E23
ENCODING 11811
SWIDTH 600 0
DWIDTH 7 0
BBX 3 5 1 3
BITMAP
FC
08
08
08
08
ENDCHAR
STARTCHAR uni2E24
ENCODING 11812
SWIDTH 600 0
DWIDTH 7 0
BBX 4 5 2 -2
BITMAP
90
90
90
90
BE
ENDCHAR
STARTCHAR uni2E25
ENCODING 11813
SWIDTH 600 0
DWIDTH 7 0
BBX 3 5 1 -2
BITMAP
08
08
08
08
FC
ENDCHAR
STARTCHAR uniE0A0
ENCODING 57504
SWIDTH 600 0
DWIDTH 7 0
BBX 6 15 1 -3
BITMAP
C000
C000
C280
C7D0
C140
C140
C140
8240
0A00
2800
9000
C000
C000
C000
C000
ENDCHAR
STARTCHAR uniE0A1
ENCODING 57505
SWIDTH 600 0
DWIDTH 7 0
BBX 5 12 1 -2
BITMAP
8000
8000
8000
8000
FD00
0000
0000
3480
2880
2580
2280
2180
ENDCHAR
STARTCHAR uniE0A2
ENCODING 57506
SWIDTH 600 0
DWIDTH 7 0
BBX 6 11 0 -1
BITMAP
0B40
1880
2480
2480
2480
7FF0
B8F0
B8F0
BDF0
B9F0
7FF0
ENDCHAR
STARTCHAR uniE0B0
ENCODING 57520
SWIDTH 600 0
DWIDTH 7 0
BBX 7 15 0 -3
BITMAP
4000
D000
F400
FC00
FF00
FF80
FFE0
FFF4
FFE0
FF80
FF00
FC00
F400
D000
4000
ENDCHAR
STARTCHAR uniE0B1
ENCODING 57521
SWIDTH 600 0
DWIDTH 7 0
BBX 7 13 0 -2
BITMAP
8000
6000
1800
0600
0180
0060
0024
0060
0180
0600
1800
6000
8000
ENDCHAR
STARTCHAR uniE0B2
ENCODING 57522
SWIDTH 600 0
DWIDTH 7 0
BBX 7 15 0 -3
BITMAP
0004
0028
00B8
01F8
07F8
1FF8
3FF8
BFF8
7FF8
1FF8
07F8
01F8
00B8
0028
0004
ENDCHAR
STARTCHAR uniE0B3
ENCODING 57523
SWIDTH 600 0
DWIDTH 7 0
BBX 7 13 0 -2
BITMAP
0014
0060
0180
0600
1800
6000
C000
6000
1800
0600
0180
0060
0014
ENDCHAR
STARTCHAR f_i
ENCODING 64257
SWIDTH 600 0
DWIDTH 7 0
BBX 6 8 0 0
BITMAP
1E00
2460
2400
7D50
2450
2450
2450
2450
ENDCHAR
STARTCHAR f_l
ENCODING 64258
SWIDTH 600 0
DWIDTH 7 0
BBX 6 8 0 0
BITMAP
1E90
2490
2490
7D90
2490
2490
2490
2460
ENDCHAR
STARTCHAR uniFE0E
ENCODING 65038
SWIDTH 600 0
DWIDTH 7 0
BBX 7 7 0 0
BITMAP
6AA4
8014
A4A4
0880
0880
0880
0A40
ENDCHAR
STARTCHAR uniFE0F
ENCODING 65039
SWIDTH 600 0
DWIDTH 7 0
BBX 7 7 0 0
BITMAP
0A40
1010
5E94
D8D8
5560
1010
0A40
ENDCHAR
STARTCHAR uniFEFF
ENCODING 65279
SWIDTH 600 0
DWIDTH 7 0
BBX 1 1 0 0
BITMAP
00
ENDCHAR
STARTCHAR u1F3B5
ENCODING 127925
SWIDTH 600 0
DWIDTH 7 0
BBX 5 8 1 0
BITMAP
0900
0B40
0880
0880
0840
0800
B800
F400
ENDCHAR
STARTCHAR u1F3B6
ENCODING 127926
SWIDTH 600 0
DWIDTH 7 0
BBX 7 8 0 0
BITMAP
06B4
0BA8
0808
0808
0808
08B4
BDE0
B400
ENDCHAR
STARTCHAR u1F4A9
ENCODING 128169
SWIDTH 600 0
DWIDTH 7 0
BBX 7 7 0 0
BITMAP
0640
1FC0
3FE0
6AB0
7FF0
F078
BFE4
ENDCHAR
STARTCHAR u1F512
ENCODING 128274
SWIDTH 600 0
DWIDTH 7 0
BBX 6 11 0 -1
BITMAP
0B40
1880
2480
2480
2480
7FF0
B8F0
B8F0
BDF0
B9F0
7FF0
ENDCHAR
STARTCHAR u1F916
ENCODING 129302
SWIDTH 600 0
DWIDTH 7 0
BBX 8 7 -1 0
BITMAP
0BE4
1BF8
2AAA
67F7
2006
1998
07E0
ENDCHAR
STARTCHAR .notdef
ENCODING -1
SWIDTH 600 0
DWIDTH 7 0
BBX 6 7 0 0
BITMAP
7FF0
6460
5960
5520
5460
6060
7FF0
ENDCHAR
STARTCHAR uni00470303
ENCODING -1
SWIDTH 600 0
DWIDTH 7 0
BBX 6 10 0 0
BITMAP
0E50
15D0
0000
0BD0
3450
6000
61F0
6030
3430
0BD0
ENDCHAR
STARTCHAR uni004C00B7004C
ENCODING -1
SWIDTH 600 0
DWIDTH 7 0
BBX 6 7 0 0
BITMAP
6180
6180
6E80
6E80
6180
6180
7DF0
ENDCHAR
STARTCHAR uni01320301
ENCODING -1
SWIDTH 600 0
DWIDTH 7 0
BBX 5 12 1 -2
BITMAP
2080
8240
0000
8240
8240
8240
8240
8240
8240
8240
0240
0E00
ENDCHAR
STARTCHAR uni00670303
ENCODING -1
SWIDTH 600 0
DWIDTH 7 0
BBX 6 10 1 -2
BITMAP
7940
4A00
0000
7FD0
D200
BB00
9400
BF80
80C0
BE40
ENDCHAR
STARTCHAR uni006C00B7006C
ENCODING -1
SWIDTH 600 0
DWIDTH 7 0
BBX 7 8 0 0
BITMAP
F2D0
2050
2050
2790
2790
2050
3050
1D38
ENDCHAR
STARTCHAR uni01330301
ENCODING -1
SWIDTH 600 0
DWIDTH 7 0
BBX 6 10 1 -2
BITMAP
2090
8140
0000
8180
8180
8180
8180
8180
0180
0B40
ENDCHAR
STARTCHAR uni014A.a
ENCODING -1
SWIDTH 600 0
DWIDTH 7 0
BBX 5 9 1 -2
BITMAP
D180
E180
A580
9980
8980
8280
8280
0180
0740
ENDCHAR
STARTCHAR a.a
ENCODING -1
SWIDTH 600 0
DWIDTH 7 0
BBX 6 5 0 0
BITMAP
1FA0
34A0
6060
30A0
1FA0
ENDCHAR
STARTCHAR agrave.a
ENCODING -1
SWIDTH 600 0
DWIDTH 7 0
BBX 6 8 0 0
BITMAP
0800
0200
0000
1FA0
34A0
6060
30A0
1FA0
ENDCHAR
STARTCHAR aacute.a
ENCODING -1
SWIDTH 600 0
DWIDTH 7 0
BBX 6 8 0 0
BITMAP
0180
0200
0000
1FA0
34A0
6060
30A0
1FA0
ENDCHAR
STARTCHAR acircumflex.a
ENCODING -1
SWIDTH 600 0
DWIDTH 7 0
BBX 6 8 0 0
BITMAP
0740
0880
0000
1FA0
34A0
6060
30A0
1FA0
ENDCHAR
STARTCHAR atilde.a
ENCODING -1
SWIDTH 600 0
DWIDTH 7 0
BBX 6 9 0 0
BITMAP
0400
1E80
1280
0000
1FA0
34A0
6060
30A0
1FA0
ENDCHAR
STARTCHAR adieresis.a
ENCODING -1
SWIDTH 600 0
DWIDTH 7 0
BBX 6 8 0 0
BITMAP
1880
0000
0000
1FA0
34A0
6060
30A0
1FA0
ENDCHAR
STARTCHAR amacron.a
ENCODING -1
SWIDTH 600 0
DWIDTH 7 0
BBX 6 7 0 0
BITMAP
0F80
0000
1FA0
34A0
6060
30A0
1FA0
ENDCHAR
STARTCHAR abreve.a
ENCODING -1
SWIDTH 600 0
DWIDTH 7 0
BBX 6 8 0 0
BITMAP
1480
0B40
0000
1FA0
34A0
6060
30A0
1FA0
ENDCHAR
STARTCHAR aring.a
ENCODING -1
SWIDTH 600 0
DWIDTH 7 0
BBX 6 9 0 0
BITMAP
0B40
0980
0B40
0000
1FA0
34A0
6060
30A0
1FA0
ENDCHAR
STARTCHAR aringacute.a
ENCODING -1
SWIDTH 600 0
DWIDTH 7 0
BBX 6 9 0 0
BITMAP
0140
0940
0B40
0000
1F60
34A0
6060
30A0
1FA0
ENDCHAR
STARTCHAR uni01CE.a
ENCODING -1
SWIDTH 600 0
DWIDTH 7 0
BBX 6 8 0 0
BITMAP
0880
0740
0000
1FA0
34A0
6060
30A0
1FA0
ENDCHAR
STARTCHAR uni1EA1.a
ENCODING -1
SWIDTH 600 0
DWIDTH 7 0
BBX 6 7 0 -2
BITMAP
1FA0
34A0
6060
30A0
1FA0
0000
0600
ENDCHAR
STARTCHAR uni1EA3.a
ENCODING -1
SWIDTH 600 0
DWIDTH 7 0
BBX 6 9 0 0
BITMAP
0600
0240
0200
0000
1FA0
34A0
6060
30A0
1FA0
ENDCHAR
STARTCHAR uni1EA5.a
ENCODING -1
SWIDTH 600 0
DWIDTH 7 0
BBX 6 9 0 0
BITMAP
0020
0050
0A40
0000
1FA0
34A0
6060
30A0
1FA0
ENDCHAR
STARTCHAR uni1EA7.a
ENCODING -1
SWIDTH 600 0
DWIDTH 7 0
BBX 6 9 0 0
BITMAP
1000
2000
0A40
0000
1FA0
34A0
6060
30A0
1FA0
ENDCHAR
STARTCHAR uni1EA9.a
ENCODING -1
SWIDTH 600 0
DWIDTH 7 0
BBX 6 10 0 0
BITMAP
0090
0060
0050
0A40
0000
1FA0
34A0
6060
30A0
1FA0
ENDCHAR
STARTCHAR uni1EAB.a
ENCODING -1
SWIDTH 600 0
DWIDTH 7 0
BBX 6 10 0 0
BITMAP
0940
0680
0000
0A40
0000
1FA0
34A0
6060
30A0
1FA0
ENDCHAR
STARTCHAR uni1EAD.a
ENCODING -1
SWIDTH 600 0
DWIDTH 7 0
BBX 6 10 0 -2
BITMAP
0740
0880
0000
1FA0
34A0
6060
30A0
1FA0
0000
0600
ENDCHAR
STARTCHAR uni1EAF.a
ENCODING -1
SWIDTH 600 0
DWIDTH 7 0
BBX 6 10 0 0
BITMAP
0140
0200
1480
0B40
0000
1FA0
34A0
6060
30A0
1FA0
ENDCHAR
STARTCHAR uni1EB1.a
ENCODING -1
SWIDTH 600 0
DWIDTH 7 0
BBX 6 10 0 0
BITMAP
0500
0200
1480
0B40
0000
1FA0
34A0
6060
30A0
1FA0
ENDCHAR
STARTCHAR uni1EB3.a
ENCODING -1
SWIDTH 600 0
DWIDTH 7 0
BBX 6 11 0 0
BITMAP
0600
0200
0200
1480
0B40
0000
1FA0
34A0
6060
30A0
1FA0
ENDCHAR
STARTCHAR uni1EB5.a
ENCODING -1
SWIDTH 600 0
DWIDTH 7 0
BBX 6 10 0 0
BITMAP
0940
0A80
0880
0B40
0000
1FA0
34A0
6060
30A0
1FA0
ENDCHAR
STARTCHAR uni1EB7.a
ENCODING -1
SWIDTH 600 0
DWIDTH 7 0
BBX 6 10 0 -2
BITMAP
1480
0B40
0000
1FA0
34A0
6060
30A0
1FA0
0000
0600
ENDCHAR
STARTCHAR aogonek.a
ENCODING -1
SWIDTH 600 0
DWIDTH 7 0
BBX 6 8 0 -3
BITMAP
1FA0
34A0
6060
30A0
1FA0
0040
0080
00E0
ENDCHAR
STARTCHAR g.a
ENCODING -1
SWIDTH 600 0
DWIDTH 7 0
BBX 6 7 0 -2
BITMAP
1FA0
34A0
6060
30A0
1FA0
1090
1F80
ENDCHAR
STARTCHAR uni01F5.a
ENCODING -1
SWIDTH 600 0
DWIDTH 7 0
BBX 6 10 0 -2
BITMAP
0180
0200
0000
1FA0
34A0
6060
30A0
1FA0
1090
1F80
ENDCHAR
STARTCHAR gcircumflex.a
ENCODING -1
SWIDTH 600 0
DWIDTH 7 0
BBX 6 10 0 -2
BITMAP
0740
0880
0000
1FA0
34A0
6060
30A0
1FA0
1090
1F80
ENDCHAR
STARTCHAR gbreve.a
ENCODING -1
SWIDTH 600 0
DWIDTH 7 0
BBX 6 10 0 -2
BITMAP
1880
0B40
0000
1FA0
34A0
6060
30A0
1FA0
1090
1F80
ENDCHAR
STARTCHAR gdotaccent.a
ENCODING -1
SWIDTH 600 0
DWIDTH 7 0
BBX 6 10 0 -2
BITMAP
0300
0000
0000
1FA0
34A0
6060
30A0
1FA0
1090
1F80
ENDCHAR
STARTCHAR uni0123.a
ENCODING -1
SWIDTH 600 0
DWIDTH 7 0
BBX 6 10 0 -2
BITMAP
0740
0700
0000
1FA0
34A0
6060
30A0
1FA0
1090
1F80
ENDCHAR
STARTCHAR gcaron.a
ENCODING -1
SWIDTH 600 0
DWIDTH 7 0
BBX 6 10 0 -2
BITMAP
0880
0740
0000
1FA0
34A0
6060
30A0
1FA0
1090
1F80
ENDCHAR
STARTCHAR uni1E21.a
ENCODING -1
SWIDTH 600 0
DWIDTH 7 0
BBX 6 9 0 -2
BITMAP
0FC0
0000
1FA0
34A0
6060
30A0
1FA0
1090
1F80
ENDCHAR
STARTCHAR uni00670303.a
ENCODING -1
SWIDTH 600 0
DWIDTH 7 0
BBX 6 10 0 -2
BITMAP
1E50
1680
0000
1FA0
34A0
6060
30A0
1FA0
1090
1F80
ENDCHAR
STARTCHAR i.a
ENCODING -1
SWIDTH 600 0
DWIDTH 7 0
BBX 6 8 1 0
BITMAP
0D00
0000
0000
BC00
0800
0800
0800
FFD0
ENDCHAR
STARTCHAR dotlessi.a
ENCODING -1
SWIDTH 600 0
DWIDTH 7 0
BBX 6 5 1 0
BITMAP
BC00
0800
0800
0800
FFD0
ENDCHAR
STARTCHAR igrave.a
ENCODING -1
SWIDTH 600 0
DWIDTH 7 0
BBX 6 8 1 0
BITMAP
2400
0800
0000
BC00
0800
0800
0800
FFD0
ENDCHAR
STARTCHAR iacute.a
ENCODING -1
SWIDTH 600 0
DWIDTH 7 0
BBX 6 8 1 0
BITMAP
0200
0800
0000
BC00
0800
0800
0800
FFD0
ENDCHAR
STARTCHAR icircumflex.a
ENCODING -1
SWIDTH 600 0
DWIDTH 7 0
BBX 6 8 1 0
BITMAP
1D00
2200
0000
BC00
0800
0800
0800
FFD0
ENDCHAR
STARTCHAR itilde.a
ENCODING -1
SWIDTH 600 0
DWIDTH 7 0
BBX 6 8 1 0
BITMAP
3940
5700
0000
BC00
0800
0800
0800
FFD0
ENDCHAR
STARTCHAR idieresis.a
ENCODING -1
SWIDTH 600 0
DWIDTH 7 0
BBX 6 8 1 0
BITMAP
2200
0000
0000
BC00
0800
0800
0800
FFD0
ENDCHAR
STARTCHAR imacron.a
ENCODING -1
SWIDTH 600 0
DWIDTH 7 0
BBX 6 7 1 0
BITMAP
3F00
0000
BC00
0800
0800
0800
FFD0
ENDCHAR
STARTCHAR uni01D0.a
ENCODING -1
SWIDTH 600 0
DWIDTH 7 0
BBX 6 8 1 0
BITMAP
2200
1D00
0000
BC00
0800
0800
0800
FFD0
ENDCHAR
STARTCHAR iogonek.a
ENCODING -1
SWIDTH 600 0
DWIDTH 7 0
BBX 6 11 1 -3
BITMAP
0C00
0000
0000
BC00
0800
0800
0800
FFD0
0800
1400
0E00
ENDCHAR
STARTCHAR uni1EC9.a
ENCODING -1
SWIDTH 600 0
DWIDTH 7 0
BBX 6 9 1 0
BITMAP
0C00
0500
0800
0000
BC00
0800
0800
0800
FFD0
ENDCHAR
STARTCHAR uni1ECB.a
ENCODING -1
SWIDTH 600 0
DWIDTH 7 0
BBX 6 10 1 -2
BITMAP
0D00
0000
0000
BC00
0800
0800
0800
FFD0
0000
0C00
ENDCHAR
STARTCHAR uni012D.a
ENCODING -1
SWIDTH 600 0
DWIDTH 7 0
BBX 6 8 1 0
BITMAP
2240
2E00
0000
BC00
0800
0800
0800
FFD0
ENDCHAR
STARTCHAR uni0268.a
ENCODING -1
SWIDTH 600 0
DWIDTH 7 0
BBX 6 8 1 0
BITMAP
0D00
0000
0000
BC00
0800
BFC0
0800
FFD0
ENDCHAR
STARTCHAR iogonek.d
ENCODING -1
SWIDTH 600 0
DWIDTH 7 0
BBX 4 8 1 -3
BITMAP
FD
09
09
09
09
08
18
0E
ENDCHAR
STARTCHAR iogonek.da
ENCODING -1
SWIDTH 600 0
DWIDTH 7 0
BBX 6 8 1 -3
BITMAP
BC00
0800
0800
0800
FFD0
0800
1400
0E00
ENDCHAR
STARTCHAR uni0268.d
ENCODING -1
SWIDTH 600 0
DWIDTH 7 0
BBX 6 5 1 0
BITMAP
FD00
0900
BFD0
0900
0900
ENDCHAR
STARTCHAR uni0268.da
ENCODING -1
SWIDTH 600 0
DWIDTH 7 0
BBX 6 5 1 0
BITMAP
BC00
0800
BFC0
0800
FFD0
ENDCHAR
STARTCHAR uni029D.d
ENCODING -1
SWIDTH 600 0
DWIDTH 7 0
BBX 5 8 0 -3
BITMAP
3F40
0240
0240
0240
3F40
6740
2E80
0080
ENDCHAR
STARTCHAR l.a
ENCODING -1
SWIDTH 600 0
DWIDTH 7 0
BBX 6 8 1 0
BITMAP
BC00
0800
0800
0800
0800
0800
0800
FFD0
ENDCHAR
STARTCHAR lacute.a
ENCODING -1
SWIDTH 600 0
DWIDTH 7 0
BBX 6 11 1 0
BITMAP
0200
0800
0000
BC00
0800
0800
0800
0800
0800
0800
FFD0
ENDCHAR
STARTCHAR lcaron.a
ENCODING -1
SWIDTH 600 0
DWIDTH 7 0
BBX 6 9 1 0
BITMAP
0080
BD80
0980
0800
0800
0800
0800
0800
FFD0
ENDCHAR
STARTCHAR uni013C.a
ENCODING -1
SWIDTH 600 0
DWIDTH 7 0
BBX 6 11 1 -3
BITMAP
BC00
0800
0800
0800
0800
0800
0800
FFD0
0900
0500
1800
ENDCHAR
STARTCHAR uni1E37.a
ENCODING -1
SWIDTH 600 0
DWIDTH 7 0
BBX 6 10 1 -2
BITMAP
BC00
0800
0800
0800
0800
0800
0800
FFD0
0000
0D00
ENDCHAR
STARTCHAR uni1E39.a
ENCODING -1
SWIDTH 600 0
DWIDTH 7 0
BBX 6 12 1 -2
BITMAP
2F00
0000
BC00
0800
0800
0800
0800
0800
0800
FFD0
0000
0D00
ENDCHAR
STARTCHAR uni1E3B.a
ENCODING -1
SWIDTH 600 0
DWIDTH 7 0
BBX 6 10 1 -2
BITMAP
BC00
0800
0800
0800
0800
0800
0800
FFD0
0000
3F00
ENDCHAR
STARTCHAR lslash.a
ENCODING -1
SWIDTH 600 0
DWIDTH 7 0
BBX 6 8 1 0
BITMAP
BC00
0800
0980
0E00
2800
0800
0800
FFD0
ENDCHAR
STARTCHAR ldot.a
ENCODING -1
SWIDTH 600 0
DWIDTH 7 0
BBX 7 8 0 0
BITMAP
7E00
0600
0600
0618
0600
0600
0600
7FE0
ENDCHAR
STARTCHAR uni006C00B7006C.a
ENCODING -1
SWIDTH 600 0
DWIDTH 7 0
BBX 7 8 0 0
BITMAP
F2D0
2050
2050
2050
2650
2050
2050
FEF8
ENDCHAR
STARTCHAR uni026B.a
ENCODING -1
SWIDTH 600 0
DWIDTH 7 0
BBX 6 8 1 0
BITMAP
BC00
0800
3D80
5F40
0800
0800
0800
FFD0
ENDCHAR
STARTCHAR uni026C.a
ENCODING -1
SWIDTH 600 0
DWIDTH 7 0
BBX 6 8 1 0
BITMAP
BC00
0800
7C00
5C00
7F80
0800
0800
FFD0
ENDCHAR
STARTCHAR phi.a
ENCODING -1
SWIDTH 600 0
DWIDTH 7 0
BBX 6 7 0 -2
BITMAP
22E0
6330
9220
6670
2F90
0200
0200
ENDCHAR
STARTCHAR anoteleia.cap
ENCODING -1
SWIDTH 600 0
DWIDTH 7 0
BBX 2 2 2 6
BITMAP
70
70
ENDCHAR
STARTCHAR uni0430.a
ENCODING -1
SWIDTH 600 0
DWIDTH 7 0
BBX 6 5 0 0
BITMAP
1FA0
34A0
6060
30A0
1FA0
ENDCHAR
STARTCHAR uni04D1.a
ENCODING -1
SWIDTH 600 0
DWIDTH 7 0
BBX 6 8 0 0
BITMAP
1880
0B40
0000
1FA0
34A0
6060
30A0
1FA0
ENDCHAR
STARTCHAR uni0431.srb
ENCODING -1
SWIDTH 600 0
DWIDTH 7 0
BBX 5 8 1 0
BITMAP
1A80
6500
2400
2A00
9140
8180
D240
7E00
ENDCHAR
STARTCHAR uni0456.a
ENCODING -1
SWIDTH 600 0
DWIDTH 7 0
BBX 6 8 1 0
BITMAP
0D00
0000
0000
BC00
0800
0800
0800
FFD0
ENDCHAR
STARTCHAR zero.a
ENCODING -1
SWIDTH 600 0
DWIDTH 7 0
BBX 6 7 0 0
BITMAP
1B80
2490
2860
6220
21A0
2490
1B80
ENDCHAR
STARTCHAR one.a
ENCODING -1
SWIDTH 600 0
DWIDTH 7 0
BBX 5 7 1 0
BITMAP
1C00
5C00
0C00
0C00
0C00
0C00
FF80
ENDCHAR
STARTCHAR zero.onum
ENCODING -1
SWIDTH 600 0
DWIDTH 7 0
BBX 5 6 1 0
BITMAP
7E00
D680
9880
8080
D280
7E00
ENDCHAR
STARTCHAR one.onum
ENCODING -1
SWIDTH 600 0
DWIDTH 7 0
BBX 5 6 1 0
BITMAP
6C00
0C00
0C00
0C00
0C00
FF80
ENDCHAR
STARTCHAR two.onum
ENCODING -1
SWIDTH 600 0
DWIDTH 7 0
BBX 6 6 0 0
BITMAP
1F80
2090
0080
0240
1900
7FE0
ENDCHAR
STARTCHAR three.onum
ENCODING -1
SWIDTH 600 0
DWIDTH 7 0
BBX 5 7 1 -1
BITMAP
7E00
4240
0240
2D00
0240
8280
7E00
ENDCHAR
STARTCHAR four.onum
ENCODING -1
SWIDTH 600 0
DWIDTH 7 0
BBX 6 7 0 -1
BITMAP
01C0
06C0
08C0
20C0
BFF0
00C0
00C0
ENDCHAR
STARTCHAR five.onum
ENCODING -1
SWIDTH 600 0
DWIDTH 7 0
BBX 5 7 1 -1
BITMAP
BF40
8000
AE00
5280
0180
4240
BE00
ENDCHAR
STARTCHAR six.onum
ENCODING -1
SWIDTH 600 0
DWIDTH 7 0
BBX 5 7 1 0
BITMAP
2F40
A040
C000
EF40
D180
9180
2E00
ENDCHAR
STARTCHAR seven.onum
ENCODING -1
SWIDTH 600 0
DWIDTH 7 0
BBX 6 7 0 -1
BITMAP
7FF0
0090
0180
0200
0200
0600
0500
ENDCHAR
STARTCHAR eight.onum
ENCODING -1
SWIDTH 600 0
DWIDTH 7 0
BBX 5 7 1 0
BITMAP
7E00
9240
5240
7F00
C540
8180
7E40
ENDCHAR
STARTCHAR nine.onum
ENCODING -1
SWIDTH 600 0
DWIDTH 7 0
BBX 6 7 0 -1
BITMAP
1F80
2090
6060
2FA0
0060
1090
2F40
ENDCHAR
STARTCHAR zero.b
ENCODING -1
SWIDTH 600 0
DWIDTH 7 0
BBX 5 6 1 0
BITMAP
7E00
E280
9480
8980
D380
7E00
ENDCHAR
STARTCHAR one.b
ENCODING -1
SWIDTH 600 0
DWIDTH 7 0
BBX 5 6 1 0
BITMAP
1C00
5C00
0C00
0C00
0C00
FF80
ENDCHAR
STARTCHAR zero.cap
ENCODING -1
SWIDTH 600 0
DWIDTH 7 0
BBX 6 7 0 0
BITMAP
1B80
2490
2120
6720
2060
2490
1B80
ENDCHAR
STARTCHAR one.cap
ENCODING -1
SWIDTH 600 0
DWIDTH 7 0
BBX 5 7 1 0
BITMAP
6C00
0C00
0C00
0C00
0C00
0C00
FF80
ENDCHAR
STARTCHAR two.cap
ENCODING -1
SWIDTH 600 0
DWIDTH 7 0
BBX 6 7 0 0
BITMAP
1F80
2090
0090
0080
0600
1800
7FE0
ENDCHAR
STARTCHAR three.cap
ENCODING -1
SWIDTH 600 0
DWIDTH 7 0
BBX 5 7 1 0
BITMAP
7E00
4240
0240
2E00
0240
8280
7E00
ENDCHAR
STARTCHAR four.cap
ENCODING -1
SWIDTH 600 0
DWIDTH 7 0
BBX 6 7 0 0
BITMAP
01C0
06C0
18C0
20C0
BFF0
00C0
00C0
ENDCHAR
STARTCHAR five.cap
ENCODING -1
SWIDTH 600 0
DWIDTH 7 0
BBX 5 7 1 0
BITMAP
BF40
8000
AA00
5640
0180
8240
BE00
ENDCHAR
STARTCHAR six.cap
ENCODING -1
SWIDTH 600 0
DWIDTH 7 0
BBX 5 7 1 0
BITMAP
2F40
A140
C000
AF40
D180
9180
2E00
ENDCHAR
STARTCHAR seven.cap
ENCODING -1
SWIDTH 600 0
DWIDTH 7 0
BBX 6 7 0 0
BITMAP
7FF0
0090
0180
0200
0200
0600
0500
ENDCHAR
STARTCHAR eight.cap
ENCODING -1
SWIDTH 600 0
DWIDTH 7 0
BBX 5 7 1 0
BITMAP
7E00
9140
6640
AA00
8180
8180
7E00
ENDCHAR
STARTCHAR nine.cap
ENCODING -1
SWIDTH 600 0
DWIDTH 7 0
BBX 6 7 0 0
BITMAP
1F80
2090
6060
2FA0
0060
11D0
2F40
ENDCHAR
STARTCHAR zero.c
ENCODING -1
SWIDTH 600 0
DWIDTH 7 0
BBX 6 7 0 0
BITMAP
1B80
2490
2860
6220
21A0
2490
1B80
ENDCHAR
STARTCHAR one.c
ENCODING -1
SWIDTH 600 0
DWIDTH 7 0
BBX 5 7 1 0
BITMAP
1C00
5C00
0C00
0C00
0C00
0C00
FF80
ENDCHAR
STARTCHAR at.case
ENCODING -1
SWIDTH 600 0
DWIDTH 7 0
BBX 6 7 0 0
BITMAP
0BD0
2460
52B0
5530
57A0
2410
0B80
ENDCHAR
STARTCHAR asterisk.a
ENCODING -1
SWIDTH 600 0
DWIDTH 7 0
BBX 5 5 1 3
BITMAP
0800
5940
2D00
2D00
2200
ENDCHAR
STARTCHAR hyphen.a
ENCODING -1
SWIDTH 600 0
DWIDTH 7 0
BBX 4 1 1 2
BITMAP
BF
ENDCHAR
STARTCHAR uni00AD.a
ENCODING -1
SWIDTH 600 0
DWIDTH 7 0
BBX 4 1 1 2
BITMAP
BF
ENDCHAR
STARTCHAR uni2010.a
ENCODING -1
SWIDTH 600 0
DWIDTH 7 0
BBX 4 1 1 2
BITMAP
BF
ENDCHAR
STARTCHAR dollar.a
ENCODING -1
SWIDTH 600 0
DWIDTH 7 0
BBX 5 10 1 -2
BITMAP
0500
6E00
9900
A800
2E00
0A80
9580
7E00
2000
2000
ENDCHAR
STARTCHAR period.sups
ENCODING -1
SWIDTH 600 0
DWIDTH 7 0
BBX 1 1 3 4
BITMAP
80
ENDCHAR
STARTCHAR comma.sups
ENCODING -1
SWIDTH 600 0
DWIDTH 7 0
BBX 2 3 2 2
BITMAP
20
20
50
ENDCHAR
STARTCHAR period.subs
ENCODING -1
SWIDTH 600 0
DWIDTH 7 0
BBX 1 1 3 -2
BITMAP
80
ENDCHAR
STARTCHAR comma.subs
ENCODING -1
SWIDTH 600 0
DWIDTH 7 0
BBX 2 3 2 -4
BITMAP
20
20
50
ENDCHAR
STARTCHAR zero.dnom
ENCODING -1
SWIDTH 600 0
DWIDTH 7 0
BBX 4 4 1 0
BITMAP
2D
62
22
2D
ENDCHAR
STARTCHAR one.dnom
ENCODING -1
SWIDTH 600 0
DWIDTH 7 0
BBX 2 3 2 0
BITMAP
70
20
20
ENDCHAR
STARTCHAR two.dnom
ENCODING -1
SWIDTH 600 0
DWIDTH 7 0
BBX 3 4 2 0
BITMAP
B4
54
50
F8
ENDCHAR
STARTCHAR three.dnom
ENCODING -1
SWIDTH 600 0
DWIDTH 7 0
BBX 3 4 2 0
BITMAP
B4
14
74
B4
ENDCHAR
STARTCHAR four.dnom
ENCODING -1
SWIDTH 600 0
DWIDTH 7 0
BBX 3 3 2 0
BITMAP
64
FC
14
ENDCHAR
STARTCHAR five.dnom
ENCODING -1
SWIDTH 600 0
DWIDTH 7 0
BBX 3 4 2 0
BITMAP
B4
80
F4
B4
ENDCHAR
STARTCHAR six.dnom
ENCODING -1
SWIDTH 600 0
DWIDTH 7 0
BBX 3 4 2 0
BITMAP
74
80
F8
B4
ENDCHAR
STARTCHAR seven.dnom
ENCODING -1
SWIDTH 600 0
DWIDTH 7 0
BBX 3 4 2 0
BITMAP
F8
14
20
20
ENDCHAR
STARTCHAR eight.dnom
ENCODING -1
SWIDTH 600 0
DWIDTH 7 0
BBX 3 4 2 0
BITMAP
B4
A4
A4
B4
ENDCHAR
STARTCHAR nine.dnom
ENCODING -1
SWIDTH 600 0
DWIDTH 7 0
BBX 3 4 2 0
BITMAP
B4
98
F8
B0
ENDCHAR
STARTCHAR parenleft.dnom
ENCODING -1
SWIDTH 600 0
DWIDTH 7 0
BBX 2 5 2 -1
BITMAP
20
60
50
60
20
ENDCHAR
STARTCHAR parenright.dnom
ENCODING -1
SWIDTH 600 0
DWIDTH 7 0
BBX 2 5 2 -1
BITMAP
50
20
20
20
50
ENDCHAR
STARTCHAR period.dnom
ENCODING -1
SWIDTH 600 0
DWIDTH 7 0
BBX 1 1 3 0
BITMAP
80
ENDCHAR
STARTCHAR comma.dnom
ENCODING -1
SWIDTH 600 0
DWIDTH 7 0
BBX 2 3 2 -2
BITMAP
20
20
50
ENDCHAR
STARTCHAR zero.numr
ENCODING -1
SWIDTH 600 0
DWIDTH 7 0
BBX 4 4 1 3
BITMAP
2D
62
22
2D
ENDCHAR
STARTCHAR one.numr
ENCODING -1
SWIDTH 600 0
DWIDTH 7 0
BBX 2 3 2 3
BITMAP
70
20
20
ENDCHAR
STARTCHAR two.numr
ENCODING -1
SWIDTH 600 0
DWIDTH 7 0
BBX 3 4 2 3
BITMAP
B4
54
50
F8
ENDCHAR
STARTCHAR three.numr
ENCODING -1
SWIDTH 600 0
DWIDTH 7 0
BBX 3 4 2 3
BITMAP
B4
14
74
B4
ENDCHAR
STARTCHAR four.numr
ENCODING -1
SWIDTH 600 0
DWIDTH 7 0
BBX 3 3 2 3
BITMAP
64
FC
14
ENDCHAR
STARTCHAR five.numr
ENCODING -1
SWIDTH 600 0
DWIDTH 7 0
BBX 3 4 2 3
BITMAP
B4
80
F4
B4
ENDCHAR
STARTCHAR six.numr
ENCODING -1
SWIDTH 600 0
DWIDTH 7 0
BBX 3 4 2 3
BITMAP
74
80
F8
B4
ENDCHAR
STARTCHAR seven.numr
ENCODING -1
SWIDTH 600 0
DWIDTH 7 0
BBX 3 4 2 3
BITMAP
F8
14
20
20
ENDCHAR
STARTCHAR eight.numr
ENCODING -1
SWIDTH 600 0
DWIDTH 7 0
BBX 3 4 2 3
BITMAP
B4
A4
A4
B4
ENDCHAR
STARTCHAR nine.numr
ENCODING -1
SWIDTH 600 0
DWIDTH 7 0
BBX 3 4 2 3
BITMAP
B4
98
F8
B0
ENDCHAR
STARTCHAR parenleft.numr
ENCODING -1
SWIDTH 600 0
DWIDTH 7 0
BBX 2 5 2 2
BITMAP
20
60
50
60
20
ENDCHAR
STARTCHAR parenright.numr
ENCODING -1
SWIDTH 600 0
DWIDTH 7 0
BBX 2 5 2 2
BITMAP
50
20
20
20
50
ENDCHAR
STARTCHAR period.numr
ENCODING -1
SWIDTH 600 0
DWIDTH 7 0
BBX 1 1 3 3
BITMAP
80
ENDCHAR
STARTCHAR comma.numr
ENCODING -1
SWIDTH 600 0
DWIDTH 7 0
BBX 2 3 2 1
BITMAP
20
20
50
ENDCHAR
STARTCHAR ordfeminine.a
ENCODING -1
SWIDTH 600 0
DWIDTH 7 0
BBX 4 4 1 4
BITMAP
2A
52
52
39
ENDCHAR
STARTCHAR q.sups
ENCODING -1
SWIDTH 600 0
DWIDTH 7 0
BBX 4 5 1 3
BITMAP
2A
52
52
3A
02
ENDCHAR
STARTCHAR egrave.sups
ENCODING -1
SWIDTH 600 0
DWIDTH 7 0
BBX 4 6 1 4
BITMAP
14
04
2D
62
7F
2E
ENDCHAR
STARTCHAR eacute.sups
ENCODING -1
SWIDTH 600 0
DWIDTH 7 0
BBX 4 6 1 4
BITMAP
05
04
2D
62
7F
2E
ENDCHAR
STARTCHAR a.supa
ENCODING -1
SWIDTH 600 0
DWIDTH 7 0
BBX 4 4 1 4
BITMAP
2A
52
52
39
ENDCHAR
STARTCHAR g.supa
ENCODING -1
SWIDTH 600 0
DWIDTH 7 0
BBX 4 5 1 3
BITMAP
2A
52
52
3E
2D
ENDCHAR
STARTCHAR i.supa
ENCODING -1
SWIDTH 600 0
DWIDTH 7 0
BBX 4 6 2 4
BITMAP
20
00
F0
20
20
FD
ENDCHAR
STARTCHAR colon.sups
ENCODING -1
SWIDTH 600 0
DWIDTH 7 0
BBX 1 4 3 4
BITMAP
80
00
00
80
ENDCHAR
STARTCHAR hyphen.sups
ENCODING -1
SWIDTH 600 0
DWIDTH 7 0
BBX 2 1 2 6
BITMAP
B0
ENDCHAR
STARTCHAR endash.sups
ENCODING -1
SWIDTH 600 0
DWIDTH 7 0
BBX 4 1 1 6
BITMAP
7E
ENDCHAR
STARTCHAR emdash.sups
ENCODING -1
SWIDTH 600 0
DWIDTH 7 0
BBX 6 1 0 6
BITMAP
7FF0
ENDCHAR
STARTCHAR slash.frac
ENCODING -1
SWIDTH 600 0
DWIDTH 7 0
BBX 6 7 0 0
BITMAP
0020
0050
0040
0000
0400
2000
5000
ENDCHAR
STARTCHAR uni0300.cap
ENCODING -1
SWIDTH 600 0
DWIDTH 7 0
BBX 2 2 2 8
BITMAP
80
20
ENDCHAR
STARTCHAR uni0300.g
ENCODING -1
SWIDTH 600 0
DWIDTH 7 0
BBX 2 2 2 6
BITMAP
50
60
ENDCHAR
STARTCHAR uni0301.cap
ENCODING -1
SWIDTH 600 0
DWIDTH 7 0
BBX 3 2 2 8
BITMAP
14
60
ENDCHAR
STARTCHAR uni0301.g
ENCODING -1
SWIDTH 600 0
DWIDTH 7 0
BBX 2 3 3 6
BITMAP
90
80
80
ENDCHAR
STARTCHAR uni0302.cap
ENCODING -1
SWIDTH 600 0
DWIDTH 7 0
BBX 3 2 2 7
BITMAP
B0
88
ENDCHAR
STARTCHAR uni0303.cap
ENCODING -1
SWIDTH 600 0
DWIDTH 7 0
BBX 5 2 1 8
BITMAP
7540
9A00
ENDCHAR
STARTCHAR uni0304.cap
ENCODING -1
SWIDTH 600 0
DWIDTH 7 0
BBX 4 1 1 8
BITMAP
7E
ENDCHAR
STARTCHAR uni0305.cap
ENCODING -1
SWIDTH 600 0
DWIDTH 7 0
BBX 4 1 1 8
BITMAP
7E
ENDCHAR
STARTCHAR uni0306.c
ENCODING -1
SWIDTH 600 0
DWIDTH 7 0
BBX 4 2 1 6
BITMAP
62
2D
ENDCHAR
STARTCHAR uni0306.cap
ENCODING -1
SWIDTH 600 0
DWIDTH 7 0
BBX 4 2 1 8
BITMAP
62
2D
ENDCHAR
STARTCHAR uni0306.ccap
ENCODING -1
SWIDTH 600 0
DWIDTH 7 0
BBX 4 2 1 8
BITMAP
62
2D
ENDCHAR
STARTCHAR uni0307.cap
ENCODING -1
SWIDTH 600 0
DWIDTH 7 0
BBX 2 1 2 8
BITMAP
60
ENDCHAR
STARTCHAR uni0308.cap
ENCODING -1
SWIDTH 600 0
DWIDTH 7 0
BBX 3 1 2 8
BITMAP
88
ENDCHAR
STARTCHAR uni0309.cap
ENCODING -1
SWIDTH 600 0
DWIDTH 7 0
BBX 2 3 2 7
BITMAP
60
20
20
ENDCHAR
STARTCHAR uni030A.cap
ENCODING -1
SWIDTH 600 0
DWIDTH 7 0
BBX 3 3 2 7
BITMAP
70
94
70
ENDCHAR
STARTCHAR uni030B.cap
ENCODING -1
SWIDTH 600 0
DWIDTH 7 0
BBX 4 2 2 8
BITMAP
55
88
ENDCHAR
STARTCHAR uni030C.cap
ENCODING -1
SWIDTH 600 0
DWIDTH 7 0
BBX 3 2 2 8
BITMAP
88
B0
ENDCHAR
STARTCHAR uni030C.a
ENCODING -1
SWIDTH 600 0
DWIDTH 7 0
BBX 2 3 2 6
BITMAP
60
60
20
ENDCHAR
STARTCHAR uni030F.cap
ENCODING -1
SWIDTH 600 0
DWIDTH 7 0
BBX 4 2 1 8
BITMAP
88
25
ENDCHAR
STARTCHAR uni0311.cap
ENCODING -1
SWIDTH 600 0
DWIDTH 7 0
BBX 4 2 1 7
BITMAP
2D
62
ENDCHAR
STARTCHAR uni0312.g
ENCODING -1
SWIDTH 600 0
DWIDTH 7 0
BBX 2 3 2 6
BITMAP
70
90
60
ENDCHAR
STARTCHAR uni0313.g
ENCODING -1
SWIDTH 600 0
DWIDTH 7 0
BBX 2 3 2 6
BITMAP
60
20
20
ENDCHAR
STARTCHAR uni0326.a
ENCODING -1
SWIDTH 600 0
DWIDTH 7 0
BBX 3 2 2 6
BITMAP
74
60
ENDCHAR
STARTCHAR uni0327.cap
ENCODING -1
SWIDTH 600 0
DWIDTH 7 0
BBX 2 4 2 -4
BITMAP
10
70
20
A0
ENDCHAR
STARTCHAR uni0328.cap
ENCODING -1
SWIDTH 600 0
DWIDTH 7 0
BBX 3 3 2 -3
BITMAP
50
90
74
ENDCHAR
STARTCHAR uni03080301
ENCODING -1
SWIDTH 600 0
DWIDTH 7 0
BBX 3 4 2 6
BITMAP
10
20
00
88
ENDCHAR
STARTCHAR uni03080301.cap
ENCODING -1
SWIDTH 600 0
DWIDTH 7 0
BBX 4 3 1 8
BITMAP
05
08
62
ENDCHAR
STARTCHAR uni03080301.g
ENCODING -1
SWIDTH 600 0
DWIDTH 7 0
BBX 4 3 1 6
BITMAP
08
5A
04
ENDCHAR
STARTCHAR uni03080300
ENCODING -1
SWIDTH 600 0
DWIDTH 7 0
BBX 3 4 2 6
BITMAP
40
10
00
88
ENDCHAR
STARTCHAR uni03080300.cap
ENCODING -1
SWIDTH 600 0
DWIDTH 7 0
BBX 4 3 1 8
BITMAP
20
04
62
ENDCHAR
STARTCHAR uni03080300.g
ENCODING -1
SWIDTH 600 0
DWIDTH 7 0
BBX 4 2 1 6
BITMAP
66
08
ENDCHAR
STARTCHAR uni03080303
ENCODING -1
SWIDTH 600 0
DWIDTH 7 0
BBX 4 4 1 6
BITMAP
36
5A
00
22
ENDCHAR
STARTCHAR uni03080304
ENCODING -1
SWIDTH 600 0
DWIDTH 7 0
BBX 4 3 1 6
BITMAP
7E
00
22
ENDCHAR
STARTCHAR uni03080304.cap
ENCODING -1
SWIDTH 600 0
DWIDTH 7 0
BBX 4 3 1 8
BITMAP
7E
00
62
ENDCHAR
STARTCHAR uni0308030C
ENCODING -1
SWIDTH 600 0
DWIDTH 7 0
BBX 3 3 2 6
BITMAP
64
00
88
ENDCHAR
STARTCHAR uni0308030C.cap
ENCODING -1
SWIDTH 600 0
DWIDTH 7 0
BBX 4 2 1 8
BITMAP
29
62
ENDCHAR
STARTCHAR uni03020301
ENCODING -1
SWIDTH 600 0
DWIDTH 7 0
BBX 4 3 2 6
BITMAP
02
05
A4
ENDCHAR
STARTCHAR uni03020301.cap
ENCODING -1
SWIDTH 600 0
DWIDTH 7 0
BBX 4 2 2 8
BITMAP
05
A4
ENDCHAR
STARTCHAR uni03020300
ENCODING -1
SWIDTH 600 0
DWIDTH 7 0
BBX 5 3 0 6
BITMAP
5000
2000
0A40
ENDCHAR
STARTCHAR uni03020300.cap
ENCODING -1
SWIDTH 600 0
DWIDTH 7 0
BBX 4 2 1 8
BITMAP
40
29
ENDCHAR
STARTCHAR uni03020309
ENCODING -1
SWIDTH 600 0
DWIDTH 7 0
BBX 4 4 2 6
BITMAP
09
06
05
A4
ENDCHAR
STARTCHAR uni03020309.cap
ENCODING -1
SWIDTH 600 0
DWIDTH 7 0
BBX 4 3 2 8
BITMAP
09
06
A9
ENDCHAR
STARTCHAR uni03020303
ENCODING -1
SWIDTH 600 0
DWIDTH 7 0
BBX 3 4 2 6
BITMAP
94
68
00
A4
ENDCHAR
STARTCHAR uni03020303.cap
ENCODING -1
SWIDTH 600 0
DWIDTH 7 0
BBX 4 3 1 8
BITMAP
36
5A
29
ENDCHAR
STARTCHAR uni03060301
ENCODING -1
SWIDTH 600 0
DWIDTH 7 0
BBX 4 4 1 6
BITMAP
04
08
52
2D
ENDCHAR
STARTCHAR uni03060301.cap
ENCODING -1
SWIDTH 600 0
DWIDTH 7 0
BBX 4 4 1 8
BITMAP
05
08
62
2D
ENDCHAR
STARTCHAR uni03060300
ENCODING -1
SWIDTH 600 0
DWIDTH 7 0
BBX 4 4 1 6
BITMAP
10
04
52
2D
ENDCHAR
STARTCHAR uni03060300.cap
ENCODING -1
SWIDTH 600 0
DWIDTH 7 0
BBX 4 4 1 8
BITMAP
20
14
62
2D
ENDCHAR
STARTCHAR uni03060309
ENCODING -1
SWIDTH 600 0
DWIDTH 7 0
BBX 4 5 1 6
BITMAP
18
08
08
52
2D
ENDCHAR
STARTCHAR uni03060309.cap
ENCODING -1
SWIDTH 600 0
DWIDTH 7 0
BBX 4 5 1 8
BITMAP
18
08
08
62
2D
ENDCHAR
STARTCHAR uni03060303
ENCODING -1
SWIDTH 600 0
DWIDTH 7 0
BBX 4 4 1 6
BITMAP
25
5A
62
2D
ENDCHAR
STARTCHAR uni03060303.cap
ENCODING -1
SWIDTH 600 0
DWIDTH 7 0
BBX 4 3 1 8
BITMAP
36
7B
2D
ENDCHAR
STARTCHAR uni03020306
ENCODING -1
SWIDTH 600 0
DWIDTH 7 0
BBX 3 3 2 6
BITMAP
64
10
54
ENDCHAR
STARTCHAR uni03020306.cap
ENCODING -1
SWIDTH 600 0
DWIDTH 7 0
BBX 3 4 2 7
BITMAP
A4
00
70
54
ENDCHAR
STARTCHAR uni03040301
ENCODING -1
SWIDTH 600 0
DWIDTH 7 0
BBX 3 4 2 6
BITMAP
14
60
00
F8
ENDCHAR
STARTCHAR uni03040301.cap
ENCODING -1
SWIDTH 600 0
DWIDTH 7 0
BBX 4 4 1 8
BITMAP
05
08
00
7E
ENDCHAR
STARTCHAR uni03120301
ENCODING -1
SWIDTH 600 0
DWIDTH 7 0
BBX 4 3 1 6
BITMAP
36
55
28
ENDCHAR
STARTCHAR uni03120300
ENCODING -1
SWIDTH 600 0
DWIDTH 7 0
BBX 4 3 1 6
BITMAP
78
55
25
ENDCHAR
STARTCHAR uni03120303
ENCODING -1
SWIDTH 600 0
DWIDTH 7 0
BBX 4 4 1 6
BITMAP
25
6E
14
08
ENDCHAR
STARTCHAR uni03130301
ENCODING -1
SWIDTH 600 0
DWIDTH 7 0
BBX 4 3 1 6
BITMAP
66
25
24
ENDCHAR
STARTCHAR uni03130300
ENCODING -1
SWIDTH 600 0
DWIDTH 7 0
BBX 4 3 1 6
BITMAP
69
25
21
ENDCHAR
STARTCHAR uni03130303
ENCODING -1
SWIDTH 600 0
DWIDTH 7 0
BBX 4 4 1 6
BITMAP
25
6E
08
08
ENDCHAR
STARTCHAR space.frac
ENCODING -1
SWIDTH 600 0
DWIDTH 7 0
BBX 1 1 0 0
BITMAP
00
ENDCHAR
STARTCHAR nbspace.frac
ENCODING -1
SWIDTH 600 0
DWIDTH 7 0
BBX 1 1 0 0
BITMAP
00
ENDCHAR
STARTCHAR u1F3B5_uniFE0F
ENCODING -1
SWIDTH 600 0
DWIDTH 7 0
BBX 5 8 1 0
BITMAP
0900
0B40
0880
0880
0840
0800
B800
F400
ENDCHAR
STARTCHAR u1F3B6_uniFE0F
ENCODING -1
SWIDTH 600 0
DWIDTH 7 0
BBX 7 8 0 0
BITMAP
06B4
0BA8
0808
0808
0808
08B4
BDE0
B400
ENDCHAR
STARTCHAR uni2611_uniFE0F
ENCODING -1
SWIDTH 600 0
DWIDTH 7 0
BBX 9 9 -1 -1
BITMAP
000240
3FFF00
500B00
542600
552200
529200
51C200
500200
155400
ENDCHAR
STARTCHAR uni2713_uniFE0F
ENCODING -1
SWIDTH 600 0
DWIDTH 7 0
BBX 7 8 0 0
BITMAP
0014
0060
0080
0140
8200
5500
2800
2800
ENDCHAR
STARTCHAR uni2665_uniFE0F
ENCODING -1
SWIDTH 600 0
DWIDTH 7 0
BBX 7 8 0 0
BITMAP
79E0
BFF4
FFF4
BFF4
7FF0
2FD0
0F80
0600
ENDCHAR
STARTCHAR uni2663_uniFE0F
ENCODING -1
SWIDTH 600 0
DWIDTH 7 0
BBX 7 8 0 0
BITMAP
0B40
1FC0
0F80
BFF4
FFF4
6AA0
0B40
3FD0
ENDCHAR
STARTCHAR uni2666_uniFE0F
ENCODING -1
SWIDTH 600 0
DWIDTH 7 0
BBX 7 8 0 0
BITMAP
0600
0F80
2FD0
BFF4
BFF4
2FD0
0F80
0600
ENDCHAR
STARTCHAR uni2660_uniFE0F
ENCODING -1
SWIDTH 600 0
DWIDTH 7 0
BBX 7 8 0 0
BITMAP
0600
1F80
3FE0
BFF4
FFF4
6AA0
0B40
3FD0
ENDCHAR
STARTCHAR uni263A_uniFE0F
ENCODING -1
SWIDTH 600 0
DWIDTH 7 0
BBX 7 7 0 0
BITMAP
1F80
6060
8D94
9444
8B54
6060
1F80
ENDCHAR
STARTCHAR uni263B_uniFE0F
ENCODING -1
SWIDTH 600 0
DWIDTH 7 0
BBX 7 5 0 1
BITMAP
1F90
7BB0
AB74
74B0
1F90
ENDCHAR
STARTCHAR uni2764_uniFE0F
ENCODING -1
SWIDTH 600 0
DWIDTH 7 0
BBX 9 7 -1 0
BITMAP
2E7E00
BFFF40
BFFF40
7FFF00
2FFD00
07E000
018000
ENDCHAR
STARTCHAR uni2615_uniFE0F
ENCODING -1
SWIDTH 600 0
DWIDTH 7 0
BBX 8 7 -1 0
BITMAP
1BE0
2FE8
69A6
5BD9
2006
242D
0BD0
ENDCHAR
STARTCHAR u1F4A9_uniFE0F
ENCODING -1
SWIDTH 600 0
DWIDTH 7 0
BBX 7 7 0 0
BITMAP
0640
1FC0
3FE0
6AB0
7FF0
F078
BFE4
ENDCHAR
STARTCHAR u1F916_uniFE0F
ENCODING -1
SWIDTH 600 0
DWIDTH 7 0
BBX 8 7 -1 0
BITMAP
0BE4
1BF8
2AAA
67F7
2006
1998
07E0
ENDCHAR
STARTCHAR u1F512_uniFE0F
ENCODING -1
SWIDTH 600 0
DWIDTH 7 0
BBX 6 11 0 -1
BITMAP
0B40
1880
2480
2480
2480
7FF0
B8F0
B8F0
BDF0
B9F0
7FF0
ENDCHAR
ENDFONT
